# Arch Katana over default katana - Blade_Wings
# Fleasion-ready: already in the default MeshPart's space
o Blade_Wings
v -0.178516 -1.339331 0.061689 0.4500 1.0000 0.7200
v -0.178516 -1.339331 0.061689 0.4500 1.0000 0.7200
v -0.241686 -1.313092 0.061689 0.0000 0.1600 0.0900
v -0.241686 -1.313092 0.061689 0.0000 0.1600 0.0900
v -0.115347 -1.313092 0.061689 0.0000 0.1600 0.0900
v -0.115347 -1.313092 0.061689 0.0000 0.1600 0.0900
v -0.178516 -1.207186 0.061689 0.4500 1.0000 0.7200
v -0.178516 -1.207186 0.061689 0.4500 1.0000 0.7200
v -0.260748 -1.181955 0.061689 0.0000 0.1600 0.0900
v -0.260748 -1.181955 0.061689 0.0000 0.1600 0.0900
v -0.096285 -1.181955 0.061689 0.0000 0.1600 0.0900
v -0.096285 -1.181955 0.061689 0.0000 0.1600 0.0900
v -0.286271 -1.283538 0.040687 0.3914 0.9886 0.6857
v -0.286271 -1.283538 0.040687 0.3914 0.9886 0.6857
v -0.071029 -1.283538 0.040687 0.3914 0.9886 0.6857
v -0.071029 -1.283538 0.040687 0.3914 0.9886 0.6857
v -0.388151 -1.214387 0.040687 0.3491 0.9803 0.6610
v -0.388151 -1.214387 0.040687 0.3491 0.9803 0.6610
v 0.030851 -1.214387 0.040687 0.3666 0.9837 0.6712
v 0.030851 -1.214387 0.040687 0.3666 0.9837 0.6712
v -0.434805 -1.161202 0.040687 0.2737 0.9656 0.6168
v -0.434805 -1.161202 0.040687 0.2737 0.9656 0.6168
v 0.077505 -1.161202 0.040687 0.3019 0.9711 0.6333
v 0.077505 -1.161202 0.040687 0.3019 0.9711 0.6333
v -0.178516 -1.507245 0.038686 0.4500 1.0000 0.7200
v -0.178516 -1.507245 0.038686 0.4500 1.0000 0.7200
v -0.236708 -1.434505 0.038686 0.0030 0.1063 0.0624
v -0.120325 -1.434505 0.038686 0.0030 0.1063 0.0624
v -0.211249 -1.403331 0.038686 0.0363 0.8496 0.4439
v -0.211249 -1.403331 0.038686 0.0363 0.8496 0.4439
v -0.145783 -1.403331 0.038686 0.0363 0.8496 0.4439
v -0.215101 -1.161981 0.038447 0.0841 0.9286 0.5058
v -0.215101 -1.161981 0.038447 0.0841 0.9286 0.5058
v -0.215101 -1.161981 0.038447 0.0841 0.9286 0.5058
v -0.147484 -1.161981 0.038447 0.1635 0.9441 0.5523
v -0.147484 -1.161981 0.038447 0.1635 0.9441 0.5523
v -0.147484 -1.161981 0.038447 0.1635 0.9441 0.5523
v -0.210662 -0.990552 0.038447 0.0262 0.6570 0.3451
v -0.210662 -0.990552 0.038447 0.0262 0.6570 0.3451
v -0.103008 -0.909273 0.038447 0.1987 0.9510 0.5729
v -0.103008 -0.909273 0.038447 0.1987 0.9510 0.5729
v -0.103008 -0.909273 0.038447 0.1987 0.9510 0.5729
v -0.206708 -0.855521 0.038447 0.0385 0.8924 0.4658
v -0.206708 -0.855521 0.038447 0.0385 0.8924 0.4658
v -0.206708 -0.855521 0.038447 0.0385 0.8924 0.4658
v -0.122631 -0.773538 0.038447 0.2528 0.9615 0.6045
v -0.223313 -0.747873 0.038447 0.4500 1.0000 0.7200
v -0.138532 -0.649832 0.038447 0.0030 0.1057 0.0621
v -0.274707 -0.637138 0.038447 0.3009 0.9709 0.6327
v -0.269868 -0.564081 0.038447 0.2025 0.9517 0.5751
v -0.259752 -0.342671 0.038447 0.4358 0.9972 0.7117
v -0.173618 -0.260248 0.038447 0.0051 0.0687 0.0431
v -0.276315 -0.021113 0.038447 0.1680 0.9450 0.5549
v -0.173205 0.002758 0.038447 0.0080 0.0160 0.0160
v -0.241691 0.407940 0.038447 0.0045 0.2448 0.1335
v -0.116873 0.486450 0.038447 0.0008 0.1752 0.0978
v -0.168108 0.730671 0.038447 0.0047 0.0750 0.0463
v -0.107603 0.859071 0.038447 0.0073 0.0290 0.0227
v -0.019002 0.874973 0.038447 0.0069 0.0367 0.0266
v -0.047099 0.987472 0.038447 0.0080 0.0160 0.0160
v 0.079251 1.112898 0.038447 0.0080 0.0160 0.0160
v 0.079251 1.112898 0.038447 0.0080 0.0160 0.0160
v 0.079251 1.112898 0.038447 0.0080 0.0160 0.0160
v -0.482496 -1.049129 0.036182 0.1359 0.9387 0.5361
v -0.482496 -1.049129 0.036182 0.1359 0.9387 0.5361
v -0.494418 -0.926723 0.036182 0.0386 0.8925 0.4659
v -0.494418 -0.926723 0.036182 0.0386 0.8925 0.4659
v -0.504240 -0.856043 0.036182 0.0304 0.7377 0.3864
v -0.504240 -0.856043 0.036182 0.0304 0.7377 0.3864
v 0.125196 -1.049129 0.036182 0.1723 0.9458 0.5575
v 0.125196 -1.049129 0.036182 0.1723 0.9458 0.5575
v 0.137119 -0.926723 0.036182 0.0624 0.9244 0.4931
v 0.137119 -0.926723 0.036182 0.0624 0.9244 0.4931
v 0.146940 -0.856043 0.036182 0.0340 0.8062 0.4216
v 0.146940 -0.856043 0.036182 0.0340 0.8062 0.4216
v 0.160138 -0.963398 0.019073 0.0435 0.9207 0.4821
v 0.160138 -0.963398 0.019073 0.0435 0.9207 0.4821
v 0.160138 -0.963398 0.019073 0.0435 0.9207 0.4821
v 0.135063 -0.877077 0.019073 0.0383 0.8872 0.4632
v 0.135063 -0.877077 0.019073 0.0383 0.8872 0.4632
v 0.135063 -0.877077 0.019073 0.0383 0.8872 0.4632
v 0.360439 -0.860386 0.019073 0.0026 0.1138 0.0663
v 0.360439 -0.860386 0.019073 0.0026 0.1138 0.0663
v 0.183737 -0.788864 0.019073 0.0202 0.5431 0.2866
v 0.183737 -0.788864 0.019073 0.0202 0.5431 0.2866
v -0.922808 -0.682977 0.019073 0.0080 0.0160 0.0160
v -0.922808 -0.682977 0.019073 0.0080 0.0160 0.0160
v -0.953330 -0.619072 0.019073 0.0080 0.0160 0.0160
v -0.953330 -0.619072 0.019073 0.0080 0.0160 0.0160
v -0.790228 -0.591411 0.019073 0.0078 0.0188 0.0175
v -0.790228 -0.591411 0.019073 0.0078 0.0188 0.0175
v -0.989575 -0.510337 0.019073 0.0080 0.0160 0.0160
v -0.989575 -0.510337 0.019073 0.0080 0.0160 0.0160
v -0.915178 -0.479815 0.019073 0.0080 0.0160 0.0160
v -0.915178 -0.479815 0.019073 0.0080 0.0160 0.0160
v -1.015328 -0.381573 0.019073 0.0080 0.0160 0.0160
v -1.015328 -0.381573 0.019073 0.0080 0.0160 0.0160
v -1.015328 -0.381573 0.019073 0.0080 0.0160 0.0160
v -0.517438 -0.963398 0.019073 0.0365 0.8531 0.4457
v -0.517438 -0.963398 0.019073 0.0365 0.8531 0.4457
v -0.517438 -0.963398 0.019073 0.0365 0.8531 0.4457
v -0.492363 -0.877077 0.019073 0.0347 0.8198 0.4286
v -0.492363 -0.877077 0.019073 0.0347 0.8198 0.4286
v -0.492363 -0.877077 0.019073 0.0347 0.8198 0.4286
v -0.717738 -0.860386 0.019073 0.0034 0.0992 0.0588
v -0.717738 -0.860386 0.019073 0.0034 0.0992 0.0588
v -0.827427 -0.792666 0.019073 0.0075 0.0256 0.0209
v -0.827427 -0.792666 0.019073 0.0075 0.0256 0.0209
v 0.470127 -0.792666 0.019073 0.0071 0.0321 0.0243
v 0.470127 -0.792666 0.019073 0.0071 0.0321 0.0243
v -0.541037 -0.788864 0.019073 0.0165 0.4740 0.2511
v -0.541037 -0.788864 0.019073 0.0165 0.4740 0.2511
v 0.565508 -0.682977 0.019073 0.0080 0.0160 0.0160
v 0.565508 -0.682977 0.019073 0.0080 0.0160 0.0160
v 0.596030 -0.619072 0.019073 0.0080 0.0160 0.0160
v 0.596030 -0.619072 0.019073 0.0080 0.0160 0.0160
v 0.432928 -0.591411 0.019073 0.0076 0.0224 0.0193
v 0.432928 -0.591411 0.019073 0.0076 0.0224 0.0193
v 0.632275 -0.510337 0.019073 0.0080 0.0160 0.0160
v 0.632275 -0.510337 0.019073 0.0080 0.0160 0.0160
v 0.557878 -0.479815 0.019073 0.0080 0.0160 0.0160
v 0.557878 -0.479815 0.019073 0.0080 0.0160 0.0160
v 0.658028 -0.381573 0.019073 0.0080 0.0160 0.0160
v 0.658028 -0.381573 0.019073 0.0080 0.0160 0.0160
v 0.658028 -0.381573 0.019073 0.0080 0.0160 0.0160
v -0.585473 -0.744912 0.018380 0.0035 0.2260 0.1239
v -0.585473 -0.744912 0.018380 0.0035 0.2260 0.1239
v 0.228173 -0.744912 0.018380 0.0070 0.2937 0.1586
v 0.228173 -0.744912 0.018380 0.0070 0.2937 0.1586
v -0.505149 -1.040958 0.015502 0.0825 0.9283 0.5049
v -0.505149 -1.040958 0.015502 0.0825 0.9283 0.5049
v -0.505149 -1.040958 0.015502 0.0825 0.9283 0.5049
v 0.147849 -1.040958 0.015502 0.1216 0.9359 0.5277
v 0.147849 -1.040958 0.015502 0.1216 0.9359 0.5277
v 0.147849 -1.040958 0.015502 0.1216 0.9359 0.5277
v -0.707409 -1.018029 0.015502 0.0012 0.1392 0.0793
v -0.707409 -1.018029 0.015502 0.0012 0.1392 0.0793
v 0.350109 -1.018029 0.015502 0.0002 0.1565 0.0882
v 0.350109 -1.018029 0.015502 0.0002 0.1565 0.0882
v -0.844405 -0.979280 0.015502 0.0070 0.0343 0.0254
v -0.844405 -0.979280 0.015502 0.0070 0.0343 0.0254
v 0.487105 -0.979280 0.015502 0.0065 0.0432 0.0300
v 0.487105 -0.979280 0.015502 0.0065 0.0432 0.0300
v -0.518613 -0.958869 0.015502 0.0359 0.8420 0.4400
v -0.518613 -0.958869 0.015502 0.0359 0.8420 0.4400
v -0.518613 -0.958869 0.015502 0.0359 0.8420 0.4400
v 0.161314 -0.958869 0.015502 0.0398 0.9156 0.4777
v 0.161314 -0.958869 0.015502 0.0398 0.9156 0.4777
v 0.161314 -0.958869 0.015502 0.0398 0.9156 0.4777
v -0.907471 -0.952065 0.015502 0.0080 0.0164 0.0162
v -0.907471 -0.952065 0.015502 0.0080 0.0164 0.0162
v 0.550171 -0.952065 0.015502 0.0079 0.0186 0.0173
v 0.550171 -0.952065 0.015502 0.0079 0.0186 0.0173
v -0.934246 -0.925393 0.015502 0.0080 0.0160 0.0160
v -0.934246 -0.925393 0.015502 0.0080 0.0160 0.0160
v 0.576947 -0.925393 0.015502 0.0080 0.0160 0.0160
v 0.576947 -0.925393 0.015502 0.0080 0.0160 0.0160
v -0.983892 -0.848994 0.015502 0.0080 0.0160 0.0160
v -0.983892 -0.848994 0.015502 0.0080 0.0160 0.0160
v 0.626592 -0.848994 0.015502 0.0080 0.0160 0.0160
v 0.626592 -0.848994 0.015502 0.0080 0.0160 0.0160
v -0.808876 -0.829486 0.015502 0.0069 0.0364 0.0265
v -0.808876 -0.829486 0.015502 0.0069 0.0364 0.0265
v 0.451576 -0.829486 0.015502 0.0064 0.0451 0.0310
v 0.451576 -0.829486 0.015502 0.0064 0.0451 0.0310
v -1.043069 -0.735653 0.015502 0.0080 0.0160 0.0160
v -1.043069 -0.735653 0.015502 0.0080 0.0160 0.0160
v -1.043069 -0.735653 0.015502 0.0080 0.0160 0.0160
v 0.685769 -0.735653 0.015502 0.0080 0.0160 0.0160
v 0.685769 -0.735653 0.015502 0.0080 0.0160 0.0160
v 0.685769 -0.735653 0.015502 0.0080 0.0160 0.0160
v -0.689995 -1.174637 0.013549 0.0039 0.2349 0.1284
v -0.689995 -1.174637 0.013549 0.0039 0.2349 0.1284
v 0.332695 -1.174637 0.013549 0.0085 0.3209 0.1726
v 0.332695 -1.174637 0.013549 0.0085 0.3209 0.1726
v -0.547643 -1.172339 0.013549 0.0399 0.9179 0.4789
v -0.547643 -1.172339 0.013549 0.0399 0.9179 0.4789
v 0.190343 -1.172339 0.013549 0.0826 0.9283 0.5049
v 0.190343 -1.172339 0.013549 0.0826 0.9283 0.5049
v -0.758224 -1.166715 0.013549 0.0028 0.1093 0.0639
v -0.758224 -1.166715 0.013549 0.0028 0.1093 0.0639
v 0.400924 -1.166715 0.013549 0.0019 0.1259 0.0725
v 0.400924 -1.166715 0.013549 0.0019 0.1259 0.0725
v -0.791540 -1.148873 0.013549 0.0044 0.0801 0.0489
v -0.791540 -1.148873 0.013549 0.0044 0.0801 0.0489
v 0.434240 -1.148873 0.013549 0.0036 0.0948 0.0565
v 0.434240 -1.148873 0.013549 0.0036 0.0948 0.0565
v -0.447482 -1.137056 0.013549 0.2442 0.9598 0.5995
v -0.447482 -1.137056 0.013549 0.2442 0.9598 0.5995
v -0.447482 -1.137056 0.013549 0.2442 0.9598 0.5995
v 0.090182 -1.137056 0.013549 0.2750 0.9658 0.6175
v 0.090182 -1.137056 0.013549 0.2750 0.9658 0.6175
v 0.090182 -1.137056 0.013549 0.2750 0.9658 0.6175
v -0.861065 -1.089985 0.013549 0.0070 0.0334 0.0249
v -0.861065 -1.089985 0.013549 0.0070 0.0334 0.0249
v 0.503766 -1.089985 0.013549 0.0065 0.0423 0.0295
v 0.503766 -1.089985 0.013549 0.0065 0.0423 0.0295
v -0.484207 -1.039420 0.013549 0.1267 0.9369 0.5308
v -0.484207 -1.039420 0.013549 0.1267 0.9369 0.5308
v -0.484207 -1.039420 0.013549 0.1267 0.9369 0.5308
v 0.126907 -1.039420 0.013549 0.1634 0.9441 0.5522
v 0.126907 -1.039420 0.013549 0.1634 0.9441 0.5522
v 0.126907 -1.039420 0.013549 0.1634 0.9441 0.5522
v -0.699059 -1.020955 0.013549 0.0007 0.1476 0.0836
v -0.699059 -1.020955 0.013549 0.0007 0.1476 0.0836
v 0.341759 -1.020955 0.013549 0.0012 0.1835 0.1020
v 0.341759 -1.020955 0.013549 0.0012 0.1835 0.1020
v -0.950345 -0.998458 0.013549 0.0080 0.0160 0.0160
v -0.950345 -0.998458 0.013549 0.0080 0.0160 0.0160
v -0.950345 -0.998458 0.013549 0.0080 0.0160 0.0160
v 0.593045 -0.998458 0.013549 0.0080 0.0160 0.0160
v 0.593045 -0.998458 0.013549 0.0080 0.0160 0.0160
v 0.593045 -0.998458 0.013549 0.0080 0.0160 0.0160
v -0.616578 -1.305510 0.011804 0.0240 0.6169 0.3244
v -0.616578 -1.305510 0.011804 0.0240 0.6169 0.3244
v 0.259278 -1.305510 0.011804 0.0287 0.7057 0.3700
v 0.259278 -1.305510 0.011804 0.0287 0.7057 0.3700
v -0.643663 -1.304115 0.011804 0.0170 0.4829 0.2557
v -0.643663 -1.304115 0.011804 0.0170 0.4829 0.2557
v 0.286363 -1.304115 0.011804 0.0217 0.5723 0.3016
v 0.286363 -1.304115 0.011804 0.0217 0.5723 0.3016
v -0.569861 -1.289787 0.011804 0.0360 0.8441 0.4411
v -0.569861 -1.289787 0.011804 0.0360 0.8441 0.4411
v 0.212561 -1.289787 0.011804 0.0448 0.9209 0.4828
v 0.212561 -1.289787 0.011804 0.0448 0.9209 0.4828
v -0.706807 -1.287148 0.011804 0.0009 0.1772 0.0988
v -0.706807 -1.287148 0.011804 0.0009 0.1772 0.0988
v 0.349508 -1.287148 0.011804 0.0054 0.2627 0.1427
v 0.349508 -1.287148 0.011804 0.0054 0.2627 0.1427
v -0.792758 -1.255034 0.011804 0.0043 0.0834 0.0506
v -0.792758 -1.255034 0.011804 0.0043 0.0834 0.0506
v -0.792758 -1.255034 0.011804 0.0043 0.0834 0.0506
v 0.435458 -1.255034 0.011804 0.0034 0.0985 0.0584
v 0.435458 -1.255034 0.011804 0.0034 0.0985 0.0584
v 0.435458 -1.255034 0.011804 0.0034 0.0985 0.0584
v -0.478150 -1.244760 0.011804 0.2104 0.9533 0.5798
v -0.478150 -1.244760 0.011804 0.2104 0.9533 0.5798
v 0.120851 -1.244760 0.011804 0.2456 0.9601 0.6003
v 0.120851 -1.244760 0.011804 0.2456 0.9601 0.6003
v -0.622745 -1.192790 0.011804 0.0215 0.5678 0.2993
v -0.622745 -1.192790 0.011804 0.0215 0.5678 0.2993
v 0.265445 -1.192790 0.011804 0.0261 0.6563 0.3447
v 0.265445 -1.192790 0.011804 0.0261 0.6563 0.3447
v -0.423917 -1.191224 0.011804 0.2984 0.9704 0.6312
v -0.423917 -1.191224 0.011804 0.2984 0.9704 0.6312
v -0.423917 -1.191224 0.011804 0.2984 0.9704 0.6312
v 0.066617 -1.191224 0.011804 0.3240 0.9754 0.6463
v 0.066617 -1.191224 0.011804 0.3240 0.9754 0.6463
v 0.066617 -1.191224 0.011804 0.3240 0.9754 0.6463
v -0.477618 -1.139070 0.011804 0.1872 0.9487 0.5662
v -0.477618 -1.139070 0.011804 0.1872 0.9487 0.5662
v -0.477618 -1.139070 0.011804 0.1872 0.9487 0.5662
v 0.120318 -1.139070 0.011804 0.2227 0.9557 0.5870
v 0.120318 -1.139070 0.011804 0.2227 0.9557 0.5870
v 0.120318 -1.139070 0.011804 0.2227 0.9557 0.5870
v -0.643065 -1.395750 0.010438 0.0171 0.4858 0.2572
v -0.643065 -1.395750 0.010438 0.0171 0.4858 0.2572
v -0.643065 -1.395750 0.010438 0.0171 0.4858 0.2572
v 0.285766 -1.395750 0.010438 0.0219 0.5752 0.3031
v 0.285766 -1.395750 0.010438 0.0219 0.5752 0.3031
v 0.285766 -1.395750 0.010438 0.0219 0.5752 0.3031
v -0.565165 -1.391910 0.010438 0.0372 0.8664 0.4525
v -0.565165 -1.391910 0.010438 0.0372 0.8664 0.4525
v 0.207865 -1.391910 0.010438 0.0565 0.9232 0.4896
v 0.207865 -1.391910 0.010438 0.0565 0.9232 0.4896
v -0.510163 -1.383916 0.010438 0.1442 0.9403 0.5410
v -0.510163 -1.383916 0.010438 0.1442 0.9403 0.5410
v 0.152864 -1.383916 0.010438 0.1839 0.9481 0.5643
v 0.152864 -1.383916 0.010438 0.1839 0.9481 0.5643
v -0.488550 -1.375895 0.010438 0.1915 0.9496 0.5687
v -0.488550 -1.375895 0.010438 0.1915 0.9496 0.5687
v 0.131250 -1.375895 0.010438 0.2282 0.9567 0.5902
v 0.131250 -1.375895 0.010438 0.2282 0.9567 0.5902
v -0.457369 -1.347907 0.010438 0.2531 0.9616 0.6047
v -0.457369 -1.347907 0.010438 0.2531 0.9616 0.6047
v 0.100069 -1.347907 0.010438 0.2846 0.9677 0.6232
v 0.100069 -1.347907 0.010438 0.2846 0.9677 0.6232
v -0.531279 -1.289972 0.010438 0.0950 0.9307 0.5122
v -0.531279 -1.289972 0.010438 0.0950 0.9307 0.5122
v 0.173979 -1.289972 0.010438 0.1372 0.9390 0.5369
v 0.173979 -1.289972 0.010438 0.1372 0.9390 0.5369
v -0.400918 -1.281908 0.010438 0.3397 0.9785 0.6555
v -0.400918 -1.281908 0.010438 0.3397 0.9785 0.6555
v 0.043618 -1.281908 0.010438 0.3595 0.9823 0.6670
v 0.043618 -1.281908 0.010438 0.3595 0.9823 0.6670
v -0.376588 -1.221872 0.010438 0.3617 0.9828 0.6683
v -0.376588 -1.221872 0.010438 0.3617 0.9828 0.6683
v -0.376588 -1.221872 0.010438 0.3617 0.9828 0.6683
v 0.019288 -1.221872 0.010438 0.3761 0.9856 0.6767
v 0.019288 -1.221872 0.010438 0.3761 0.9856 0.6767
v 0.019288 -1.221872 0.010438 0.3761 0.9856 0.6767
v -0.436053 -1.199221 0.010438 0.2808 0.9670 0.6210
v -0.436053 -1.199221 0.010438 0.2808 0.9670 0.6210
v -0.436053 -1.199221 0.010438 0.2808 0.9670 0.6210
v 0.078753 -1.199221 0.010438 0.3088 0.9724 0.6373
v 0.078753 -1.199221 0.010438 0.3088 0.9724 0.6373
v 0.078753 -1.199221 0.010438 0.3088 0.9724 0.6373
v 0.132839 -1.458711 0.009958 0.2251 0.9561 0.5883
v 0.132839 -1.458711 0.009958 0.2251 0.9561 0.5883
v 0.132839 -1.458711 0.009958 0.2251 0.9561 0.5883
v 0.076870 -1.432588 0.009958 0.3200 0.9746 0.6439
v 0.076870 -1.432588 0.009958 0.3200 0.9746 0.6439
v 0.038934 -1.410272 0.009958 0.3640 0.9832 0.6696
v 0.038934 -1.410272 0.009958 0.3640 0.9832 0.6696
v 0.025487 -1.397923 0.009958 0.3749 0.9853 0.6760
v 0.025487 -1.397923 0.009958 0.3749 0.9853 0.6760
v 0.010997 -1.368073 0.009958 0.3837 0.9871 0.6812
v 0.010997 -1.368073 0.009958 0.3837 0.9871 0.6812
v -0.439945 -1.347708 0.009958 0.2836 0.9675 0.6226
v -0.439945 -1.347708 0.009958 0.2836 0.9675 0.6226
v -0.010647 -1.302793 0.009958 0.3907 0.9884 0.6853
v -0.010647 -1.302793 0.009958 0.3907 0.9884 0.6853
v -0.397275 -1.252677 0.009958 0.3428 0.9791 0.6572
v -0.397275 -1.252677 0.009958 0.3428 0.9791 0.6572
v -0.397275 -1.252677 0.009958 0.3428 0.9791 0.6572
v -0.346897 -1.251494 0.009958 0.3845 0.9872 0.6817
v -0.346897 -1.251494 0.009958 0.3845 0.9872 0.6817
v -0.346897 -1.251494 0.009958 0.3845 0.9872 0.6817
v -0.490261 -1.458711 0.009958 0.1879 0.9488 0.5665
v -0.490261 -1.458711 0.009958 0.1879 0.9488 0.5665
v -0.490261 -1.458711 0.009958 0.1879 0.9488 0.5665
v -0.434292 -1.432588 0.009958 0.2928 0.9693 0.6280
v -0.434292 -1.432588 0.009958 0.2928 0.9693 0.6280
v -0.396356 -1.410272 0.009958 0.3452 0.9796 0.6587
v -0.396356 -1.410272 0.009958 0.3452 0.9796 0.6587
v -0.382908 -1.397923 0.009958 0.3595 0.9823 0.6670
v -0.382908 -1.397923 0.009958 0.3595 0.9823 0.6670
v -0.368419 -1.368073 0.009958 0.3721 0.9848 0.6744
v -0.368419 -1.368073 0.009958 0.3721 0.9848 0.6744
v 0.082523 -1.347708 0.009958 0.3120 0.9731 0.6392
v 0.082523 -1.347708 0.009958 0.3120 0.9731 0.6392
v -0.346775 -1.302793 0.009958 0.3853 0.9874 0.6821
v -0.346775 -1.302793 0.009958 0.3853 0.9874 0.6821
v 0.039853 -1.252677 0.009958 0.3619 0.9828 0.6685
v 0.039853 -1.252677 0.009958 0.3619 0.9828 0.6685
v 0.039853 -1.252677 0.009958 0.3619 0.9828 0.6685
v -0.010524 -1.251494 0.009958 0.3904 0.9884 0.6851
v -0.010524 -1.251494 0.009958 0.3904 0.9884 0.6851
v -0.010524 -1.251494 0.009958 0.3904 0.9884 0.6851
v -0.286271 -1.340965 0.000488 0.3914 0.9886 0.6857
v -0.286271 -1.340965 0.000488 0.3914 0.9886 0.6857
v -0.071029 -1.340965 0.000488 0.3914 0.9886 0.6857
v -0.071029 -1.340965 0.000488 0.3914 0.9886 0.6857
v -0.430393 -1.253289 0.000488 0.2974 0.9702 0.6307
v -0.430393 -1.253289 0.000488 0.2974 0.9702 0.6307
v 0.073094 -1.253289 0.000488 0.3238 0.9754 0.6461
v 0.073094 -1.253289 0.000488 0.3238 0.9754 0.6461
v -0.286271 -1.226111 0.000488 0.3914 0.9886 0.6857
v -0.286271 -1.226111 0.000488 0.3914 0.9886 0.6857
v -0.071029 -1.226111 0.000488 0.3914 0.9886 0.6857
v -0.071029 -1.226111 0.000488 0.3914 0.9886 0.6857
v -0.485252 -1.188643 0.000488 0.1861 0.9485 0.5655
v -0.485252 -1.188643 0.000488 0.1861 0.9485 0.5655
v 0.127952 -1.188643 0.000488 0.2225 0.9556 0.5869
v 0.127952 -1.188643 0.000488 0.2225 0.9556 0.5869
v -0.345908 -1.175484 0.000488 0.3788 0.9861 0.6783
v -0.345908 -1.175484 0.000488 0.3788 0.9861 0.6783
v -0.011392 -1.175484 0.000488 0.3872 0.9877 0.6832
v -0.011392 -1.175484 0.000488 0.3872 0.9877 0.6832
v -0.384358 -1.133761 0.000488 0.3363 0.9778 0.6535
v -0.384358 -1.133761 0.000488 0.3363 0.9778 0.6535
v 0.027059 -1.133761 0.000488 0.3551 0.9815 0.6644
v 0.027059 -1.133761 0.000488 0.3551 0.9815 0.6644
v -0.532486 -1.059181 0.000488 0.0390 0.9016 0.4706
v -0.532486 -1.059181 0.000488 0.0390 0.9016 0.4706
v 0.175187 -1.059181 0.000488 0.0719 0.9262 0.4987
v 0.175187 -1.059181 0.000488 0.0719 0.9262 0.4987
v -0.432505 -1.039077 0.000488 0.2252 0.9561 0.5884
v -0.432505 -1.039077 0.000488 0.2252 0.9561 0.5884
v 0.075205 -1.039077 0.000488 0.2548 0.9619 0.6057
v 0.075205 -1.039077 0.000488 0.2548 0.9619 0.6057
v -0.443784 -0.932744 0.000488 0.1300 0.9376 0.5327
v -0.443784 -0.932744 0.000488 0.1300 0.9376 0.5327
v -0.545053 -0.920703 0.000488 0.0272 0.6765 0.3550
v -0.545053 -0.920703 0.000488 0.0272 0.6765 0.3550
v -0.546923 -0.883940 0.000488 0.0238 0.6127 0.3223
v -0.546923 -0.883940 0.000488 0.0238 0.6127 0.3223
v -0.461556 -0.828146 0.000488 0.0359 0.8428 0.4404
v -0.461556 -0.828146 0.000488 0.0359 0.8428 0.4404
v -0.607004 -0.758686 0.000488 0.0004 0.1680 0.0941
v -0.607004 -0.758686 0.000488 0.0004 0.1680 0.0941
v -0.563942 -0.731138 0.000488 0.0064 0.2815 0.1524
v -0.563942 -0.731138 0.000488 0.0064 0.2815 0.1524
v -0.671615 -0.673928 0.000488 0.0041 0.0855 0.0517
v -0.671615 -0.673928 0.000488 0.0041 0.0855 0.0517
v -0.671615 -0.673928 0.000488 0.0041 0.0855 0.0517
v -0.671615 -0.673928 0.000488 0.0041 0.0855 0.0517
v 0.086484 -0.932744 0.000488 0.1618 0.9438 0.5513
v 0.086484 -0.932744 0.000488 0.1618 0.9438 0.5513
v 0.187753 -0.920703 0.000488 0.0312 0.7522 0.3939
v 0.187753 -0.920703 0.000488 0.0312 0.7522 0.3939
v 0.189624 -0.883940 0.000488 0.0277 0.6871 0.3605
v 0.189624 -0.883940 0.000488 0.0277 0.6871 0.3605
v 0.104256 -0.828146 0.000488 0.0392 0.9040 0.4718
v 0.104256 -0.828146 0.000488 0.0392 0.9040 0.4718
v 0.249704 -0.758686 0.000488 0.0040 0.2364 0.1292
v 0.249704 -0.758686 0.000488 0.0040 0.2364 0.1292
v 0.206642 -0.731138 0.000488 0.0099 0.3478 0.1864
v 0.206642 -0.731138 0.000488 0.0099 0.3478 0.1864
v 0.314315 -0.673928 0.000488 0.0035 0.0976 0.0580
v 0.314315 -0.673928 0.000488 0.0035 0.0976 0.0580
v 0.314315 -0.673928 0.000488 0.0035 0.0976 0.0580
v 0.314315 -0.673928 0.000488 0.0035 0.0976 0.0580
v -0.255682 -1.161981 0.000000 0.0066 0.0410 0.0288
v -0.255682 -1.161981 0.000000 0.0066 0.0410 0.0288
v -0.255682 -1.161981 0.000000 0.0066 0.0410 0.0288
v -0.104734 -1.161981 0.000000 0.0057 0.0579 0.0375
v -0.104734 -1.161981 0.000000 0.0057 0.0579 0.0375
v -0.104734 -1.161981 0.000000 0.0057 0.0579 0.0375
v -0.255964 -0.977142 0.000000 0.0080 0.0160 0.0160
v -0.255964 -0.977142 0.000000 0.0080 0.0160 0.0160
v -0.022989 -0.904464 0.000000 0.0080 0.0160 0.0160
v -0.022989 -0.904464 0.000000 0.0080 0.0160 0.0160
v -0.268521 -0.828539 0.000000 0.0014 0.1349 0.0771
v -0.268521 -0.828539 0.000000 0.0014 0.1349 0.0771
v -0.066713 -0.779465 0.000000 0.0009 0.1434 0.0815
v -0.066713 -0.779465 0.000000 0.0009 0.1434 0.0815
v -0.309437 -0.732588 0.000000 0.0009 0.1446 0.0821
v -0.309437 -0.732588 0.000000 0.0009 0.1446 0.0821
v -0.353622 -0.637138 0.000000 0.0080 0.0160 0.0160
v -0.353622 -0.637138 0.000000 0.0080 0.0160 0.0160
v -0.332651 -0.580245 0.000000 0.0043 0.0825 0.0502
v -0.332651 -0.580245 0.000000 0.0043 0.0825 0.0502
v -0.099300 -0.513383 0.000000 0.0080 0.0160 0.0160
v -0.099300 -0.513383 0.000000 0.0080 0.0160 0.0160
v -0.326649 -0.338226 0.000000 0.0080 0.0160 0.0160
v -0.326649 -0.338226 0.000000 0.0080 0.0160 0.0160
v -0.118788 -0.130553 0.000000 0.3559 0.9816 0.6649
v -0.118788 -0.130553 0.000000 0.3559 0.9816 0.6649
v -0.344377 -0.016133 0.000000 0.0080 0.0160 0.0160
v -0.344377 -0.016133 0.000000 0.0080 0.0160 0.0160
v -0.089249 0.244207 0.000000 0.1275 0.9371 0.5312
v -0.089249 0.244207 0.000000 0.1275 0.9371 0.5312
v -0.324392 0.397889 0.000000 0.0080 0.0160 0.0160
v -0.324392 0.397889 0.000000 0.0080 0.0160 0.0160
v -0.058977 0.464495 0.000000 0.0080 0.0160 0.0160
v -0.058977 0.464495 0.000000 0.0080 0.0160 0.0160
v -0.248479 0.750497 0.000000 0.0080 0.0160 0.0160
v -0.248479 0.750497 0.000000 0.0080 0.0160 0.0160
v 0.033197 0.842552 0.000000 0.0080 0.0160 0.0160
v 0.033197 0.842552 0.000000 0.0080 0.0160 0.0160
v -0.157704 0.972294 0.000000 0.0080 0.0160 0.0160
v -0.157704 0.972294 0.000000 0.0080 0.0160 0.0160
v -0.001705 1.166363 0.000000 0.0080 0.0160 0.0160
v -0.001705 1.166363 0.000000 0.0080 0.0160 0.0160
v 0.216293 1.365399 0.000000 0.0057 0.2686 0.1457
v 0.216293 1.365399 0.000000 0.0057 0.2686 0.1457
v 0.216293 1.365399 0.000000 0.0057 0.2686 0.1457
v 0.216293 1.365399 0.000000 0.0057 0.2686 0.1457
v -0.490261 -1.458711 -0.008981 0.1879 0.9488 0.5665
v -0.490261 -1.458711 -0.008981 0.1879 0.9488 0.5665
v -0.490261 -1.458711 -0.008981 0.1879 0.9488 0.5665
v 0.132839 -1.458711 -0.008981 0.2251 0.9561 0.5883
v 0.132839 -1.458711 -0.008981 0.2251 0.9561 0.5883
v 0.132839 -1.458711 -0.008981 0.2251 0.9561 0.5883
v -0.434292 -1.432588 -0.008981 0.2928 0.9693 0.6280
v -0.434292 -1.432588 -0.008981 0.2928 0.9693 0.6280
v 0.076870 -1.432588 -0.008981 0.3200 0.9746 0.6439
v 0.076870 -1.432588 -0.008981 0.3200 0.9746 0.6439
v -0.396356 -1.410272 -0.008981 0.3452 0.9796 0.6587
v -0.396356 -1.410272 -0.008981 0.3452 0.9796 0.6587
v 0.038934 -1.410272 -0.008981 0.3640 0.9832 0.6696
v 0.038934 -1.410272 -0.008981 0.3640 0.9832 0.6696
v -0.382908 -1.397923 -0.008981 0.3595 0.9823 0.6670
v -0.382908 -1.397923 -0.008981 0.3595 0.9823 0.6670
v 0.025487 -1.397923 -0.008981 0.3749 0.9853 0.6760
v 0.025487 -1.397923 -0.008981 0.3749 0.9853 0.6760
v -0.368419 -1.368073 -0.008981 0.3721 0.9848 0.6744
v -0.368419 -1.368073 -0.008981 0.3721 0.9848 0.6744
v 0.010997 -1.368073 -0.008981 0.3837 0.9871 0.6812
v 0.010997 -1.368073 -0.008981 0.3837 0.9871 0.6812
v -0.439945 -1.347708 -0.008981 0.2836 0.9675 0.6226
v -0.439945 -1.347708 -0.008981 0.2836 0.9675 0.6226
v 0.082523 -1.347708 -0.008981 0.3120 0.9731 0.6392
v 0.082523 -1.347708 -0.008981 0.3120 0.9731 0.6392
v -0.346775 -1.302793 -0.008981 0.3853 0.9874 0.6821
v -0.346775 -1.302793 -0.008981 0.3853 0.9874 0.6821
v -0.010647 -1.302793 -0.008981 0.3907 0.9884 0.6853
v -0.010647 -1.302793 -0.008981 0.3907 0.9884 0.6853
v -0.397275 -1.252677 -0.008981 0.3428 0.9791 0.6572
v -0.397275 -1.252677 -0.008981 0.3428 0.9791 0.6572
v -0.397275 -1.252677 -0.008981 0.3428 0.9791 0.6572
v 0.039853 -1.252677 -0.008981 0.3619 0.9828 0.6685
v 0.039853 -1.252677 -0.008981 0.3619 0.9828 0.6685
v 0.039853 -1.252677 -0.008981 0.3619 0.9828 0.6685
v -0.346897 -1.251494 -0.008981 0.3845 0.9872 0.6817
v -0.346897 -1.251494 -0.008981 0.3845 0.9872 0.6817
v -0.346897 -1.251494 -0.008981 0.3845 0.9872 0.6817
v -0.010524 -1.251494 -0.008981 0.3904 0.9884 0.6851
v -0.010524 -1.251494 -0.008981 0.3904 0.9884 0.6851
v -0.010524 -1.251494 -0.008981 0.3904 0.9884 0.6851
v -0.643065 -1.395750 -0.009461 0.0171 0.4858 0.2572
v -0.643065 -1.395750 -0.009461 0.0171 0.4858 0.2572
v -0.643065 -1.395750 -0.009461 0.0171 0.4858 0.2572
v 0.285766 -1.395750 -0.009461 0.0219 0.5752 0.3031
v 0.285766 -1.395750 -0.009461 0.0219 0.5752 0.3031
v 0.285766 -1.395750 -0.009461 0.0219 0.5752 0.3031
v -0.565165 -1.391910 -0.009461 0.0372 0.8664 0.4525
v -0.565165 -1.391910 -0.009461 0.0372 0.8664 0.4525
v 0.207865 -1.391910 -0.009461 0.0565 0.9232 0.4896
v 0.207865 -1.391910 -0.009461 0.0565 0.9232 0.4896
v -0.510163 -1.383916 -0.009461 0.1442 0.9403 0.5410
v -0.510163 -1.383916 -0.009461 0.1442 0.9403 0.5410
v 0.152864 -1.383916 -0.009461 0.1839 0.9481 0.5643
v 0.152864 -1.383916 -0.009461 0.1839 0.9481 0.5643
v -0.488550 -1.375895 -0.009461 0.1915 0.9496 0.5687
v -0.488550 -1.375895 -0.009461 0.1915 0.9496 0.5687
v 0.131250 -1.375895 -0.009461 0.2282 0.9567 0.5902
v 0.131250 -1.375895 -0.009461 0.2282 0.9567 0.5902
v -0.457369 -1.347907 -0.009461 0.2531 0.9616 0.6047
v -0.457369 -1.347907 -0.009461 0.2531 0.9616 0.6047
v 0.100069 -1.347907 -0.009461 0.2846 0.9677 0.6232
v 0.100069 -1.347907 -0.009461 0.2846 0.9677 0.6232
v -0.531279 -1.289972 -0.009461 0.0950 0.9307 0.5122
v -0.531279 -1.289972 -0.009461 0.0950 0.9307 0.5122
v 0.173979 -1.289972 -0.009461 0.1372 0.9390 0.5369
v 0.173979 -1.289972 -0.009461 0.1372 0.9390 0.5369
v -0.400918 -1.281908 -0.009461 0.3397 0.9785 0.6555
v -0.400918 -1.281908 -0.009461 0.3397 0.9785 0.6555
v 0.043618 -1.281908 -0.009461 0.3595 0.9823 0.6670
v 0.043618 -1.281908 -0.009461 0.3595 0.9823 0.6670
v -0.376588 -1.221872 -0.009461 0.3617 0.9828 0.6683
v -0.376588 -1.221872 -0.009461 0.3617 0.9828 0.6683
v -0.376588 -1.221872 -0.009461 0.3617 0.9828 0.6683
v 0.019288 -1.221872 -0.009461 0.3761 0.9856 0.6767
v 0.019288 -1.221872 -0.009461 0.3761 0.9856 0.6767
v 0.019288 -1.221872 -0.009461 0.3761 0.9856 0.6767
v -0.436053 -1.199221 -0.009461 0.2808 0.9670 0.6210
v -0.436053 -1.199221 -0.009461 0.2808 0.9670 0.6210
v -0.436053 -1.199221 -0.009461 0.2808 0.9670 0.6210
v 0.078753 -1.199221 -0.009461 0.3088 0.9724 0.6373
v 0.078753 -1.199221 -0.009461 0.3088 0.9724 0.6373
v 0.078753 -1.199221 -0.009461 0.3088 0.9724 0.6373
v -0.616578 -1.305510 -0.010828 0.0240 0.6169 0.3244
v -0.616578 -1.305510 -0.010828 0.0240 0.6169 0.3244
v 0.259278 -1.305510 -0.010828 0.0287 0.7057 0.3700
v 0.259278 -1.305510 -0.010828 0.0287 0.7057 0.3700
v -0.643663 -1.304115 -0.010828 0.0170 0.4829 0.2557
v -0.643663 -1.304115 -0.010828 0.0170 0.4829 0.2557
v 0.286363 -1.304115 -0.010828 0.0217 0.5723 0.3016
v 0.286363 -1.304115 -0.010828 0.0217 0.5723 0.3016
v -0.569861 -1.289787 -0.010828 0.0360 0.8441 0.4411
v -0.569861 -1.289787 -0.010828 0.0360 0.8441 0.4411
v 0.212561 -1.289787 -0.010828 0.0448 0.9209 0.4828
v 0.212561 -1.289787 -0.010828 0.0448 0.9209 0.4828
v -0.706807 -1.287148 -0.010828 0.0009 0.1772 0.0988
v -0.706807 -1.287148 -0.010828 0.0009 0.1772 0.0988
v 0.349508 -1.287148 -0.010828 0.0054 0.2627 0.1427
v 0.349508 -1.287148 -0.010828 0.0054 0.2627 0.1427
v -0.792758 -1.255034 -0.010828 0.0043 0.0834 0.0506
v -0.792758 -1.255034 -0.010828 0.0043 0.0834 0.0506
v -0.792758 -1.255034 -0.010828 0.0043 0.0834 0.0506
v 0.435458 -1.255034 -0.010828 0.0034 0.0985 0.0584
v 0.435458 -1.255034 -0.010828 0.0034 0.0985 0.0584
v 0.435458 -1.255034 -0.010828 0.0034 0.0985 0.0584
v -0.478150 -1.244760 -0.010828 0.2104 0.9533 0.5798
v -0.478150 -1.244760 -0.010828 0.2104 0.9533 0.5798
v 0.120851 -1.244760 -0.010828 0.2456 0.9601 0.6003
v 0.120851 -1.244760 -0.010828 0.2456 0.9601 0.6003
v -0.622745 -1.192790 -0.010828 0.0215 0.5678 0.2993
v -0.622745 -1.192790 -0.010828 0.0215 0.5678 0.2993
v 0.265445 -1.192790 -0.010828 0.0261 0.6563 0.3447
v 0.265445 -1.192790 -0.010828 0.0261 0.6563 0.3447
v -0.423917 -1.191224 -0.010828 0.2984 0.9704 0.6312
v -0.423917 -1.191224 -0.010828 0.2984 0.9704 0.6312
v -0.423917 -1.191224 -0.010828 0.2984 0.9704 0.6312
v 0.066617 -1.191224 -0.010828 0.3240 0.9754 0.6463
v 0.066617 -1.191224 -0.010828 0.3240 0.9754 0.6463
v 0.066617 -1.191224 -0.010828 0.3240 0.9754 0.6463
v -0.477618 -1.139070 -0.010828 0.1872 0.9487 0.5662
v -0.477618 -1.139070 -0.010828 0.1872 0.9487 0.5662
v -0.477618 -1.139070 -0.010828 0.1872 0.9487 0.5662
v 0.120318 -1.139070 -0.010828 0.2227 0.9557 0.5870
v 0.120318 -1.139070 -0.010828 0.2227 0.9557 0.5870
v 0.120318 -1.139070 -0.010828 0.2227 0.9557 0.5870
v -0.689995 -1.174637 -0.012572 0.0039 0.2349 0.1284
v -0.689995 -1.174637 -0.012572 0.0039 0.2349 0.1284
v 0.332695 -1.174637 -0.012572 0.0085 0.3209 0.1726
v 0.332695 -1.174637 -0.012572 0.0085 0.3209 0.1726
v -0.547643 -1.172339 -0.012572 0.0399 0.9179 0.4789
v -0.547643 -1.172339 -0.012572 0.0399 0.9179 0.4789
v 0.190343 -1.172339 -0.012572 0.0826 0.9283 0.5049
v 0.190343 -1.172339 -0.012572 0.0826 0.9283 0.5049
v -0.758224 -1.166715 -0.012572 0.0028 0.1093 0.0639
v -0.758224 -1.166715 -0.012572 0.0028 0.1093 0.0639
v 0.400924 -1.166715 -0.012572 0.0019 0.1259 0.0725
v 0.400924 -1.166715 -0.012572 0.0019 0.1259 0.0725
v -0.791540 -1.148873 -0.012572 0.0044 0.0801 0.0489
v -0.791540 -1.148873 -0.012572 0.0044 0.0801 0.0489
v 0.434240 -1.148873 -0.012572 0.0036 0.0948 0.0565
v 0.434240 -1.148873 -0.012572 0.0036 0.0948 0.0565
v -0.447482 -1.137056 -0.012573 0.2442 0.9598 0.5995
v -0.447482 -1.137056 -0.012573 0.2442 0.9598 0.5995
v -0.447482 -1.137056 -0.012573 0.2442 0.9598 0.5995
v 0.090182 -1.137056 -0.012572 0.2750 0.9658 0.6175
v 0.090182 -1.137056 -0.012572 0.2750 0.9658 0.6175
v 0.090182 -1.137056 -0.012572 0.2750 0.9658 0.6175
v -0.861065 -1.089985 -0.012572 0.0070 0.0334 0.0249
v -0.861065 -1.089985 -0.012572 0.0070 0.0334 0.0249
v 0.503766 -1.089985 -0.012572 0.0065 0.0423 0.0295
v 0.503766 -1.089985 -0.012572 0.0065 0.0423 0.0295
v -0.484207 -1.039420 -0.012572 0.1267 0.9369 0.5308
v -0.484207 -1.039420 -0.012572 0.1267 0.9369 0.5308
v -0.484207 -1.039420 -0.012572 0.1267 0.9369 0.5308
v 0.126907 -1.039420 -0.012572 0.1634 0.9441 0.5522
v 0.126907 -1.039420 -0.012572 0.1634 0.9441 0.5522
v 0.126907 -1.039420 -0.012572 0.1634 0.9441 0.5522
v -0.699059 -1.020955 -0.012572 0.0007 0.1476 0.0836
v -0.699059 -1.020955 -0.012572 0.0007 0.1476 0.0836
v 0.341759 -1.020955 -0.012572 0.0012 0.1835 0.1020
v 0.341759 -1.020955 -0.012572 0.0012 0.1835 0.1020
v -0.950345 -0.998458 -0.012572 0.0080 0.0160 0.0160
v -0.950345 -0.998458 -0.012572 0.0080 0.0160 0.0160
v -0.950345 -0.998458 -0.012572 0.0080 0.0160 0.0160
v 0.593045 -0.998458 -0.012573 0.0080 0.0160 0.0160
v 0.593045 -0.998458 -0.012573 0.0080 0.0160 0.0160
v 0.593045 -0.998458 -0.012573 0.0080 0.0160 0.0160
v -0.505149 -1.040958 -0.014526 0.0825 0.9283 0.5049
v -0.505149 -1.040958 -0.014526 0.0825 0.9283 0.5049
v -0.505149 -1.040958 -0.014526 0.0825 0.9283 0.5049
v 0.147849 -1.040958 -0.014525 0.1216 0.9359 0.5277
v 0.147849 -1.040958 -0.014525 0.1216 0.9359 0.5277
v 0.147849 -1.040958 -0.014525 0.1216 0.9359 0.5277
v -0.707409 -1.018029 -0.014526 0.0012 0.1392 0.0793
v -0.707409 -1.018029 -0.014526 0.0012 0.1392 0.0793
v 0.350109 -1.018029 -0.014525 0.0002 0.1565 0.0882
v 0.350109 -1.018029 -0.014525 0.0002 0.1565 0.0882
v -0.844405 -0.979280 -0.014526 0.0070 0.0343 0.0254
v -0.844405 -0.979280 -0.014526 0.0070 0.0343 0.0254
v 0.487105 -0.979280 -0.014526 0.0065 0.0432 0.0300
v 0.487105 -0.979280 -0.014526 0.0065 0.0432 0.0300
v -0.518613 -0.958869 -0.014526 0.0359 0.8420 0.4400
v -0.518613 -0.958869 -0.014526 0.0359 0.8420 0.4400
v -0.518613 -0.958869 -0.014526 0.0359 0.8420 0.4400
v 0.161314 -0.958869 -0.014525 0.0398 0.9156 0.4777
v 0.161314 -0.958869 -0.014525 0.0398 0.9156 0.4777
v 0.161314 -0.958869 -0.014525 0.0398 0.9156 0.4777
v -0.907471 -0.952065 -0.014526 0.0080 0.0164 0.0162
v -0.907471 -0.952065 -0.014526 0.0080 0.0164 0.0162
v 0.550171 -0.952065 -0.014526 0.0079 0.0186 0.0173
v 0.550171 -0.952065 -0.014526 0.0079 0.0186 0.0173
v -0.934246 -0.925393 -0.014525 0.0080 0.0160 0.0160
v -0.934246 -0.925393 -0.014525 0.0080 0.0160 0.0160
v 0.576947 -0.925393 -0.014526 0.0080 0.0160 0.0160
v 0.576947 -0.925393 -0.014526 0.0080 0.0160 0.0160
v -0.983892 -0.848994 -0.014525 0.0080 0.0160 0.0160
v -0.983892 -0.848994 -0.014525 0.0080 0.0160 0.0160
v 0.626592 -0.848994 -0.014526 0.0080 0.0160 0.0160
v 0.626592 -0.848994 -0.014526 0.0080 0.0160 0.0160
v -0.808876 -0.829486 -0.014526 0.0069 0.0364 0.0265
v -0.808876 -0.829486 -0.014526 0.0069 0.0364 0.0265
v 0.451576 -0.829486 -0.014526 0.0064 0.0451 0.0310
v 0.451576 -0.829486 -0.014526 0.0064 0.0451 0.0310
v -1.043069 -0.735653 -0.014525 0.0080 0.0160 0.0160
v -1.043069 -0.735653 -0.014525 0.0080 0.0160 0.0160
v -1.043069 -0.735653 -0.014525 0.0080 0.0160 0.0160
v 0.685769 -0.735653 -0.014526 0.0080 0.0160 0.0160
v 0.685769 -0.735653 -0.014526 0.0080 0.0160 0.0160
v 0.685769 -0.735653 -0.014526 0.0080 0.0160 0.0160
v -0.585473 -0.744912 -0.017403 0.0035 0.2260 0.1239
v -0.585473 -0.744912 -0.017403 0.0035 0.2260 0.1239
v 0.228173 -0.744912 -0.017404 0.0070 0.2937 0.1586
v 0.228173 -0.744912 -0.017404 0.0070 0.2937 0.1586
v 0.160138 -0.963398 -0.018097 0.0435 0.9207 0.4821
v 0.160138 -0.963398 -0.018097 0.0435 0.9207 0.4821
v 0.160138 -0.963398 -0.018097 0.0435 0.9207 0.4821
v 0.135063 -0.877077 -0.018097 0.0383 0.8872 0.4632
v 0.135063 -0.877077 -0.018097 0.0383 0.8872 0.4632
v 0.135063 -0.877077 -0.018097 0.0383 0.8872 0.4632
v -0.717738 -0.860386 -0.018097 0.0034 0.0992 0.0588
v -0.717738 -0.860386 -0.018097 0.0034 0.0992 0.0588
v 0.360439 -0.860386 -0.018097 0.0026 0.1138 0.0663
v 0.360439 -0.860386 -0.018097 0.0026 0.1138 0.0663
v -0.827427 -0.792666 -0.018097 0.0075 0.0256 0.0209
v -0.827427 -0.792666 -0.018097 0.0075 0.0256 0.0209
v 0.470127 -0.792666 -0.018097 0.0071 0.0321 0.0243
v 0.470127 -0.792666 -0.018097 0.0071 0.0321 0.0243
v -0.541037 -0.788864 -0.018097 0.0165 0.4740 0.2511
v -0.541037 -0.788864 -0.018097 0.0165 0.4740 0.2511
v 0.183737 -0.788864 -0.018097 0.0202 0.5431 0.2866
v 0.183737 -0.788864 -0.018097 0.0202 0.5431 0.2866
v -0.922808 -0.682977 -0.018097 0.0080 0.0160 0.0160
v -0.922808 -0.682977 -0.018097 0.0080 0.0160 0.0160
v 0.565508 -0.682977 -0.018097 0.0080 0.0160 0.0160
v 0.565508 -0.682977 -0.018097 0.0080 0.0160 0.0160
v -0.953330 -0.619072 -0.018097 0.0080 0.0160 0.0160
v -0.953330 -0.619072 -0.018097 0.0080 0.0160 0.0160
v 0.596030 -0.619072 -0.018097 0.0080 0.0160 0.0160
v 0.596030 -0.619072 -0.018097 0.0080 0.0160 0.0160
v -0.790228 -0.591411 -0.018097 0.0078 0.0188 0.0175
v -0.790228 -0.591411 -0.018097 0.0078 0.0188 0.0175
v 0.432928 -0.591411 -0.018097 0.0076 0.0224 0.0193
v 0.432928 -0.591411 -0.018097 0.0076 0.0224 0.0193
v -0.989575 -0.510337 -0.018097 0.0080 0.0160 0.0160
v -0.989575 -0.510337 -0.018097 0.0080 0.0160 0.0160
v 0.632275 -0.510337 -0.018097 0.0080 0.0160 0.0160
v 0.632275 -0.510337 -0.018097 0.0080 0.0160 0.0160
v -0.915178 -0.479815 -0.018097 0.0080 0.0160 0.0160
v -0.915178 -0.479815 -0.018097 0.0080 0.0160 0.0160
v 0.557878 -0.479815 -0.018097 0.0080 0.0160 0.0160
v 0.557878 -0.479815 -0.018097 0.0080 0.0160 0.0160
v -1.015328 -0.381573 -0.018097 0.0080 0.0160 0.0160
v -1.015328 -0.381573 -0.018097 0.0080 0.0160 0.0160
v -1.015328 -0.381573 -0.018097 0.0080 0.0160 0.0160
v -0.517438 -0.963398 -0.018097 0.0365 0.8531 0.4457
v -0.517438 -0.963398 -0.018097 0.0365 0.8531 0.4457
v -0.517438 -0.963398 -0.018097 0.0365 0.8531 0.4457
v -0.492363 -0.877077 -0.018097 0.0347 0.8198 0.4286
v -0.492363 -0.877077 -0.018097 0.0347 0.8198 0.4286
v -0.492363 -0.877077 -0.018097 0.0347 0.8198 0.4286
v 0.658028 -0.381573 -0.018097 0.0080 0.0160 0.0160
v 0.658028 -0.381573 -0.018097 0.0080 0.0160 0.0160
v 0.658028 -0.381573 -0.018097 0.0080 0.0160 0.0160
v -0.482496 -1.049129 -0.035206 0.1359 0.9387 0.5361
v -0.482496 -1.049129 -0.035206 0.1359 0.9387 0.5361
v 0.125196 -1.049129 -0.035206 0.1723 0.9458 0.5575
v 0.125196 -1.049129 -0.035206 0.1723 0.9458 0.5575
v -0.494418 -0.926723 -0.035206 0.0386 0.8925 0.4659
v -0.494418 -0.926723 -0.035206 0.0386 0.8925 0.4659
v 0.137119 -0.926723 -0.035206 0.0624 0.9244 0.4931
v 0.137119 -0.926723 -0.035206 0.0624 0.9244 0.4931
v -0.504240 -0.856043 -0.035206 0.0304 0.7377 0.3864
v -0.504240 -0.856043 -0.035206 0.0304 0.7377 0.3864
v 0.146940 -0.856043 -0.035206 0.0340 0.8062 0.4216
v 0.146940 -0.856043 -0.035206 0.0340 0.8062 0.4216
v -0.215101 -1.161981 -0.038447 0.0841 0.9286 0.5058
v -0.215101 -1.161981 -0.038447 0.0841 0.9286 0.5058
v -0.215101 -1.161981 -0.038447 0.0841 0.9286 0.5058
v -0.147484 -1.161981 -0.038447 0.1635 0.9441 0.5523
v -0.147484 -1.161981 -0.038447 0.1635 0.9441 0.5523
v -0.147484 -1.161981 -0.038447 0.1635 0.9441 0.5523
v -0.210662 -0.990552 -0.038447 0.0262 0.6570 0.3451
v -0.210662 -0.990552 -0.038447 0.0262 0.6570 0.3451
v -0.103008 -0.909273 -0.038447 0.1987 0.9510 0.5729
v -0.103008 -0.909273 -0.038447 0.1987 0.9510 0.5729
v -0.103008 -0.909273 -0.038447 0.1987 0.9510 0.5729
v -0.138532 -0.649832 -0.038447 0.0030 0.1057 0.0621
v -0.206708 -0.855521 -0.038447 0.0385 0.8924 0.4658
v -0.206708 -0.855521 -0.038447 0.0385 0.8924 0.4658
v -0.206708 -0.855521 -0.038447 0.0385 0.8924 0.4658
v -0.122631 -0.773538 -0.038447 0.2528 0.9615 0.6045
v -0.223313 -0.747873 -0.038447 0.4500 1.0000 0.7200
v -0.274707 -0.637138 -0.038447 0.3009 0.9709 0.6327
v -0.269868 -0.564081 -0.038447 0.2025 0.9517 0.5751
v -0.259752 -0.342671 -0.038447 0.4358 0.9972 0.7117
v -0.173618 -0.260248 -0.038447 0.0051 0.0687 0.0431
v -0.276315 -0.021113 -0.038447 0.1680 0.9450 0.5549
v -0.173205 0.002758 -0.038447 0.0080 0.0160 0.0160
v -0.241691 0.407940 -0.038447 0.0045 0.2448 0.1335
v -0.116873 0.486450 -0.038447 0.0008 0.1752 0.0978
v -0.168108 0.730671 -0.038447 0.0047 0.0750 0.0463
v -0.107603 0.859071 -0.038447 0.0073 0.0290 0.0227
v -0.019002 0.874973 -0.038447 0.0069 0.0367 0.0266
v -0.047099 0.987472 -0.038447 0.0080 0.0160 0.0160
v 0.079251 1.112898 -0.038447 0.0080 0.0160 0.0160
v 0.079251 1.112898 -0.038447 0.0080 0.0160 0.0160
v 0.079251 1.112898 -0.038447 0.0080 0.0160 0.0160
v -0.178516 -1.507245 -0.038686 0.4500 1.0000 0.7200
v -0.178516 -1.507245 -0.038686 0.4500 1.0000 0.7200
v -0.236708 -1.434505 -0.038686 0.0030 0.1063 0.0624
v -0.120325 -1.434505 -0.038686 0.0030 0.1063 0.0624
v -0.211249 -1.403331 -0.038686 0.0363 0.8496 0.4439
v -0.145784 -1.403331 -0.038686 0.0363 0.8496 0.4439
v -0.145784 -1.403331 -0.038686 0.0363 0.8496 0.4439
v -0.286271 -1.283538 -0.039711 0.3914 0.9886 0.6857
v -0.286271 -1.283538 -0.039711 0.3914 0.9886 0.6857
v -0.071029 -1.283538 -0.039711 0.3914 0.9886 0.6857
v -0.071029 -1.283538 -0.039711 0.3914 0.9886 0.6857
v -0.388151 -1.214387 -0.039711 0.3491 0.9803 0.6610
v -0.388151 -1.214387 -0.039711 0.3491 0.9803 0.6610
v 0.030851 -1.214387 -0.039711 0.3666 0.9837 0.6712
v 0.030851 -1.214387 -0.039711 0.3666 0.9837 0.6712
v -0.434805 -1.161202 -0.039711 0.2737 0.9656 0.6168
v -0.434805 -1.161202 -0.039711 0.2737 0.9656 0.6168
v 0.077505 -1.161202 -0.039711 0.3019 0.9711 0.6333
v 0.077505 -1.161202 -0.039711 0.3019 0.9711 0.6333
v -0.178516 -1.339331 -0.061689 0.4500 1.0000 0.7200
v -0.178516 -1.339331 -0.061689 0.4500 1.0000 0.7200
v -0.241686 -1.313092 -0.061689 0.0000 0.1600 0.0900
v -0.241686 -1.313092 -0.061689 0.0000 0.1600 0.0900
v -0.115347 -1.313092 -0.061689 0.0000 0.1600 0.0900
v -0.115347 -1.313092 -0.061689 0.0000 0.1600 0.0900
v -0.178516 -1.207186 -0.061689 0.4500 1.0000 0.7200
v -0.178516 -1.207186 -0.061689 0.4500 1.0000 0.7200
v -0.260748 -1.181955 -0.061689 0.0000 0.1600 0.0900
v -0.260748 -1.181955 -0.061689 0.0000 0.1600 0.0900
v -0.096285 -1.181955 -0.061689 0.0000 0.1600 0.0900
v -0.096285 -1.181955 -0.061689 0.0000 0.1600 0.0900
vn 0.00000 -0.00000 1.00000
vn -0.00000 0.00000 -1.00000
vn 0.00000 -0.00000 1.00000
vn -0.00000 0.00000 -1.00000
vn 0.00000 -0.00000 1.00000
vn -0.00000 0.00000 -1.00000
vn 0.00000 -0.00000 1.00000
vn -0.00000 0.00000 -1.00000
vn 0.00000 -0.00000 1.00000
vn -0.00000 0.00000 -1.00000
vn 0.00000 -0.00000 1.00000
vn -0.00000 0.00000 -1.00000
vn 0.38368 0.50048 0.77609
vn -0.36273 -0.53441 0.76344
vn -0.38368 0.50048 0.77609
vn 0.36273 -0.53441 0.76344
vn 0.39682 0.41963 0.81636
vn -0.36806 -0.47372 0.80007
vn -0.39682 0.41963 0.81636
vn 0.36806 -0.47372 0.80008
vn -0.49274 -0.28927 0.82069
vn 0.47825 0.31929 0.81813
vn 0.49274 -0.28927 0.82069
vn -0.47825 0.31929 0.81813
vn 0.00000 -0.00000 1.00000
vn 0.00000 0.00000 0.00000
vn 0.00000 -0.00000 1.00000
vn 0.00000 -0.00000 1.00000
vn 0.00000 -0.00000 1.00000
vn 0.00000 0.00000 0.00000
vn 0.00000 -0.00000 1.00000
vn 0.00000 0.00000 1.00000
vn -0.68765 0.01781 0.72582
vn 0.00000 -1.00000 0.00000
vn 0.00000 0.00000 1.00000
vn 0.66411 -0.11688 0.73844
vn 0.00000 -1.00000 0.00000
vn -0.00000 0.00000 1.00000
vn -0.65979 0.01189 0.75135
vn 0.24690 0.01583 0.96891
vn 0.31328 -0.00380 0.94965
vn 0.53072 -0.00644 0.84752
vn -0.22824 -0.02732 0.97322
vn -0.30469 -0.01967 0.95225
vn -0.58094 -0.03750 0.81308
vn 0.23887 0.03262 0.97050
vn -0.24341 -0.08060 0.96657
vn 0.22671 0.02569 0.97362
vn -0.31388 -0.03508 0.94882
vn -0.32138 0.01466 0.94684
vn -0.20600 -0.00062 0.97855
vn 0.29747 0.01395 0.95463
vn -0.28116 0.00075 0.95966
vn 0.28742 -0.01862 0.95762
vn -0.21605 0.03764 0.97566
vn 0.31963 -0.05940 0.94568
vn -0.16339 0.05654 0.98494
vn -0.22404 0.10094 0.96934
vn 0.17767 -0.05854 0.98235
vn -0.19566 0.14490 0.96991
vn 0.12918 0.02865 0.99121
vn -0.17606 0.18495 0.96685
vn 0.38446 -0.14548 0.91160
vn 0.54007 0.19245 0.81932
vn -0.56669 -0.10248 0.81753
vn 0.57783 0.06600 0.81349
vn -0.58830 -0.05673 0.80665
vn 0.50515 0.26249 0.82215
vn -0.56570 -0.16754 0.80741
vn -0.54007 0.19245 0.81932
vn 0.56669 -0.10248 0.81753
vn -0.57783 0.06600 0.81349
vn 0.58830 -0.05673 0.80665
vn -0.50515 0.26249 0.82215
vn 0.56570 -0.16754 0.80741
vn 0.00000 0.00000 1.00000
vn 0.45735 -0.88929 0.00000
vn -0.96030 -0.27896 0.00000
vn 0.00000 0.00000 1.00000
vn -0.96030 -0.27896 0.00000
vn -0.87555 0.48312 0.00000
vn 0.00000 0.00000 1.00000
vn 0.48034 -0.87708 0.00000
vn 0.00000 0.00000 1.00000
vn -0.80471 0.59366 0.00000
vn 0.00000 -0.00000 1.00000
vn -0.86007 -0.51017 -0.00000
vn 0.00000 -0.00000 1.00000
vn -0.93483 -0.35508 -0.00000
vn 0.00000 -0.00000 1.00000
vn 0.65135 0.75878 0.00000
vn 0.00000 -0.00000 1.00000
vn -0.97162 -0.23656 0.00000
vn 0.00000 -0.00000 1.00000
vn 0.68906 0.72470 0.00000
vn 0.00000 -0.00000 1.00000
vn -0.98058 -0.19612 0.00000
vn 0.70028 0.71387 0.00000
vn 0.00000 -0.00000 1.00000
vn -0.45735 -0.88929 0.00000
vn 0.96030 -0.27896 0.00000
vn 0.00000 -0.00000 1.00000
vn 0.96030 -0.27896 0.00000
vn 0.87555 0.48312 0.00000
vn 0.00000 -0.00000 1.00000
vn -0.50301 -0.86428 0.00000
vn 0.00000 -0.00000 1.00000
vn -0.68510 -0.72844 -0.00000
vn 0.00000 0.00000 1.00000
vn 0.60790 -0.79401 0.00000
vn 0.00000 -0.00000 1.00000
vn 0.71838 0.69566 0.00000
vn 0.00000 0.00000 1.00000
vn 0.81042 -0.58585 0.00000
vn 0.00000 0.00000 1.00000
vn 0.91937 -0.39340 0.00000
vn 0.00000 0.00000 1.00000
vn -0.63632 0.77143 0.00000
vn 0.00000 0.00000 1.00000
vn 0.96097 -0.27667 0.00000
vn 0.00000 0.00000 1.00000
vn -0.67768 0.73536 -0.00000
vn 0.00000 0.00000 1.00000
vn 0.98058 -0.19612 0.00000
vn -0.70027 0.71387 -0.00000
vn -0.49973 -0.28278 0.81872
vn 0.34956 0.49050 0.79826
vn 0.49973 -0.28278 0.81872
vn -0.34956 0.49050 0.79826
vn 0.00000 -0.00000 1.00000
vn -0.11264 -0.99364 0.00000
vn 0.98681 0.16186 0.00000
vn 0.00000 0.00000 1.00000
vn 0.11264 -0.99364 0.00000
vn -0.98681 0.16186 0.00000
vn 0.00000 -0.00000 1.00000
vn -0.21964 -0.97558 0.00000
vn 0.00000 0.00000 1.00000
vn 0.16631 -0.98607 0.00000
vn 0.00000 -0.00000 1.00000
vn -0.35555 -0.93466 0.00000
vn 0.00000 0.00000 1.00000
vn 0.31412 -0.94938 0.00000
vn 0.00000 -0.00000 1.00000
vn 0.98681 0.16186 0.00000
vn 0.40713 0.91337 0.00000
vn 0.00000 0.00000 1.00000
vn -0.98681 0.16186 0.00000
vn -0.40713 0.91337 0.00000
vn 0.00000 -0.00000 1.00000
vn -0.61215 -0.79074 -0.00000
vn 0.00000 0.00000 1.00000
vn 0.50733 -0.86175 0.00000
vn 0.00000 -0.00000 1.00000
vn -0.79820 -0.60239 -0.00000
vn 0.00000 0.00000 1.00000
vn 0.75372 -0.65719 0.00000
vn 0.00000 -0.00000 1.00000
vn -0.87134 -0.49067 0.00000
vn 0.00000 0.00000 1.00000
vn 0.85535 -0.51805 0.00000
vn 0.00000 -0.00000 1.00000
vn 0.38372 0.92345 0.00000
vn 0.00000 0.00000 1.00000
vn -0.39546 0.91848 0.00000
vn 0.00000 -0.00000 1.00000
vn -0.88645 -0.46283 0.00000
vn 0.37192 0.92826 0.00000
vn 0.00000 0.00000 1.00000
vn 0.88645 -0.46283 0.00000
vn -0.37192 0.92826 0.00000
vn 0.00000 -0.00000 1.00000
vn -0.07165 -0.99743 0.00000
vn 0.00000 0.00000 1.00000
vn 0.02774 -0.99962 0.00000
vn 0.00000 -0.00000 1.00000
vn 0.12293 -0.99242 -0.00000
vn 0.00000 0.00000 1.00000
vn -0.22953 -0.97330 0.00000
vn 0.00000 -0.00000 1.00000
vn -0.35880 -0.93341 -0.00000
vn 0.00000 0.00000 1.00000
vn 0.23799 -0.97127 0.00000
vn 0.00000 -0.00000 1.00000
vn -0.59117 -0.80655 -0.00000
vn 0.00000 0.00000 1.00000
vn 0.53281 -0.84623 0.00000
vn 0.00000 -0.00000 1.00000
vn 0.33225 -0.94319 -0.00000
vn 0.93598 0.35206 0.00000
vn 0.00000 0.00000 1.00000
vn -0.33225 -0.94319 0.00000
vn -0.93598 0.35206 0.00000
vn 0.00000 -0.00000 1.00000
vn -0.69336 -0.72059 0.00000
vn 0.00000 0.00000 1.00000
vn 0.67016 -0.74221 0.00000
vn 0.00000 -0.00000 1.00000
vn 0.93598 0.35206 0.00000
vn 0.08563 0.99633 0.00000
vn 0.00000 0.00000 1.00000
vn -0.93598 0.35206 0.00000
vn -0.08563 0.99633 0.00000
vn 0.00000 -0.00000 1.00000
vn 0.08799 0.99612 0.00000
vn 0.00000 0.00000 1.00000
vn -0.08681 0.99623 0.00000
vn 0.00000 -0.00000 1.00000
vn -0.71584 -0.69827 0.00000
vn 0.08917 0.99602 0.00000
vn 0.00000 0.00000 1.00000
vn 0.71584 -0.69827 0.00000
vn -0.08917 0.99602 0.00000
vn 0.00000 -0.00000 1.00000
vn 0.19863 -0.98008 -0.00000
vn 0.00000 0.00000 1.00000
vn -0.07320 -0.99732 0.00000
vn 0.00000 -0.00000 1.00000
vn -0.15632 -0.98771 -0.00000
vn 0.00000 0.00000 1.00000
vn 0.15632 -0.98771 0.00000
vn 0.00000 -0.00000 1.00000
vn 0.38067 -0.92471 0.00000
vn 0.00000 0.00000 1.00000
vn -0.38067 -0.92471 0.00000
vn 0.00000 -0.00000 1.00000
vn -0.32016 -0.94736 0.00000
vn 0.00000 0.00000 1.00000
vn 0.28996 -0.95704 0.00000
vn 0.00000 -0.00000 1.00000
vn -0.35000 -0.93675 0.00000
vn -0.34380 0.93904 0.00000
vn 0.00000 0.00000 1.00000
vn 0.35000 -0.93675 0.00000
vn 0.34380 0.93904 0.00000
vn 0.00000 -0.00000 1.00000
vn 0.53414 -0.84540 -0.00000
vn 0.00000 0.00000 1.00000
vn -0.62242 -0.78268 0.00000
vn 0.00000 -0.00000 1.00000
vn -0.34491 0.93864 0.00000
vn 0.00000 0.00000 1.00000
vn 0.34602 0.93823 0.00000
vn 0.00000 -0.00000 1.00000
vn 0.70252 -0.71166 -0.00000
vn 0.69669 0.71737 0.00000
vn 0.00000 0.00000 1.00000
vn -0.70252 -0.71166 0.00000
vn -0.69669 0.71737 0.00000
vn 0.00000 -0.00000 1.00000
vn 0.69669 0.71737 0.00000
vn -0.34714 0.93781 0.00000
vn 0.00000 0.00000 1.00000
vn -0.69669 0.71737 0.00000
vn 0.34714 0.93781 0.00000
vn 0.00000 -0.00000 1.00000
vn 0.04923 -0.99879 -0.00000
vn -0.68731 0.72636 0.00000
vn 0.00000 0.00000 1.00000
vn -0.04923 -0.99879 0.00000
vn 0.68731 0.72636 -0.00000
vn 0.00000 -0.00000 1.00000
vn 0.08084 -0.99673 -0.00000
vn 0.00000 0.00000 1.00000
vn -0.11240 -0.99366 0.00000
vn 0.00000 -0.00000 1.00000
vn 0.21292 -0.97707 -0.00000
vn 0.00000 0.00000 1.00000
vn -0.28130 -0.95962 0.00000
vn 0.00000 -0.00000 1.00000
vn 0.46186 -0.88695 -0.00000
vn 0.00000 0.00000 1.00000
vn -0.57023 -0.82149 0.00000
vn 0.00000 -0.00000 1.00000
vn 0.69997 -0.71417 -0.00000
vn 0.00000 0.00000 1.00000
vn -0.73069 -0.68271 0.00000
vn 0.00000 -0.00000 1.00000
vn -0.68817 0.72554 0.00000
vn 0.00000 0.00000 1.00000
vn 0.68903 0.72473 0.00000
vn 0.00000 -0.00000 1.00000
vn 0.82506 -0.56504 -0.00000
vn 0.00000 0.00000 1.00000
vn -0.88133 -0.47251 0.00000
vn 0.00000 -0.00000 1.00000
vn 0.92679 -0.37559 -0.00000
vn 0.35597 0.93450 0.00000
vn 0.00000 0.00000 1.00000
vn -0.92679 -0.37559 0.00000
vn -0.35597 0.93450 -0.00000
vn 0.00000 -0.00000 1.00000
vn -0.68989 0.72391 0.00000
vn 0.35597 0.93450 0.00000
vn 0.00000 0.00000 1.00000
vn 0.68989 0.72391 0.00000
vn -0.35597 0.93450 -0.00000
vn 0.00000 0.00000 1.00000
vn -0.42293 -0.90616 0.00000
vn 0.91080 0.41286 -0.00000
vn 0.00000 0.00000 1.00000
vn -0.47948 -0.87755 0.00000
vn 0.00000 0.00000 1.00000
vn -0.62300 -0.78222 0.00000
vn 0.00000 0.00000 1.00000
vn -0.83833 -0.54517 0.00000
vn 0.00000 0.00000 1.00000
vn -0.93447 -0.35605 0.00000
vn 0.00000 -0.00000 1.00000
vn -0.91129 0.41178 0.00000
vn 0.00000 0.00000 1.00000
vn -0.98740 -0.15822 0.00000
vn 0.00000 -0.00000 1.00000
vn -0.91226 0.40961 0.00000
vn -0.02347 0.99972 0.00000
vn 0.00000 -0.00000 1.00000
vn 1.00000 0.00239 -0.00000
vn -0.02347 0.99972 0.00000
vn 0.00000 -0.00000 1.00000
vn 0.42293 -0.90616 -0.00000
vn -0.91080 0.41286 0.00000
vn 0.00000 -0.00000 1.00000
vn 0.45142 -0.89231 -0.00000
vn 0.00000 -0.00000 1.00000
vn 0.56628 -0.82421 0.00000
vn 0.00000 -0.00000 1.00000
vn 0.76272 -0.64672 0.00000
vn 0.00000 -0.00000 1.00000
vn 0.91791 -0.39678 0.00000
vn 0.00000 0.00000 1.00000
vn 0.91177 0.41069 0.00000
vn 0.00000 -0.00000 1.00000
vn 0.98740 -0.15822 -0.00000
vn 0.00000 0.00000 1.00000
vn 0.91226 0.40961 0.00000
vn 0.02347 0.99972 0.00000
vn 0.00000 0.00000 1.00000
vn -1.00000 0.00239 0.00000
vn 0.02347 0.99972 -0.00000
vn -0.33462 -0.51910 0.78649
vn -0.33462 -0.51910 -0.78649
vn 0.33462 -0.51910 0.78649
vn 0.33462 -0.51910 -0.78649
vn -0.39502 -0.42075 0.81666
vn -0.39502 -0.42075 -0.81666
vn 0.39502 -0.42075 0.81666
vn 0.39502 -0.42075 -0.81666
vn 0.43771 0.51561 0.73658
vn 0.43771 0.51561 -0.73658
vn -0.43771 0.51561 0.73658
vn -0.43771 0.51561 -0.73658
vn -0.49569 -0.28868 0.81912
vn -0.49569 -0.28868 -0.81912
vn 0.49569 -0.28868 0.81912
vn 0.49569 -0.28868 -0.81912
vn 0.39707 0.46395 0.79188
vn 0.39707 0.46395 -0.79188
vn -0.39707 0.46395 0.79188
vn -0.39707 0.46395 -0.79188
vn 0.47632 0.32395 0.81742
vn 0.47632 0.32395 -0.81742
vn -0.47632 0.32395 0.81742
vn -0.47632 0.32395 -0.81742
vn -0.55435 -0.14979 0.81870
vn -0.55435 -0.14978 -0.81870
vn 0.55435 -0.14978 0.81870
vn 0.55435 -0.14979 -0.81870
vn 0.56178 0.12858 0.81723
vn 0.56178 0.12858 -0.81723
vn -0.56178 0.12858 0.81723
vn -0.56178 0.12858 -0.81723
vn 0.58641 0.08130 0.80593
vn 0.58641 0.08130 -0.80593
vn -0.57715 -0.04598 0.81534
vn -0.57715 -0.04598 -0.81534
vn -0.55920 -0.15393 0.81462
vn -0.55920 -0.15393 -0.81462
vn 0.50914 0.26763 0.81801
vn 0.50914 0.26763 -0.81801
vn -0.48921 -0.29937 0.81918
vn -0.48921 -0.29937 -0.81918
vn 0.36728 0.46865 0.80341
vn 0.36728 0.46865 -0.80341
vn -0.45710 -0.34845 0.81832
vn 0.29391 0.55315 0.77952
vn 0.29391 0.55315 -0.77952
vn -0.45710 -0.34845 -0.81832
vn -0.58641 0.08130 0.80593
vn -0.58641 0.08130 -0.80593
vn 0.57715 -0.04598 0.81534
vn 0.57715 -0.04598 -0.81534
vn 0.55920 -0.15393 0.81462
vn 0.55920 -0.15393 -0.81462
vn -0.50914 0.26763 0.81801
vn -0.50914 0.26763 -0.81801
vn 0.48921 -0.29937 0.81918
vn 0.48921 -0.29937 -0.81918
vn -0.36728 0.46865 0.80341
vn -0.36728 0.46865 -0.80341
vn 0.45710 -0.34845 0.81832
vn -0.29391 0.55315 0.77952
vn -0.29391 0.55315 -0.77952
vn 0.45710 -0.34845 -0.81832
vn -0.66772 0.00841 0.74436
vn 0.00000 -1.00000 0.00000
vn -0.66772 0.00841 -0.74436
vn 0.55514 -0.12881 0.82172
vn 0.00000 -1.00000 0.00000
vn 0.55514 -0.12881 -0.82172
vn -0.61230 -0.00933 0.79057
vn -0.61230 -0.00933 -0.79057
vn 0.43285 0.00456 0.90146
vn 0.43285 0.00456 -0.90146
vn -0.50927 -0.10484 0.85420
vn -0.50926 -0.10484 -0.85420
vn 0.53341 0.09336 0.84069
vn 0.53341 0.09336 -0.84069
vn -0.42854 -0.19335 0.88259
vn -0.42854 -0.19335 -0.88260
vn -0.43789 -0.01998 0.89880
vn -0.43789 -0.01998 -0.89880
vn -0.49676 0.06935 0.86511
vn -0.49676 0.06935 -0.86511
vn 0.56459 0.05003 0.82386
vn 0.56459 0.05003 -0.82386
vn -0.50373 -0.00429 0.86385
vn -0.50373 -0.00429 -0.86385
vn 0.53883 -0.00468 0.84240
vn 0.53883 -0.00468 -0.84240
vn -0.49193 -0.00174 0.87063
vn -0.49193 -0.00174 -0.87063
vn 0.53604 -0.05976 0.84207
vn 0.53604 -0.05976 -0.84207
vn -0.44848 0.05015 0.89238
vn -0.44848 0.05015 -0.89238
vn 0.52402 -0.09943 0.84588
vn 0.52402 -0.09943 -0.84588
vn -0.39870 0.12972 0.90786
vn -0.39870 0.12972 -0.90786
vn 0.53840 -0.16948 0.82547
vn 0.53840 -0.16948 -0.82547
vn -0.35372 0.19790 0.91417
vn -0.35372 0.19790 -0.91417
vn -0.28987 0.27577 0.91648
vn -0.28987 0.27577 -0.91648
vn -0.25509 0.27939 0.92567
vn 0.60614 -0.21226 0.76651
vn 0.60614 -0.21227 -0.76651
vn -0.25509 0.27939 -0.92567
vn 0.42293 -0.90616 -0.00000
vn -0.91080 0.41286 0.00000
vn -0.00000 0.00000 -1.00000
vn -0.42293 -0.90616 0.00000
vn 0.91080 0.41286 -0.00000
vn -0.00000 -0.00000 -1.00000
vn 0.47948 -0.87755 0.00000
vn -0.00000 0.00000 -1.00000
vn -0.45142 -0.89231 0.00000
vn -0.00000 -0.00000 -1.00000
vn 0.62300 -0.78222 0.00000
vn -0.00000 0.00000 -1.00000
vn -0.56628 -0.82421 0.00000
vn -0.00000 -0.00000 -1.00000
vn 0.83833 -0.54517 0.00000
vn -0.00000 0.00000 -1.00000
vn -0.76272 -0.64672 0.00000
vn -0.00000 -0.00000 -1.00000
vn 0.93447 -0.35605 0.00000
vn -0.00000 0.00000 -1.00000
vn -0.91791 -0.39678 0.00000
vn -0.00000 -0.00000 -1.00000
vn -0.91177 0.41069 0.00000
vn -0.00000 0.00000 -1.00000
vn 0.91129 0.41178 -0.00000
vn -0.00000 -0.00000 -1.00000
vn 0.98740 -0.15822 0.00000
vn -0.00000 0.00000 -1.00000
vn -0.98740 -0.15822 0.00000
vn -0.00000 -0.00000 -1.00000
vn -0.91226 0.40961 0.00000
vn -0.02347 0.99972 0.00000
vn -0.00000 0.00000 -1.00000
vn 0.91226 0.40961 0.00000
vn 0.02347 0.99972 -0.00000
vn -0.00000 -0.00000 -1.00000
vn 1.00000 0.00239 -0.00000
vn -0.02347 0.99972 0.00000
vn -0.00000 0.00000 -1.00000
vn -1.00000 0.00239 0.00000
vn 0.02347 0.99972 -0.00000
vn -0.00000 -0.00000 -1.00000
vn 0.04923 -0.99879 -0.00000
vn -0.68731 0.72636 0.00000
vn -0.00000 0.00000 -1.00000
vn -0.04923 -0.99879 0.00000
vn 0.68731 0.72636 -0.00000
vn -0.00000 -0.00000 -1.00000
vn 0.11240 -0.99366 -0.00000
vn -0.00000 0.00000 -1.00000
vn -0.08084 -0.99673 0.00000
vn -0.00000 -0.00000 -1.00000
vn 0.28130 -0.95962 -0.00000
vn -0.00000 0.00000 -1.00000
vn -0.21292 -0.97707 0.00000
vn -0.00000 -0.00000 -1.00000
vn 0.57023 -0.82149 -0.00000
vn -0.00000 0.00000 -1.00000
vn -0.46186 -0.88695 0.00000
vn -0.00000 -0.00000 -1.00000
vn 0.73069 -0.68271 -0.00000
vn -0.00000 0.00000 -1.00000
vn -0.69997 -0.71417 0.00000
vn -0.00000 -0.00000 -1.00000
vn -0.68903 0.72473 0.00000
vn -0.00000 0.00000 -1.00000
vn 0.68817 0.72554 -0.00000
vn -0.00000 -0.00000 -1.00000
vn 0.88133 -0.47251 -0.00000
vn -0.00000 0.00000 -1.00000
vn -0.82506 -0.56504 0.00000
vn -0.00000 -0.00000 -1.00000
vn 0.92679 -0.37559 -0.00000
vn 0.35597 0.93450 0.00000
vn -0.00000 0.00000 -1.00000
vn -0.92679 -0.37559 0.00000
vn -0.35597 0.93450 -0.00000
vn -0.00000 -0.00000 -1.00000
vn -0.68989 0.72391 0.00000
vn 0.35597 0.93450 0.00000
vn -0.00000 0.00000 -1.00000
vn 0.68989 0.72391 0.00000
vn -0.35597 0.93450 0.00000
vn -0.00000 -0.00000 -1.00000
vn 0.07320 -0.99732 -0.00000
vn -0.00000 0.00000 -1.00000
vn -0.19863 -0.98008 0.00000
vn -0.00000 -0.00000 -1.00000
vn -0.15632 -0.98771 0.00000
vn -0.00000 0.00000 -1.00000
vn 0.15632 -0.98771 0.00000
vn -0.00000 -0.00000 -1.00000
vn 0.38067 -0.92471 -0.00000
vn -0.00000 0.00000 -1.00000
vn -0.38067 -0.92471 0.00000
vn -0.00000 -0.00000 -1.00000
vn -0.28996 -0.95704 0.00000
vn -0.00000 0.00000 -1.00000
vn 0.32016 -0.94736 0.00000
vn -0.00000 -0.00000 -1.00000
vn -0.35000 -0.93675 0.00000
vn -0.34380 0.93904 0.00000
vn -0.00000 0.00000 -1.00000
vn 0.35000 -0.93675 0.00000
vn 0.34380 0.93904 0.00000
vn -0.00000 -0.00000 -1.00000
vn 0.62242 -0.78268 -0.00000
vn -0.00000 0.00000 -1.00000
vn -0.53414 -0.84540 0.00000
vn -0.00000 -0.00000 -1.00000
vn -0.34602 0.93823 0.00000
vn -0.00000 0.00000 -1.00000
vn 0.34491 0.93864 0.00000
vn -0.00000 -0.00000 -1.00000
vn 0.70252 -0.71166 0.00000
vn 0.69669 0.71737 0.00000
vn -0.00000 0.00000 -1.00000
vn -0.70252 -0.71166 0.00000
vn -0.69669 0.71737 0.00000
vn -0.00000 -0.00000 -1.00000
vn 0.69669 0.71737 0.00000
vn -0.34714 0.93781 0.00000
vn -0.00000 0.00000 -1.00000
vn -0.69669 0.71737 0.00000
vn 0.34714 0.93781 0.00000
vn -0.00000 -0.00000 -1.00000
vn -0.02774 -0.99962 -0.00000
vn -0.00000 0.00000 -1.00000
vn 0.07165 -0.99743 0.00000
vn -0.00000 -0.00000 -1.00000
vn 0.22953 -0.97330 -0.00000
vn -0.00000 0.00000 -1.00000
vn -0.12293 -0.99242 0.00000
vn -0.00000 -0.00000 -1.00000
vn -0.23799 -0.97127 0.00000
vn -0.00000 0.00000 -1.00000
vn 0.35880 -0.93341 0.00000
vn -0.00000 -0.00000 -1.00000
vn -0.53281 -0.84623 -0.00000
vn -0.00000 0.00000 -1.00000
vn 0.59117 -0.80655 0.00000
vn -0.00000 -0.00000 -1.00000
vn 0.33225 -0.94319 0.00000
vn 0.93598 0.35206 0.00000
vn -0.00000 0.00000 -1.00000
vn -0.33225 -0.94319 0.00000
vn -0.93598 0.35206 0.00000
vn -0.00000 -0.00000 -1.00000
vn -0.67016 -0.74221 -0.00000
vn -0.00000 0.00000 -1.00000
vn 0.69336 -0.72059 0.00000
vn -0.00000 -0.00000 -1.00000
vn 0.93598 0.35206 0.00000
vn 0.08563 0.99633 0.00000
vn -0.00000 0.00000 -1.00000
vn -0.93598 0.35206 0.00000
vn -0.08563 0.99633 0.00000
vn -0.00000 -0.00000 -1.00000
vn 0.08681 0.99623 0.00000
vn -0.00000 0.00000 -1.00000
vn -0.08799 0.99612 0.00000
vn -0.00000 -0.00000 -1.00000
vn -0.71584 -0.69827 0.00000
vn 0.08917 0.99602 0.00000
vn -0.00000 0.00000 -1.00000
vn 0.71584 -0.69827 0.00000
vn -0.08917 0.99602 0.00000
vn -0.00000 -0.00000 -1.00000
vn -0.11264 -0.99364 0.00000
vn 0.98681 0.16186 0.00000
vn -0.00000 0.00000 -1.00000
vn 0.11264 -0.99364 0.00000
vn -0.98681 0.16186 0.00000
vn -0.00000 -0.00000 -1.00000
vn -0.16631 -0.98607 0.00000
vn -0.00000 0.00000 -1.00000
vn 0.21964 -0.97558 0.00000
vn -0.00000 -0.00000 -1.00000
vn -0.31412 -0.94938 0.00000
vn -0.00000 0.00000 -1.00000
vn 0.35555 -0.93466 0.00000
vn -0.00000 -0.00000 -1.00000
vn 0.98681 0.16186 0.00000
vn 0.40713 0.91337 0.00000
vn -0.00000 0.00000 -1.00000
vn -0.98681 0.16186 0.00000
vn -0.40713 0.91337 0.00000
vn -0.00000 -0.00000 -1.00000
vn -0.50733 -0.86175 0.00000
vn -0.00000 0.00000 -1.00000
vn 0.61215 -0.79074 0.00000
vn -0.00000 -0.00000 -1.00000
vn -0.75372 -0.65719 -0.00000
vn -0.00000 0.00000 -1.00000
vn 0.79820 -0.60239 0.00000
vn -0.00000 -0.00000 -1.00000
vn -0.85535 -0.51805 -0.00000
vn -0.00000 0.00000 -1.00000
vn 0.87134 -0.49067 0.00000
vn -0.00000 -0.00000 -1.00000
vn 0.39546 0.91848 0.00000
vn -0.00000 0.00000 -1.00000
vn -0.38372 0.92345 0.00000
vn -0.00000 -0.00000 -1.00000
vn -0.88645 -0.46283 0.00000
vn 0.37192 0.92826 0.00000
vn -0.00000 0.00000 -1.00000
vn 0.88645 -0.46283 0.00000
vn -0.37192 0.92826 0.00000
vn -0.00000 -0.00000 -1.00000
vn 0.34956 0.49050 -0.79826
vn -0.49973 -0.28278 -0.81872
vn -0.34956 0.49050 -0.79826
vn 0.49973 -0.28278 -0.81872
vn 0.45735 -0.88929 0.00000
vn -0.96030 -0.27896 0.00000
vn -0.00000 -0.00000 -1.00000
vn -0.96030 -0.27896 0.00000
vn -0.87555 0.48312 0.00000
vn -0.00000 -0.00000 -1.00000
vn -0.48034 -0.87708 0.00000
vn -0.00000 0.00000 -1.00000
vn 0.50301 -0.86428 0.00000
vn -0.00000 -0.00000 -1.00000
vn -0.60790 -0.79401 0.00000
vn -0.00000 0.00000 -1.00000
vn 0.68510 -0.72844 0.00000
vn -0.00000 -0.00000 -1.00000
vn 0.80471 0.59366 0.00000
vn -0.00000 0.00000 -1.00000
vn -0.71838 0.69566 0.00000
vn -0.00000 -0.00000 -1.00000
vn -0.81042 -0.58585 -0.00000
vn -0.00000 0.00000 -1.00000
vn 0.86007 -0.51017 0.00000
vn -0.00000 -0.00000 -1.00000
vn -0.91937 -0.39340 -0.00000
vn -0.00000 0.00000 -1.00000
vn 0.93483 -0.35508 0.00000
vn -0.00000 -0.00000 -1.00000
vn 0.63632 0.77143 0.00000
vn -0.00000 0.00000 -1.00000
vn -0.65135 0.75878 -0.00000
vn -0.00000 -0.00000 -1.00000
vn -0.96097 -0.27667 -0.00000
vn -0.00000 0.00000 -1.00000
vn 0.97162 -0.23656 0.00000
vn -0.00000 -0.00000 -1.00000
vn 0.67768 0.73536 0.00000
vn -0.00000 0.00000 -1.00000
vn -0.68906 0.72470 -0.00000
vn -0.00000 -0.00000 -1.00000
vn -0.98058 -0.19612 0.00000
vn 0.70027 0.71387 0.00000
vn -0.00000 0.00000 -1.00000
vn -0.45735 -0.88929 0.00000
vn 0.96030 -0.27896 0.00000
vn -0.00000 0.00000 -1.00000
vn 0.96030 -0.27896 0.00000
vn 0.87555 0.48312 0.00000
vn -0.00000 0.00000 -1.00000
vn 0.98058 -0.19612 0.00000
vn -0.70028 0.71387 0.00000
vn -0.00000 -0.00000 -1.00000
vn -0.56669 -0.10248 -0.81753
vn 0.54007 0.19245 -0.81932
vn 0.56669 -0.10248 -0.81753
vn -0.54007 0.19245 -0.81932
vn -0.58830 -0.05673 -0.80665
vn 0.57783 0.06600 -0.81349
vn 0.58830 -0.05673 -0.80665
vn -0.57783 0.06600 -0.81349
vn -0.56570 -0.16754 -0.80741
vn 0.50515 0.26249 -0.82215
vn 0.56570 -0.16754 -0.80741
vn -0.50515 0.26249 -0.82215
vn 0.00000 -1.00000 0.00000
vn -0.68765 0.01781 -0.72582
vn 0.00000 0.00000 -1.00000
vn 0.00000 -1.00000 0.00000
vn 0.66411 -0.11688 -0.73844
vn 0.00000 0.00000 -1.00000
vn -0.65979 0.01189 -0.75135
vn 0.00000 -0.00000 -1.00000
vn 0.53072 -0.00644 -0.84752
vn 0.31328 -0.00380 -0.94965
vn 0.24690 0.01583 -0.96891
vn 0.22671 0.02569 -0.97362
vn -0.58094 -0.03750 -0.81308
vn -0.30469 -0.01967 -0.95225
vn -0.22824 -0.02732 -0.97322
vn 0.23887 0.03262 -0.97050
vn -0.24341 -0.08060 -0.96657
vn -0.31388 -0.03508 -0.94882
vn -0.32138 0.01466 -0.94684
vn -0.20600 -0.00062 -0.97855
vn 0.29747 0.01395 -0.95463
vn -0.28116 0.00075 -0.95966
vn 0.28742 -0.01862 -0.95762
vn -0.21605 0.03764 -0.97566
vn 0.31963 -0.05940 -0.94568
vn -0.16339 0.05654 -0.98494
vn -0.22404 0.10094 -0.96934
vn 0.17767 -0.05854 -0.98235
vn -0.19566 0.14490 -0.96991
vn 0.38446 -0.14548 -0.91160
vn -0.17606 0.18495 -0.96685
vn 0.12918 0.02865 -0.99121
vn 0.00000 0.00000 0.00000
vn -0.00000 0.00000 -1.00000
vn -0.00000 0.00000 -1.00000
vn -0.00000 0.00000 -1.00000
vn -0.00000 0.00000 -1.00000
vn 0.00000 0.00000 0.00000
vn -0.00000 0.00000 -1.00000
vn -0.36273 -0.53441 -0.76344
vn 0.38368 0.50048 -0.77609
vn 0.36273 -0.53441 -0.76344
vn -0.38368 0.50048 -0.77609
vn -0.36806 -0.47372 -0.80008
vn 0.39682 0.41963 -0.81636
vn 0.36806 -0.47372 -0.80007
vn -0.39682 0.41963 -0.81636
vn 0.47825 0.31929 -0.81813
vn -0.49274 -0.28927 -0.82069
vn -0.47825 0.31929 -0.81813
vn 0.49274 -0.28927 -0.82069
vn 0.00000 -0.00000 1.00000
vn -0.00000 0.00000 -1.00000
vn 0.00000 -0.00000 1.00000
vn -0.00000 0.00000 -1.00000
vn 0.00000 -0.00000 1.00000
vn -0.00000 0.00000 -1.00000
vn 0.00000 -0.00000 1.00000
vn -0.00000 0.00000 -1.00000
vn 0.00000 -0.00000 1.00000
vn -0.00000 0.00000 -1.00000
vn 0.00000 -0.00000 1.00000
vn -0.00000 0.00000 -1.00000
f 405//405 729//729 408//408
f 729//729 405//405 726//726
f 405//405 408//408 37//37
f 405//405 37//37 34//34
f 445//445 449//449 756//756
f 756//756 754//754 445//445
f 445//445 754//754 443//443
f 752//752 443//443 754//754
f 752//752 439//439 443//443
f 439//439 752//752 751//751
f 749//749 439//439 751//751
f 439//439 749//749 435//435
f 749//749 747//747 435//435
f 435//435 747//747 431//431
f 747//747 427//427 431//431
f 427//427 747//747 745//745
f 744//744 427//427 745//745
f 427//427 744//744 423//423
f 744//744 743//743 423//423
f 423//423 743//743 421//421
f 743//743 419//419 421//421
f 419//419 743//743 742//742
f 742//742 415//415 419//419
f 415//415 742//742 739//739
f 739//739 411//411 415//415
f 411//411 738//738 732//732
f 732//732 406//406 411//411
f 406//406 732//732 727//727
f 410//410 404//404 39//39
f 39//39 404//404 33//33
f 45//45 410//410 39//39
f 414//414 410//410 44//44
f 47//47 414//414 44//44
f 418//418 414//414 47//47
f 49//49 418//418 47//47
f 420//420 418//418 49//49
f 49//49 422//422 420//420
f 422//422 49//49 50//50
f 50//50 426//426 422//422
f 426//426 50//50 51//51
f 53//53 426//426 51//51
f 430//430 426//426 53//53
f 53//53 434//434 430//430
f 434//434 53//53 55//55
f 55//55 438//438 434//434
f 438//438 55//55 57//57
f 58//58 438//438 57//57
f 442//442 438//438 58//58
f 58//58 60//60 442//442
f 60//60 444//444 442//442
f 444//444 60//60 62//62
f 446//446 444//444 62//62
f 9//9 3//3 7//7
f 7//7 3//3 1//1
f 7//7 1//1 5//5
f 11//11 7//7 5//5
f 788//788 782//782 784//784
f 784//784 782//782 778//778
f 784//784 778//778 780//780
f 786//786 784//784 780//780
f 734//734 409//409 730//730
f 409//409 735//735 413//413
f 735//735 417//417 413//413
f 417//417 735//735 741//741
f 737//737 417//417 741//741
f 425//425 417//417 737//737
f 737//737 746//746 425//425
f 429//429 425//425 746//746
f 746//746 748//748 429//429
f 433//433 429//429 748//748
f 748//748 750//750 433//433
f 437//437 433//433 750//750
f 750//750 441//441 437//437
f 441//441 750//750 753//753
f 753//753 755//755 441//441
f 448//448 441//441 755//755
f 440//440 63//63 59//59
f 440//440 447//447 63//63
f 59//59 56//56 440//440
f 440//440 56//56 436//436
f 56//56 432//432 436//436
f 56//56 54//54 432//432
f 428//428 432//432 54//54
f 54//54 52//52 428//428
f 424//424 428//428 52//52
f 52//52 48//48 424//424
f 48//48 416//416 424//424
f 416//416 48//48 46//46
f 46//46 41//41 416//416
f 41//41 412//412 416//416
f 407//407 412//412 41//41
f 42//42 36//36 407//407
f 56//56 59//59 57//57
f 59//59 58//58 57//57
f 58//58 59//59 60//60
f 60//60 59//59 61//61
f 55//55 56//56 57//57
f 56//56 55//55 54//54
f 53//53 54//54 55//55
f 53//53 52//52 54//54
f 52//52 53//53 51//51
f 51//51 48//48 52//52
f 48//48 51//51 50//50
f 49//49 48//48 50//50
f 47//47 48//48 49//49
f 48//48 47//47 46//46
f 43//43 46//46 47//47
f 46//46 43//43 40//40
f 38//38 40//40 43//43
f 40//40 38//38 35//35
f 35//35 38//38 32//32
f 733//733 731//731 728//728
f 731//731 733//733 736//736
f 736//736 733//733 740//740
f 740//740 741//741 736//736
f 741//741 740//740 742//742
f 742//742 737//737 741//741
f 743//743 737//737 742//742
f 737//737 743//743 744//744
f 745//745 737//737 744//744
f 737//737 745//745 746//746
f 747//747 746//746 745//745
f 746//746 747//747 748//748
f 749//749 748//748 747//747
f 748//748 749//749 750//750
f 750//750 749//749 751//751
f 751//751 753//753 750//750
f 753//753 751//751 752//752
f 754//754 753//753 752//752
f 753//753 754//754 757//757
f 758//758 763//763 758//758
f 764//764 761//761 759//759
f 764//764 759//759 762//762
f 759//759 760//760 762//762
f 26//26 30//30 26//26
f 29//29 27//27 25//25
f 29//29 25//25 31//31
f 25//25 28//28 31//31
f 6//6 8//8 12//12
f 2//2 8//8 6//6
f 8//8 2//2 4//4
f 8//8 4//4 10//10
f 779//779 783//783 785//785
f 777//777 783//783 779//779
f 783//783 777//777 781//781
f 783//783 781//781 787//787
f 341//341 769//769 765//765
f 769//769 341//341 345//345
f 345//345 774//774 769//769
f 774//774 345//345 353//353
f 365//365 774//774 353//353
f 365//365 714//714 774//774
f 375//375 714//714 365//365
f 375//375 718//718 714//714
f 377//377 718//718 375//375
f 377//377 722//722 718//718
f 377//377 661//661 722//722
f 661//661 377//377 381//381
f 661//661 381//381 387//387
f 340//340 18//18 344//344
f 18//18 340//340 14//14
f 344//344 18//18 21//21
f 21//21 352//352 344//344
f 21//21 364//364 352//352
f 364//364 21//21 65//65
f 65//65 374//374 364//364
f 374//374 65//65 67//67
f 67//67 376//376 374//374
f 376//376 67//67 69//69
f 376//376 69//69 126//126
f 380//380 376//376 126//126
f 380//380 126//126 384//384
f 17//17 13//13 356//356
f 13//13 348//348 356//356
f 17//17 356//356 360//360
f 360//360 22//22 17//17
f 360//360 64//64 22//22
f 64//64 360//360 368//368
f 368//368 66//66 64//64
f 66//66 368//368 372//372
f 372//372 68//68 66//66
f 68//68 372//372 378//378
f 68//68 378//378 382//382
f 127//127 68//68 382//382
f 127//127 382//382 385//385
f 770//770 361//361 357//357
f 357//357 766//766 770//770
f 349//349 766//766 357//357
f 361//361 770//770 773//773
f 715//715 361//361 773//773
f 715//715 369//369 361//361
f 719//719 369//369 715//715
f 719//719 373//373 369//369
f 723//723 373//373 719//719
f 723//723 379//379 373//373
f 723//723 383//383 379//379
f 383//383 723//723 660//660
f 383//383 660//660 386//386
f 602//602 190//190 593//593
f 190//190 602//602 199//199
f 608//608 613//613 205//205
f 210//210 205//205 613//613
f 200//200 608//608 205//205
f 608//608 200//200 603//603
f 612//612 195//195 209//209
f 195//195 612//612 598//598
f 598//598 185//185 195//195
f 185//185 598//598 588//588
f 588//588 181//181 185//185
f 181//181 588//588 584//584
f 584//584 173//173 181//181
f 173//173 584//584 576//576
f 576//576 177//177 173//173
f 177//177 576//576 580//580
f 580//580 189//189 177//177
f 189//189 580//580 592//592
f 172//172 176//176 204//204
f 204//204 180//180 172//172
f 180//180 204//204 184//184
f 184//184 204//204 194//194
f 194//194 204//204 208//208
f 176//176 198//198 204//204
f 198//198 176//176 188//188
f 609//609 581//581 577//577
f 585//585 609//609 577//577
f 609//609 585//585 589//589
f 609//609 589//589 599//599
f 599//599 614//614 609//609
f 581//581 609//609 604//604
f 581//581 604//604 594//594
f 487//487 315//315 318//318
f 315//315 487//487 481//481
f 314//314 480//480 472//472
f 314//314 472//472 310//310
f 472//472 451//451 310//310
f 310//310 451//451 321//321
f 450//450 323//323 320//320
f 323//323 450//450 456//456
f 456//456 325//325 323//323
f 325//325 456//456 460//460
f 460//460 327//327 325//325
f 327//327 460//460 464//464
f 464//464 329//329 327//327
f 329//329 464//464 468//468
f 468//468 333//333 329//329
f 333//333 468//468 476//476
f 486//486 333//333 476//476
f 486//486 317//317 333//333
f 469//469 473//473 482//482
f 469//469 482//482 477//477
f 477//477 482//482 488//488
f 473//473 469//469 465//465
f 461//461 473//473 465//465
f 473//473 461//461 457//457
f 473//473 457//457 452//452
f 328//328 332//332 313//313
f 316//316 313//313 332//332
f 309//309 328//328 313//313
f 328//328 309//309 326//326
f 309//309 324//324 326//326
f 324//324 309//309 322//322
f 322//322 309//309 319//319
f 246//246 570//570 251//251
f 570//570 246//246 565//565
f 550//550 227//227 231//231
f 227//227 550//550 546//546
f 546//546 219//219 227//227
f 219//219 546//546 538//538
f 534//534 219//219 538//538
f 219//219 534//534 215//215
f 542//542 215//215 534//534
f 215//215 542//542 223//223
f 542//542 237//237 223//223
f 237//237 542//542 556//556
f 556//556 245//245 237//237
f 245//245 556//556 564//564
f 560//560 551//551 241//241
f 232//232 241//241 551//551
f 252//252 560//560 241//241
f 560//560 252//252 571//571
f 240//240 222//222 250//250
f 250//250 222//222 236//236
f 236//236 244//244 250//250
f 222//222 240//240 214//214
f 240//240 218//218 214//214
f 218//218 240//240 226//226
f 226//226 240//240 230//230
f 539//539 547//547 561//561
f 552//552 561//561 547//547
f 561//561 535//535 539//539
f 561//561 543//543 535//535
f 572//572 543//543 561//561
f 543//543 572//572 557//557
f 557//557 572//572 566//566
f 632//632 132//132 619//619
f 132//132 632//632 145//145
f 650//650 655//655 163//163
f 168//168 163//163 655//655
f 146//146 650//650 163//163
f 650//650 146//146 633//633
f 654//654 159//159 167//167
f 159//159 654//654 646//646
f 646//646 155//155 159//159
f 155//155 646//646 642//642
f 642//642 151//151 155//155
f 151//151 642//642 638//638
f 638//638 141//141 151//151
f 141//141 638//638 628//628
f 628//628 137//137 141//141
f 137//137 628//628 624//624
f 624//624 131//131 137//137
f 131//131 624//624 618//618
f 136//136 144//144 162//162
f 144//144 136//136 130//130
f 162//162 140//140 136//136
f 162//162 150//150 140//140
f 150//150 162//162 154//154
f 154//154 162//162 158//158
f 158//158 162//162 166//166
f 629//629 651//651 625//625
f 639//639 651//651 629//629
f 651//651 639//639 643//643
f 651//651 643//643 647//647
f 651//651 647//647 656//656
f 625//625 651//651 634//634
f 625//625 634//634 620//620
f 103//103 706//706 708//708
f 706//706 103//103 101//101
f 690//690 698//698 91//91
f 95//95 91//91 698//698
f 95//95 698//698 703//703
f 98//98 95//95 703//703
f 112//112 690//690 91//91
f 690//690 112//112 678//678
f 104//104 678//678 112//112
f 678//678 104//104 709//709
f 702//702 93//93 97//97
f 93//93 702//702 694//694
f 694//694 89//89 93//93
f 89//89 694//694 686//686
f 686//686 87//87 89//89
f 87//87 686//686 682//682
f 682//682 108//108 87//87
f 108//108 682//682 674//674
f 674//674 106//106 108//108
f 106//106 674//674 670//670
f 670//670 100//100 106//106
f 100//100 670//670 705//705
f 90//90 86//86 107//107
f 90//90 107//107 105//105
f 94//94 86//86 90//90
f 105//105 111//111 90//90
f 99//99 111//111 105//105
f 111//111 99//99 102//102
f 86//86 94//94 88//88
f 88//88 94//94 92//92
f 92//92 94//94 96//96
f 671//671 679//679 707//707
f 707//707 679//679 710//710
f 679//679 671//671 691//691
f 675//675 691//691 671//671
f 691//691 675//675 683//683
f 683//683 699//699 691//691
f 699//699 683//683 687//687
f 699//699 687//687 695//695
f 695//695 704//704 699//699
f 288//288 529//529 294//294
f 529//529 288//288 523//523
f 492//492 263//263 257//257
f 263//263 492//492 498//498
f 498//498 267//267 263//263
f 267//267 498//498 502//502
f 510//510 283//283 275//275
f 283//283 510//510 518//518
f 518//518 287//287 283//283
f 287//287 518//518 522//522
f 514//514 493//493 279//279
f 258//258 279//279 493//493
f 293//293 514//514 279//279
f 514//514 293//293 528//528
f 502//502 271//271 267//267
f 271//271 502//502 506//506
f 506//506 275//275 271//271
f 275//275 506//506 510//510
f 278//278 274//274 292//292
f 292//292 274//274 282//282
f 286//286 292//292 282//282
f 274//274 278//278 270//270
f 278//278 266//266 270//270
f 266//266 278//278 262//262
f 262//262 278//278 256//256
f 515//515 511//511 507//507
f 515//515 507//507 503//503
f 515//515 503//503 499//499
f 499//499 494//494 515//515
f 511//511 515//515 530//530
f 511//511 530//530 519//519
f 519//519 530//530 524//524
f 342//342 20//20 16//16
f 20//20 342//342 346//346
f 346//346 23//23 20//20
f 23//23 346//346 354//354
f 366//366 23//23 354//354
f 366//366 71//71 23//23
f 390//390 71//71 366//366
f 390//390 73//73 71//71
f 392//392 73//73 390//390
f 392//392 75//75 73//73
f 392//392 128//128 75//75
f 128//128 392//392 396//396
f 128//128 396//396 400//400
f 343//343 771//771 347//347
f 771//771 343//343 767//767
f 347//347 771//771 776//776
f 776//776 355//355 347//347
f 776//776 367//367 355//355
f 367//367 776//776 716//716
f 716//716 391//391 367//367
f 391//391 716//716 720//720
f 720//720 393//393 391//391
f 393//393 720//720 724//724
f 393//393 724//724 663//663
f 397//397 393//393 663//663
f 397//397 663//663 403//403
f 772//772 768//768 359//359
f 768//768 351//351 359//359
f 772//772 359//359 363//363
f 363//363 775//775 772//772
f 363//363 717//717 775//775
f 717//717 363//363 371//371
f 371//371 721//721 717//717
f 721//721 371//371 389//389
f 389//389 725//725 721//721
f 725//725 389//389 395//395
f 725//725 395//395 399//399
f 662//662 725//725 399//399
f 662//662 399//399 402//402
f 19//19 362//362 358//358
f 358//358 15//15 19//19
f 350//350 15//15 358//358
f 362//362 19//19 24//24
f 70//70 362//362 24//24
f 70//70 370//370 362//362
f 72//72 370//370 70//70
f 72//72 388//388 370//370
f 74//74 388//388 72//72
f 74//74 394//394 388//388
f 74//74 398//398 394//394
f 398//398 74//74 129//129
f 398//398 129//129 401//401
f 202//202 596//596 193//193
f 596//596 202//202 605//605
f 207//207 213//213 610//610
f 616//616 610//610 213//213
f 606//606 207//207 610//610
f 207//207 606//606 203//203
f 212//212 600//600 615//615
f 600//600 212//212 197//197
f 197//197 590//590 600//600
f 590//590 197//197 187//187
f 187//187 586//586 590//590
f 586//586 187//187 183//183
f 183//183 578//578 586//586
f 578//578 183//183 175//175
f 175//175 582//582 578//578
f 582//582 175//175 179//179
f 179//179 595//595 582//582
f 595//595 179//179 192//192
f 579//579 583//583 611//611
f 611//611 587//587 579//579
f 587//587 611//611 591//591
f 591//591 611//611 601//601
f 601//601 611//611 617//617
f 583//583 607//607 611//611
f 607//607 583//583 597//597
f 206//206 178//178 174//174
f 182//182 206//206 174//174
f 206//206 182//182 186//186
f 206//206 186//186 196//196
f 196//196 211//211 206//206
f 178//178 206//206 201//201
f 178//178 201//201 191//191
f 339//339 484//484 490//490
f 484//484 339//339 336//336
f 483//483 335//335 331//331
f 483//483 331//331 474//474
f 331//331 300//300 474//474
f 474//474 300//300 454//454
f 299//299 458//458 453//453
f 458//458 299//299 302//302
f 302//302 462//462 458//458
f 462//462 302//302 304//304
f 304//304 466//466 462//462
f 466//466 304//304 306//306
f 306//306 470//470 466//466
f 470//470 306//306 308//308
f 308//308 478//478 470//470
f 478//478 308//308 312//312
f 338//338 478//478 312//312
f 338//338 489//489 478//478
f 307//307 330//330 334//334
f 307//307 334//334 311//311
f 311//311 334//334 337//337
f 330//330 307//307 305//305
f 303//303 330//330 305//305
f 330//330 303//303 301//301
f 330//330 301//301 298//298
f 471//471 479//479 485//485
f 491//491 485//485 479//479
f 475//475 471//471 485//485
f 471//471 475//475 467//467
f 475//475 463//463 467//467
f 463//463 475//475 459//459
f 459//459 475//475 455//455
f 568//568 254//254 573//573
f 254//254 568//568 249//249
f 234//234 548//548 553//553
f 548//548 234//234 229//229
f 229//229 540//540 548//548
f 540//540 229//229 221//221
f 217//217 540//540 221//221
f 540//540 217//217 536//536
f 225//225 536//536 217//217
f 536//536 225//225 544//544
f 225//225 558//558 544//544
f 558//558 225//225 239//239
f 239//239 567//567 558//558
f 567//567 239//239 248//248
f 243//243 235//235 562//562
f 554//554 562//562 235//235
f 574//574 243//243 562//562
f 243//243 574//574 255//255
f 563//563 545//545 575//575
f 575//575 545//545 559//559
f 559//559 569//569 575//575
f 545//545 563//563 537//537
f 563//563 541//541 537//537
f 541//541 563//563 549//549
f 549//549 563//563 555//555
f 220//220 228//228 242//242
f 233//233 242//242 228//228
f 242//242 216//216 220//220
f 242//242 224//224 216//216
f 253//253 224//224 242//242
f 224//224 253//253 238//238
f 238//238 253//253 247//247
f 148//148 622//622 135//135
f 622//622 148//148 635//635
f 165//165 171//171 652//652
f 658//658 652//652 171//171
f 636//636 165//165 652//652
f 165//165 636//636 149//149
f 170//170 648//648 657//657
f 648//648 170//170 161//161
f 161//161 644//644 648//648
f 644//644 161//161 157//157
f 157//157 640//640 644//644
f 640//640 157//157 153//153
f 153//153 630//630 640//640
f 630//630 153//153 143//143
f 143//143 626//626 630//630
f 626//626 143//143 139//139
f 139//139 621//621 626//626
f 621//621 139//139 134//134
f 627//627 637//637 653//653
f 637//637 627//627 623//623
f 653//653 631//631 627//627
f 653//653 641//641 631//631
f 641//641 653//653 645//645
f 645//645 653//653 649//649
f 649//649 653//653 659//659
f 142//142 164//164 138//138
f 152//152 164//164 142//142
f 164//164 152//152 156//156
f 164//164 156//156 160//160
f 164//164 160//160 169//169
f 138//138 164//164 147//147
f 138//138 147//147 133//133
f 667//667 78//78 80//80
f 78//78 667//667 665//665
f 118//118 122//122 692//692
f 700//700 692//692 122//122
f 700//700 122//122 125//125
f 712//712 700//700 125//125
f 680//680 118//118 692//692
f 118//118 680//680 85//85
f 668//668 85//85 680//680
f 85//85 668//668 81//81
f 124//124 696//696 711//711
f 696//696 124//124 120//120
f 120//120 688//688 696//696
f 688//688 120//120 116//116
f 116//116 684//684 688//688
f 684//684 116//116 114//114
f 114//114 676//676 684//684
f 676//676 114//114 110//110
f 110//110 672//672 676//676
f 672//672 110//110 83//83
f 83//83 664//664 672//672
f 664//664 83//83 77//77
f 693//693 685//685 677//677
f 693//693 677//677 673//673
f 701//701 685//685 693//693
f 673//673 681//681 693//693
f 666//666 681//681 673//673
f 681//681 666//666 669//669
f 685//685 701//701 689//689
f 689//689 701//701 697//697
f 697//697 701//701 713//713
f 82//82 84//84 76//76
f 76//76 84//84 79//79
f 84//84 82//82 117//117
f 109//109 117//117 82//82
f 117//117 109//109 113//113
f 113//113 121//121 117//117
f 121//121 113//113 115//115
f 121//121 115//115 119//119
f 119//119 123//123 121//121
f 526//526 297//297 532//532
f 297//297 526//526 291//291
f 260//260 500//500 495//495
f 500//500 260//260 265//265
f 265//265 504//504 500//500
f 504//504 265//265 269//269
f 277//277 520//520 512//512
f 520//520 277//277 285//285
f 285//285 525//525 520//520
f 525//525 285//285 290//290
f 281//281 261//261 516//516
f 496//496 516//516 261//261
f 531//531 281//281 516//516
f 281//281 531//531 296//296
f 269//269 508//508 504//504
f 508//508 269//269 273//273
f 273//273 512//512 508//508
f 512//512 273//273 277//277
f 517//517 513//513 533//533
f 533//533 513//513 521//521
f 527//527 533//533 521//521
f 513//513 517//517 509//509
f 517//517 505//505 509//509
f 505//505 517//517 501//501
f 501//501 517//517 497//497
f 280//280 276//276 272//272
f 280//280 272//272 268//268
f 280//280 268//268 264//264
f 264//264 259//259 280//280
f 276//276 280//280 295//295
f 276//276 295//295 284//284
f 284//284 295//295 289//289
