# Arch Katana over default katana - Guard_Handle
# Fleasion-ready: already in the default MeshPart's space
o Guard_Handle
v 0.006531 0.399597 0.091555 0.0019 0.0493 0.0342
v 0.006531 0.399597 0.091555 0.0019 0.1735 0.0993
v 0.006531 0.399597 0.091555 0.0019 0.1735 0.0993
v 0.006531 0.399597 0.091555 0.0019 0.1735 0.0993
v 0.006531 0.399597 0.091555 0.0019 0.1735 0.0993
v -0.098751 0.443329 0.091555 0.0017 0.0507 0.0349
v -0.098751 0.443329 0.091555 0.0017 0.1800 0.1027
v -0.098751 0.443329 0.091555 0.0017 0.1800 0.1027
v 0.111813 0.443329 0.091555 0.0017 0.0507 0.0349
v 0.111813 0.443329 0.091555 0.0017 0.1800 0.1027
v 0.111813 0.443329 0.091555 0.0017 0.1800 0.1027
v 0.006531 0.619838 0.091556 0.0007 0.2065 0.1167
v 0.006531 0.619838 0.091556 0.0007 0.0563 0.0380
v 0.006531 0.619838 0.091556 0.0007 0.0563 0.0380
v -0.130521 0.661890 0.091556 0.0004 0.0576 0.0387
v -0.130521 0.661890 0.091556 0.0004 0.2128 0.1201
v -0.130521 0.661890 0.091556 0.0004 0.2128 0.1201
v -0.130521 0.661890 0.091556 0.0004 0.2128 0.1201
v -0.130521 0.661890 0.091556 0.0004 0.2128 0.1201
v 0.143583 0.661890 0.091556 0.0004 0.0576 0.0387
v 0.143583 0.661890 0.091556 0.0004 0.2128 0.1201
v 0.143583 0.661890 0.091556 0.0004 0.0576 0.0387
v 0.143583 0.661890 0.091556 0.0004 0.2128 0.1201
v 0.143583 0.661890 0.091556 0.0004 0.2128 0.1201
v 0.143583 0.661890 0.091556 0.0004 0.2128 0.1201
v 0.044375 -0.521187 0.081486 0.0073 0.0201 0.0182
v 0.044375 -0.521187 0.081486 0.0073 0.0354 0.0263
v 0.044375 -0.521187 0.081486 0.0073 0.0201 0.0182
v 0.044375 -0.521187 0.081486 0.0073 0.0201 0.0182
v 0.006531 0.455083 0.061445 0.0016 0.0511 0.0351
v -0.056638 0.481322 0.061445 0.0015 0.0519 0.0356
v 0.069700 0.481322 0.061445 0.0015 0.0519 0.0356
v 0.006531 0.587227 0.061445 0.0009 0.2016 0.1142
v -0.075700 0.612459 0.061445 0.0007 0.0561 0.0379
v -0.075700 0.612459 0.061445 0.0007 0.2054 0.1162
v 0.088762 0.612459 0.061445 0.0007 0.0561 0.0379
v 0.088762 0.612459 0.061445 0.0007 0.2054 0.1162
v -0.127792 0.421745 0.060956 0.0018 0.0500 0.0346
v -0.127792 0.421745 0.060956 0.0018 0.0500 0.0346
v -0.127792 0.421745 0.060956 0.0018 0.0500 0.0346
v -0.127792 0.421745 0.060956 0.0018 0.0500 0.0346
v -0.127792 0.421745 0.060956 0.0018 0.1768 0.1010
v -0.127792 0.421745 0.060956 0.0018 0.1768 0.1010
v -0.127792 0.421745 0.060956 0.0018 0.1768 0.1010
v -0.127792 0.421745 0.060956 0.0018 0.1768 0.1010
v -0.127792 0.421745 0.060956 0.0018 0.1768 0.1010
v -0.127792 0.421745 0.060956 0.0018 0.1768 0.1010
v -0.127792 0.421745 0.060956 0.0018 0.1768 0.1010
v -0.127792 0.421745 0.060956 0.0018 0.1768 0.1010
v -0.127792 0.421745 0.060956 0.0018 0.1768 0.1010
v -0.127792 0.421745 0.060956 0.0018 0.1768 0.1010
v -0.127792 0.421745 0.060956 0.0018 0.0500 0.0346
v 0.006531 0.656797 0.060956 0.0005 0.0575 0.0386
v 0.006531 0.656797 0.060956 0.0005 0.0575 0.0386
v 0.006531 0.656797 0.060956 0.0005 0.0575 0.0386
v 0.006531 0.656797 0.060956 0.0005 0.2120 0.1197
v 0.006531 0.656797 0.060956 0.0005 0.2120 0.1197
v 0.006531 0.656797 0.060956 0.0005 0.2120 0.1197
v 0.006531 0.656797 0.060956 0.0005 0.2120 0.1197
v 0.006531 0.656797 0.060956 0.0005 0.2120 0.1197
v -0.168326 0.712797 0.060956 0.0001 0.0592 0.0396
v -0.168326 0.712797 0.060956 0.0001 0.2204 0.1241
v -0.168326 0.712797 0.060956 0.0001 0.2204 0.1241
v -0.168326 0.712797 0.060956 0.0001 0.2204 0.1241
v -0.168326 0.712797 0.060956 0.0001 0.2204 0.1241
v -0.168326 0.712797 0.060956 0.0001 0.2204 0.1241
v 0.181387 0.712797 0.060956 0.0001 0.0592 0.0396
v 0.181387 0.712797 0.060956 0.0001 0.2204 0.1241
v 0.181387 0.712797 0.060956 0.0001 0.2204 0.1241
v 0.181387 0.712797 0.060956 0.0001 0.2204 0.1241
v 0.181387 0.712797 0.060956 0.0001 0.2204 0.1241
v 0.181387 0.712797 0.060956 0.0001 0.2204 0.1241
v 0.006531 0.363509 0.060956 0.0022 0.1681 0.0964
v 0.140854 0.421745 0.060956 0.0018 0.0500 0.0346
v 0.140854 0.421745 0.060956 0.0018 0.0500 0.0346
v 0.140854 0.421745 0.060956 0.0018 0.0500 0.0346
v 0.140854 0.421745 0.060956 0.0018 0.0500 0.0346
v 0.140854 0.421745 0.060956 0.0018 0.0500 0.0346
v 0.140854 0.421745 0.060956 0.0018 0.1768 0.1010
v 0.140854 0.421745 0.060956 0.0018 0.1768 0.1010
v 0.140854 0.421745 0.060956 0.0018 0.1768 0.1010
v 0.140854 0.421745 0.060956 0.0018 0.1768 0.1010
v 0.140854 0.421745 0.060956 0.0018 0.1768 0.1010
v 0.140854 0.421745 0.060956 0.0018 0.1768 0.1010
v 0.140854 0.421745 0.060956 0.0018 0.0500 0.0346
v -0.029472 -0.527647 0.057548 0.0073 0.0199 0.0181
v -0.029472 -0.527647 0.057548 0.0073 0.0199 0.0181
v -0.029472 -0.527647 0.057548 0.0073 0.0199 0.0181
v -0.029472 -0.527647 0.057548 0.0073 0.0199 0.0181
v -0.029472 -0.527647 0.057548 0.0073 0.0344 0.0258
v -0.029472 -0.527647 0.057548 0.0073 0.0344 0.0258
v -0.029472 -0.527647 0.057548 0.0073 0.0344 0.0258
v -0.029472 -0.527647 0.057548 0.0073 0.0344 0.0258
v -0.029472 -0.527647 0.057548 0.0073 0.0344 0.0258
v 0.118221 -0.514726 0.057548 0.0072 0.0203 0.0184
v 0.118221 -0.514726 0.057548 0.0072 0.0203 0.0184
v 0.118221 -0.514726 0.057548 0.0072 0.0203 0.0184
v 0.118221 -0.514726 0.057548 0.0072 0.0364 0.0268
v 0.118221 -0.514726 0.057548 0.0072 0.0364 0.0268
v 0.118221 -0.514726 0.057548 0.0072 0.0364 0.0268
v -0.088333 0.368640 0.056502 0.0021 0.1688 0.0968
v -0.088333 0.368640 0.056502 0.0021 0.0483 0.0336
v -0.088333 0.368640 0.056502 0.0021 0.0483 0.0336
v -0.088333 0.368640 0.056502 0.0021 0.1688 0.0968
v 0.101395 0.368640 0.056502 0.0021 0.1688 0.0968
v 0.101395 0.368640 0.056502 0.0021 0.0483 0.0336
v 0.101395 0.368640 0.056502 0.0021 0.0483 0.0336
v 0.101395 0.368640 0.056502 0.0021 0.1688 0.0968
v -0.046830 0.419460 0.056502 0.0018 0.0499 0.0345
v -0.046830 0.419460 0.056502 0.0018 0.1764 0.1009
v -0.046830 0.419460 0.056502 0.0018 0.0499 0.0345
v -0.046830 0.419460 0.056502 0.0018 0.0499 0.0345
v -0.046830 0.419460 0.056502 0.0018 0.1764 0.1009
v -0.046830 0.419460 0.056502 0.0018 0.1764 0.1009
v -0.046830 0.419460 0.056502 0.0018 0.1764 0.1009
v 0.059892 0.419460 0.056502 0.0018 0.0499 0.0345
v 0.059892 0.419460 0.056502 0.0018 0.1764 0.1009
v 0.059892 0.419460 0.056502 0.0018 0.1764 0.1009
v 0.006531 0.250060 0.056502 0.0028 0.0446 0.0316
v 0.006531 0.250060 0.056502 0.0028 0.0446 0.0316
v 0.006531 0.250060 0.056502 0.0028 0.1510 0.0874
v 0.006531 0.250060 0.056502 0.0028 0.1510 0.0874
v 0.006531 0.250060 0.056502 0.0028 0.1510 0.0874
v 0.006531 0.250060 0.056502 0.0028 0.1510 0.0874
v 0.006531 0.250060 0.056502 0.0028 0.1510 0.0874
v 0.006531 0.250060 0.056502 0.0028 0.1510 0.0874
v 0.006531 0.250060 0.056502 0.0028 0.1510 0.0874
v 0.006531 0.250060 0.056502 0.0028 0.1510 0.0874
v 0.036531 -0.431529 0.052828 0.0067 0.0230 0.0198
v 0.034788 -0.411605 0.048003 0.0066 0.0236 0.0201
v 0.006531 0.194255 0.046147 0.0031 0.0428 0.0306
v 0.006531 0.194255 0.046147 0.0031 0.0428 0.0306
v 0.006531 0.194255 0.046147 0.0031 0.1427 0.0830
v 0.006531 0.229490 0.039222 0.0029 0.1480 0.0858
v 0.006531 0.229490 0.039222 0.0029 0.1480 0.0858
v 0.006531 0.229490 0.039222 0.0029 0.1480 0.0858
v 0.006531 0.229490 0.039222 0.0029 0.1480 0.0858
v -0.108661 0.373480 0.039222 0.0021 0.1696 0.0972
v -0.108661 0.373480 0.039222 0.0021 0.1696 0.0972
v -0.108661 0.373480 0.039222 0.0021 0.1696 0.0972
v 0.121723 0.373480 0.039222 0.0021 0.1696 0.0972
v 0.121723 0.373480 0.039222 0.0021 0.1696 0.0972
v 0.121723 0.373480 0.039222 0.0021 0.1696 0.0972
v 0.121723 0.373480 0.039222 0.0021 0.1696 0.0972
v 0.121723 0.373480 0.039222 0.0021 0.1696 0.0972
v 0.121723 0.373480 0.039222 0.0021 0.0485 0.0337
v -0.058265 0.435190 0.039222 0.0017 0.1788 0.1021
v 0.071326 0.435190 0.039222 0.0017 0.1788 0.1021
v 0.006531 0.287169 0.038442 0.0026 0.0457 0.0322
v -0.051661 0.359909 0.038442 0.0022 0.0481 0.0335
v 0.064723 0.359909 0.038442 0.0022 0.0481 0.0335
v -0.026202 0.391083 0.038442 0.0020 0.0490 0.0340
v 0.039264 0.391083 0.038442 0.0020 0.0490 0.0340
v 0.039264 0.391083 0.038442 0.0020 0.1722 0.0986
v 0.039264 0.391083 0.038442 0.0020 0.1722 0.0986
v 0.039264 0.391083 0.038442 0.0020 0.0490 0.0340
v 0.006531 0.240986 0.037687 0.0029 0.0443 0.0314
v 0.006531 0.240986 0.037687 0.0029 0.1497 0.0867
v -0.029403 -0.437298 0.037283 0.0068 0.0228 0.0197
v -0.029403 -0.437298 0.037283 0.0068 0.0480 0.0329
v 0.102465 -0.425761 0.037283 0.0067 0.0231 0.0199
v 0.102465 -0.425761 0.037283 0.0067 0.0497 0.0338
v 0.040017 -0.471377 0.036906 0.0070 0.0217 0.0191
v 0.040017 -0.471377 0.036906 0.0070 0.0429 0.0302
v 0.034788 -0.411605 0.036869 0.0066 0.0236 0.0201
v 0.022723 -0.254086 0.036869 0.0057 0.0286 0.0229
v 0.010659 -0.096567 0.036869 0.0048 0.0336 0.0256
v 0.010659 -0.096567 0.036869 0.0048 0.0991 0.0599
v 0.010659 -0.096567 0.036869 0.0048 0.0991 0.0599
v 0.010659 -0.096567 0.036869 0.0048 0.0991 0.0599
v 0.010659 -0.096567 0.036869 0.0048 0.0336 0.0256
v 0.008595 0.048844 0.036869 0.0040 0.0382 0.0281
v 0.008595 0.048844 0.036869 0.0040 0.1209 0.0715
v 0.008595 0.048844 0.036869 0.0040 0.1209 0.0715
v 0.008595 0.048844 0.036869 0.0040 0.1209 0.0715
v 0.008595 0.048844 0.036869 0.0040 0.1209 0.0715
v 0.006531 0.194255 0.036869 0.0031 0.0428 0.0306
v 0.006531 0.194255 0.036869 0.0031 0.0428 0.0306
v 0.006531 0.194255 0.036869 0.0031 0.1427 0.0830
v -0.025153 -0.416849 0.033872 0.0067 0.0234 0.0200
v -0.025153 -0.416849 0.033872 0.0067 0.0511 0.0345
v 0.094728 -0.406361 0.033872 0.0066 0.0237 0.0202
v 0.094728 -0.406361 0.033872 0.0066 0.0526 0.0354
v -0.051324 0.194255 0.032560 0.0031 0.0428 0.0306
v -0.051324 0.194255 0.032560 0.0031 0.0428 0.0306
v -0.051324 0.194255 0.032560 0.0031 0.1427 0.0830
v -0.051324 0.194255 0.032560 0.0031 0.1427 0.0830
v 0.064386 0.194255 0.032560 0.0031 0.0428 0.0306
v 0.064386 0.194255 0.032560 0.0031 0.0428 0.0306
v 0.064386 0.194255 0.032560 0.0031 0.1427 0.0830
v 0.064386 0.194255 0.032560 0.0031 0.1427 0.0830
v 0.006531 0.250743 0.027258 0.0028 0.0446 0.0316
v 0.006531 0.250743 0.027258 0.0028 0.1512 0.0875
v 0.006531 0.250743 0.027258 0.0028 0.1512 0.0875
v 0.006531 0.250743 0.027258 0.0028 0.1512 0.0875
v 0.006531 0.250743 0.027258 0.0028 0.1512 0.0875
v 0.006531 0.250743 0.027258 0.0028 0.1512 0.0875
v 0.006531 0.250743 0.027258 0.0028 0.1512 0.0875
v 0.006531 0.250743 0.027258 0.0028 0.1512 0.0875
v 0.006531 0.250743 0.027258 0.0028 0.1512 0.0875
v 0.006531 0.250743 0.027258 0.0028 0.1512 0.0875
v 0.006531 0.250743 0.027258 0.0028 0.1512 0.0875
v 0.006531 0.250743 0.027258 0.0028 0.0446 0.0316
v 0.006531 0.250743 0.027258 0.0028 0.0446 0.0316
v -0.062895 0.240986 0.026578 0.0029 0.0443 0.0314
v -0.062895 0.240986 0.026578 0.0029 0.1497 0.0867
v 0.075957 0.240986 0.026578 0.0029 0.0443 0.0314
v 0.075957 0.240986 0.026578 0.0029 0.1497 0.0867
v -0.006137 -0.475415 0.026025 0.0070 0.0216 0.0190
v -0.006137 -0.475415 0.026025 0.0070 0.0423 0.0299
v -0.006137 -0.475415 0.026025 0.0070 0.0423 0.0299
v -0.006137 -0.475415 0.026025 0.0070 0.0423 0.0299
v 0.086171 -0.467339 0.026025 0.0069 0.0218 0.0192
v 0.086171 -0.467339 0.026025 0.0069 0.0435 0.0305
v 0.086171 -0.467339 0.026025 0.0069 0.0435 0.0305
v 0.086171 -0.467339 0.026025 0.0069 0.0435 0.0305
v -0.023428 -0.257112 0.025999 0.0057 0.0285 0.0228
v -0.023428 -0.257112 0.025999 0.0057 0.0285 0.0228
v -0.023428 -0.257112 0.025999 0.0057 0.0285 0.0228
v -0.023428 -0.257112 0.025999 0.0057 0.0750 0.0472
v -0.023428 -0.257112 0.025999 0.0057 0.0750 0.0472
v -0.023428 -0.257112 0.025999 0.0057 0.0750 0.0472
v 0.068875 -0.251061 0.025999 0.0057 0.0287 0.0229
v 0.068875 -0.251061 0.025999 0.0057 0.0759 0.0477
v -0.037645 0.047835 0.025999 0.0040 0.0382 0.0281
v -0.037645 0.047835 0.025999 0.0040 0.1207 0.0714
v 0.054835 0.049852 0.025999 0.0040 0.0382 0.0281
v 0.054835 0.049852 0.025999 0.0040 0.1210 0.0715
v -0.039753 0.194255 0.025999 0.0031 0.1427 0.0830
v 0.052815 0.194255 0.025999 0.0031 0.1427 0.0830
v -0.043807 0.297827 0.019203 0.0025 0.0461 0.0324
v -0.043807 0.297827 0.019203 0.0025 0.1582 0.0912
v 0.056868 0.297827 0.019203 0.0025 0.0461 0.0324
v 0.056868 0.297827 0.019203 0.0025 0.1582 0.0912
v 0.055705 -0.650692 -0.000244 0.0080 0.0160 0.0160
v 0.055705 -0.650692 -0.000244 0.0080 0.0160 0.0160
v 0.055705 -0.650692 -0.000244 0.0080 0.0160 0.0160
v 0.055705 -0.650692 -0.000244 0.0080 0.0160 0.0160
v 0.055705 -0.650692 -0.000244 0.0080 0.0160 0.0160
v 0.055705 -0.650692 -0.000244 0.0080 0.0160 0.0160
v 0.055705 -0.650692 -0.000244 0.0080 0.0160 0.0160
v 0.055705 -0.650692 -0.000244 0.0080 0.0160 0.0160
v 0.055705 -0.650692 -0.000244 0.0080 0.0160 0.0160
v 0.055705 -0.650692 -0.000244 0.0080 0.0160 0.0160
v 0.055705 -0.650692 -0.000244 0.0080 0.0160 0.0160
v 0.055705 -0.650692 -0.000244 0.0080 0.0160 0.0160
v 0.055705 -0.650692 -0.000244 0.0080 0.0160 0.0160
v 0.055705 -0.650692 -0.000244 0.0080 0.0160 0.0160
v -0.060060 -0.530323 -0.000244 0.0073 0.0340 0.0255
v -0.060060 -0.530323 -0.000244 0.0073 0.0340 0.0255
v -0.060060 -0.530323 -0.000244 0.0073 0.0340 0.0255
v -0.060060 -0.530323 -0.000244 0.0073 0.0340 0.0255
v -0.060060 -0.530323 -0.000244 0.0073 0.0340 0.0255
v 0.148809 -0.512050 -0.000244 0.0072 0.0204 0.0184
v 0.148809 -0.512050 -0.000244 0.0072 0.0368 0.0270
v 0.148809 -0.512050 -0.000244 0.0072 0.0368 0.0270
v 0.148809 -0.512050 -0.000244 0.0072 0.0368 0.0270
v 0.148809 -0.512050 -0.000244 0.0072 0.0368 0.0270
v 0.148809 -0.512050 -0.000244 0.0072 0.0204 0.0184
v -0.025254 -0.477087 -0.000244 0.0070 0.0215 0.0190
v -0.025254 -0.477087 -0.000244 0.0070 0.0420 0.0298
v -0.025254 -0.477087 -0.000244 0.0070 0.0420 0.0298
v -0.025254 -0.477087 -0.000244 0.0070 0.0420 0.0298
v -0.025254 -0.477087 -0.000244 0.0070 0.0420 0.0298
v -0.025254 -0.477087 -0.000244 0.0070 0.0420 0.0298
v -0.025254 -0.477087 -0.000244 0.0070 0.0420 0.0298
v -0.025254 -0.477087 -0.000244 0.0070 0.0215 0.0190
v 0.105288 -0.465666 -0.000244 0.0069 0.0219 0.0192
v 0.105288 -0.465666 -0.000244 0.0069 0.0219 0.0192
v 0.105288 -0.465666 -0.000244 0.0069 0.0219 0.0192
v 0.105288 -0.465666 -0.000244 0.0069 0.0437 0.0307
v 0.105288 -0.465666 -0.000244 0.0069 0.0437 0.0307
v 0.105288 -0.465666 -0.000244 0.0069 0.0437 0.0307
v 0.105288 -0.465666 -0.000244 0.0069 0.0437 0.0307
v 0.105288 -0.465666 -0.000244 0.0069 0.0437 0.0307
v 0.105288 -0.465666 -0.000244 0.0069 0.0437 0.0307
v 0.105288 -0.465666 -0.000244 0.0069 0.0437 0.0307
v 0.105288 -0.465666 -0.000244 0.0069 0.0437 0.0307
v 0.105288 -0.465666 -0.000244 0.0069 0.0219 0.0192
v 0.105288 -0.465666 -0.000244 0.0069 0.0219 0.0192
v -0.056714 -0.439687 -0.000244 0.0068 0.0476 0.0327
v -0.056714 -0.439687 -0.000244 0.0068 0.0476 0.0327
v -0.056714 -0.439687 -0.000244 0.0068 0.0476 0.0327
v -0.056714 -0.439687 -0.000244 0.0068 0.0476 0.0327
v 0.129776 -0.423371 -0.000244 0.0067 0.0501 0.0340
v 0.129776 -0.423371 -0.000244 0.0067 0.0501 0.0340
v 0.129776 -0.423371 -0.000244 0.0067 0.0501 0.0340
v 0.129776 -0.423371 -0.000244 0.0067 0.0501 0.0340
v -0.049981 -0.419021 -0.000244 0.0067 0.0507 0.0344
v -0.030419 -0.417310 -0.000244 0.0067 0.0510 0.0345
v 0.099994 -0.405900 -0.000244 0.0066 0.0238 0.0202
v 0.099994 -0.405900 -0.000244 0.0066 0.0527 0.0354
v 0.099994 -0.405900 -0.000244 0.0066 0.0527 0.0354
v 0.099994 -0.405900 -0.000244 0.0066 0.0527 0.0354
v 0.099994 -0.405900 -0.000244 0.0066 0.0238 0.0202
v 0.119556 -0.404189 -0.000244 0.0066 0.0238 0.0203
v 0.119556 -0.404189 -0.000244 0.0066 0.0530 0.0355
v 0.119556 -0.404189 -0.000244 0.0066 0.0530 0.0355
v 0.119556 -0.404189 -0.000244 0.0066 0.0530 0.0355
v 0.119556 -0.404189 -0.000244 0.0066 0.0238 0.0203
v -0.042545 -0.258365 -0.000244 0.0057 0.0284 0.0228
v -0.042545 -0.258365 -0.000244 0.0057 0.0284 0.0228
v -0.042545 -0.258365 -0.000244 0.0057 0.0748 0.0471
v -0.042545 -0.258365 -0.000244 0.0057 0.0284 0.0228
v -0.042545 -0.258365 -0.000244 0.0057 0.0284 0.0228
v 0.087992 -0.249808 -0.000244 0.0057 0.0287 0.0229
v 0.087992 -0.249808 -0.000244 0.0057 0.0287 0.0229
v 0.087992 -0.249808 -0.000244 0.0057 0.0287 0.0229
v 0.087992 -0.249808 -0.000244 0.0057 0.0287 0.0229
v 0.087992 -0.249808 -0.000244 0.0057 0.0761 0.0478
v 0.087992 -0.249808 -0.000244 0.0057 0.0287 0.0229
v 0.087992 -0.249808 -0.000244 0.0057 0.0287 0.0229
v 0.087992 -0.249808 -0.000244 0.0057 0.0287 0.0229
v 0.087992 -0.249808 -0.000244 0.0057 0.0287 0.0229
v -0.054672 -0.099420 -0.000244 0.0048 0.0335 0.0255
v -0.054672 -0.099420 -0.000244 0.0048 0.0987 0.0597
v -0.054672 -0.099420 -0.000244 0.0048 0.0987 0.0597
v -0.054672 -0.099420 -0.000244 0.0048 0.0335 0.0255
v 0.075990 -0.093715 -0.000244 0.0048 0.0995 0.0602
v -0.056798 0.047417 -0.000244 0.0040 0.1207 0.0714
v -0.056798 0.047417 -0.000244 0.0040 0.1207 0.0714
v -0.056798 0.047417 -0.000244 0.0040 0.1207 0.0714
v 0.073988 0.050270 -0.000244 0.0040 0.0382 0.0281
v 0.073988 0.050270 -0.000244 0.0040 0.0382 0.0281
v 0.073988 0.050270 -0.000244 0.0040 0.1211 0.0716
v 0.073988 0.050270 -0.000244 0.0040 0.0382 0.0281
v 0.073988 0.050270 -0.000244 0.0040 0.0382 0.0281
v -0.075288 0.194255 -0.000244 0.0031 0.0428 0.0306
v -0.075288 0.194255 -0.000244 0.0031 0.1427 0.0830
v -0.075288 0.194255 -0.000244 0.0031 0.1427 0.0830
v -0.075288 0.194255 -0.000244 0.0031 0.1427 0.0830
v -0.075288 0.194255 -0.000244 0.0031 0.1427 0.0830
v -0.075288 0.194255 -0.000244 0.0031 0.1427 0.0830
v -0.075288 0.194255 -0.000244 0.0031 0.1427 0.0830
v -0.075288 0.194255 -0.000244 0.0031 0.1427 0.0830
v -0.075288 0.194255 -0.000244 0.0031 0.1427 0.0830
v -0.075288 0.194255 -0.000244 0.0031 0.1427 0.0830
v -0.075288 0.194255 -0.000244 0.0031 0.0428 0.0306
v -0.058925 0.194255 -0.000244 0.0031 0.1427 0.0830
v -0.058925 0.194255 -0.000244 0.0031 0.1427 0.0830
v -0.058925 0.194255 -0.000244 0.0031 0.1427 0.0830
v 0.071986 0.194255 -0.000244 0.0031 0.1427 0.0830
v 0.071986 0.194255 -0.000244 0.0031 0.1427 0.0830
v 0.071986 0.194255 -0.000244 0.0031 0.1427 0.0830
v 0.088350 0.194255 -0.000244 0.0031 0.0428 0.0306
v 0.088350 0.194255 -0.000244 0.0031 0.1427 0.0830
v 0.088350 0.194255 -0.000244 0.0031 0.1427 0.0830
v 0.088350 0.194255 -0.000244 0.0031 0.1427 0.0830
v 0.088350 0.194255 -0.000244 0.0031 0.1427 0.0830
v 0.088350 0.194255 -0.000244 0.0031 0.1427 0.0830
v 0.088350 0.194255 -0.000244 0.0031 0.1427 0.0830
v 0.088350 0.194255 -0.000244 0.0031 0.1427 0.0830
v 0.088350 0.194255 -0.000244 0.0031 0.1427 0.0830
v 0.088350 0.194255 -0.000244 0.0031 0.1427 0.0830
v 0.088350 0.194255 -0.000244 0.0031 0.0428 0.0306
v 0.006531 0.228668 -0.000244 0.0029 0.0439 0.0312
v 0.006531 0.228668 -0.000244 0.0029 0.0439 0.0312
v 0.006531 0.228668 -0.000244 0.0029 0.1478 0.0857
v 0.006531 0.228668 -0.000244 0.0029 0.1478 0.0857
v 0.006531 0.228668 -0.000244 0.0029 0.1478 0.0857
v 0.006531 0.228668 -0.000244 0.0029 0.1478 0.0857
v 0.006531 0.228668 -0.000244 0.0029 0.1478 0.0857
v 0.006531 0.228668 -0.000244 0.0029 0.1478 0.0857
v 0.006531 0.228668 -0.000244 0.0029 0.1478 0.0857
v 0.006531 0.228668 -0.000244 0.0029 0.1478 0.0857
v 0.006531 0.228668 -0.000244 0.0029 0.1478 0.0857
v 0.006531 0.228668 -0.000244 0.0029 0.1478 0.0857
v 0.006531 0.228668 -0.000244 0.0029 0.1478 0.0857
v 0.006531 0.228668 -0.000244 0.0029 0.1478 0.0857
v 0.006531 0.228668 -0.000244 0.0029 0.1478 0.0857
v 0.006531 0.228668 -0.000244 0.0029 0.0439 0.0312
v 0.006531 0.228668 -0.000244 0.0029 0.0439 0.0312
v -0.091652 0.240986 -0.000244 0.0029 0.0443 0.0314
v -0.091652 0.240986 -0.000244 0.0029 0.1497 0.0867
v -0.091652 0.240986 -0.000244 0.0029 0.1497 0.0867
v -0.091652 0.240986 -0.000244 0.0029 0.1497 0.0867
v -0.091652 0.240986 -0.000244 0.0029 0.1497 0.0867
v -0.091652 0.240986 -0.000244 0.0029 0.0443 0.0314
v 0.104714 0.240986 -0.000244 0.0029 0.0443 0.0314
v 0.104714 0.240986 -0.000244 0.0029 0.1497 0.0867
v 0.104714 0.240986 -0.000244 0.0029 0.1497 0.0867
v 0.104714 0.240986 -0.000244 0.0029 0.1497 0.0867
v 0.104714 0.240986 -0.000244 0.0029 0.1497 0.0867
v 0.104714 0.240986 -0.000244 0.0029 0.0443 0.0314
v -0.064657 0.320766 -0.000244 0.0024 0.0468 0.0328
v -0.064657 0.320766 -0.000244 0.0024 0.0468 0.0328
v -0.064657 0.320766 -0.000244 0.0024 0.0468 0.0328
v -0.064657 0.320766 -0.000244 0.0024 0.0468 0.0328
v -0.064657 0.320766 -0.000244 0.0024 0.1616 0.0930
v -0.064657 0.320766 -0.000244 0.0024 0.0468 0.0328
v -0.064657 0.320766 -0.000244 0.0024 0.0468 0.0328
v -0.064657 0.320766 -0.000244 0.0024 0.0468 0.0328
v -0.064657 0.320766 -0.000244 0.0024 0.0468 0.0328
v 0.077718 0.320766 -0.000244 0.0024 0.0468 0.0328
v 0.077718 0.320766 -0.000244 0.0024 0.0468 0.0328
v 0.077718 0.320766 -0.000244 0.0024 0.0468 0.0328
v 0.077718 0.320766 -0.000244 0.0024 0.0468 0.0328
v 0.077718 0.320766 -0.000244 0.0024 0.1616 0.0930
v 0.077718 0.320766 -0.000244 0.0024 0.1616 0.0930
v 0.077718 0.320766 -0.000244 0.0024 0.0468 0.0328
v 0.077718 0.320766 -0.000244 0.0024 0.0468 0.0328
v 0.077718 0.320766 -0.000244 0.0024 0.0468 0.0328
v 0.006531 0.332522 -0.000244 0.0023 0.0472 0.0330
v 0.006531 0.332522 -0.000244 0.0023 0.0472 0.0330
v 0.006531 0.332522 -0.000244 0.0023 0.1634 0.0940
v 0.006531 0.332522 -0.000244 0.0023 0.0472 0.0330
v 0.006531 0.332522 -0.000244 0.0023 0.0472 0.0330
v -0.152245 0.402701 -0.000244 0.0019 0.1739 0.0995
v -0.152245 0.402701 -0.000244 0.0019 0.1739 0.0995
v -0.152245 0.402701 -0.000244 0.0019 0.1739 0.0995
v 0.165306 0.402701 -0.000244 0.0019 0.1739 0.0995
v 0.165306 0.402701 -0.000244 0.0019 0.1739 0.0995
v 0.165306 0.402701 -0.000244 0.0019 0.1739 0.0995
v 0.006531 0.687784 -0.000244 0.0003 0.2167 0.1221
v -0.188132 0.736629 -0.000244 0.0000 0.2240 0.1260
v -0.188132 0.736629 -0.000244 0.0000 0.2240 0.1260
v -0.188132 0.736629 -0.000244 0.0000 0.2240 0.1260
v -0.188132 0.736629 -0.000244 0.0000 0.2240 0.1260
v -0.188132 0.736629 -0.000244 0.0000 0.2240 0.1260
v -0.188132 0.736629 -0.000244 0.0000 0.2240 0.1260
v -0.188132 0.736629 -0.000244 0.0000 0.2240 0.1260
v -0.188132 0.736629 -0.000244 0.0000 0.2240 0.1260
v 0.201194 0.736629 -0.000244 0.0000 0.2240 0.1260
v 0.201194 0.736629 -0.000244 0.0000 0.2240 0.1260
v 0.201194 0.736629 -0.000244 0.0000 0.2240 0.1260
v 0.201194 0.736629 -0.000244 0.0000 0.2240 0.1260
v 0.201194 0.736629 -0.000244 0.0000 0.2240 0.1260
v 0.201194 0.736629 -0.000244 0.0000 0.2240 0.1260
v 0.201194 0.736629 -0.000244 0.0000 0.2240 0.1260
v 0.201194 0.736629 -0.000244 0.0000 0.2240 0.1260
v -0.043807 0.297827 -0.019691 0.0025 0.0461 0.0324
v -0.043807 0.297827 -0.019691 0.0025 0.1582 0.0912
v 0.056868 0.297827 -0.019691 0.0025 0.0461 0.0324
v 0.056868 0.297827 -0.019691 0.0025 0.1582 0.0912
v 0.080895 -0.407571 -0.026487 0.0066 0.0525 0.0353
v -0.023428 -0.257112 -0.026487 0.0057 0.0285 0.0228
v -0.023428 -0.257112 -0.026487 0.0057 0.0750 0.0472
v 0.068875 -0.251061 -0.026487 0.0057 0.0287 0.0229
v 0.068875 -0.251061 -0.026487 0.0057 0.0759 0.0477
v -0.037645 0.047835 -0.026487 0.0040 0.0382 0.0281
v -0.037645 0.047835 -0.026487 0.0040 0.0382 0.0281
v -0.037645 0.047835 -0.026487 0.0040 0.1207 0.0714
v -0.037645 0.047835 -0.026487 0.0040 0.1207 0.0714
v -0.037645 0.047835 -0.026487 0.0040 0.0382 0.0281
v -0.037645 0.047835 -0.026487 0.0040 0.1207 0.0714
v -0.037645 0.047835 -0.026487 0.0040 0.0382 0.0281
v -0.037645 0.047835 -0.026487 0.0040 0.0382 0.0281
v 0.054835 0.049852 -0.026487 0.0040 0.0382 0.0281
v 0.054835 0.049852 -0.026487 0.0040 0.1210 0.0715
v -0.039753 0.194255 -0.026487 0.0031 0.1427 0.0830
v 0.052815 0.194255 -0.026487 0.0031 0.1427 0.0830
v -0.006137 -0.475415 -0.026514 0.0070 0.0423 0.0299
v -0.006137 -0.475415 -0.026514 0.0070 0.0423 0.0299
v -0.006137 -0.475415 -0.026514 0.0070 0.0216 0.0190
v -0.006137 -0.475415 -0.026514 0.0070 0.0423 0.0299
v 0.086171 -0.467339 -0.026514 0.0069 0.0435 0.0305
v 0.086171 -0.467339 -0.026514 0.0069 0.0435 0.0305
v 0.086171 -0.467339 -0.026514 0.0069 0.0218 0.0192
v 0.086171 -0.467339 -0.026514 0.0069 0.0435 0.0305
v -0.062895 0.240986 -0.027066 0.0029 0.0443 0.0314
v -0.062895 0.240986 -0.027066 0.0029 0.1497 0.0867
v 0.075957 0.240986 -0.027066 0.0029 0.0443 0.0314
v 0.075957 0.240986 -0.027066 0.0029 0.1497 0.0867
v 0.006531 0.250743 -0.027747 0.0028 0.0446 0.0316
v 0.006531 0.250743 -0.027747 0.0028 0.1512 0.0875
v -0.051324 0.194255 -0.033048 0.0031 0.1427 0.0830
v -0.051324 0.194255 -0.033048 0.0031 0.1427 0.0830
v -0.051324 0.194255 -0.033048 0.0031 0.0428 0.0306
v -0.051324 0.194255 -0.033048 0.0031 0.0428 0.0306
v 0.064386 0.194255 -0.033048 0.0031 0.1427 0.0830
v 0.064386 0.194255 -0.033048 0.0031 0.1427 0.0830
v 0.064386 0.194255 -0.033048 0.0031 0.0428 0.0306
v 0.064386 0.194255 -0.033048 0.0031 0.0428 0.0306
v -0.025153 -0.416849 -0.034360 0.0067 0.0234 0.0200
v -0.025153 -0.416849 -0.034360 0.0067 0.0511 0.0345
v 0.094728 -0.406361 -0.034360 0.0066 0.0526 0.0354
v 0.094728 -0.406361 -0.034360 0.0066 0.0237 0.0202
v 0.094728 -0.406361 -0.034360 0.0066 0.0526 0.0354
v 0.006531 0.194255 -0.037357 0.0031 0.1427 0.0830
v 0.006531 0.194255 -0.037357 0.0031 0.0428 0.0306
v 0.006531 0.194255 -0.037357 0.0031 0.0428 0.0306
v 0.034788 -0.411605 -0.037357 0.0066 0.0518 0.0350
v 0.034788 -0.411605 -0.037357 0.0066 0.0236 0.0201
v 0.022723 -0.254086 -0.037357 0.0057 0.0755 0.0474
v 0.022723 -0.254086 -0.037357 0.0057 0.0755 0.0474
v 0.022723 -0.254086 -0.037357 0.0057 0.0286 0.0229
v 0.010659 -0.096567 -0.037357 0.0048 0.0336 0.0256
v 0.010659 -0.096567 -0.037357 0.0048 0.0336 0.0256
v 0.010659 -0.096567 -0.037357 0.0048 0.0336 0.0256
v 0.008595 0.048844 -0.037357 0.0040 0.1209 0.0715
v 0.008595 0.048844 -0.037357 0.0040 0.1209 0.0715
v 0.008595 0.048844 -0.037357 0.0040 0.1209 0.0715
v 0.008595 0.048844 -0.037357 0.0040 0.1209 0.0715
v 0.008595 0.048844 -0.037357 0.0040 0.0382 0.0281
v 0.040017 -0.471377 -0.037395 0.0070 0.0217 0.0191
v 0.040017 -0.471377 -0.037395 0.0070 0.0429 0.0302
v -0.029403 -0.437298 -0.037772 0.0068 0.0228 0.0197
v -0.029403 -0.437298 -0.037772 0.0068 0.0480 0.0329
v 0.102465 -0.425761 -0.037772 0.0067 0.0231 0.0199
v 0.102465 -0.425761 -0.037772 0.0067 0.0497 0.0338
v 0.006531 0.240986 -0.038176 0.0029 0.0443 0.0314
v 0.006531 0.240986 -0.038176 0.0029 0.1497 0.0867
v 0.006531 0.287169 -0.038930 0.0026 0.0457 0.0322
v -0.051661 0.359909 -0.038930 0.0022 0.0481 0.0335
v 0.064723 0.359909 -0.038930 0.0022 0.0481 0.0335
v -0.026202 0.391083 -0.038930 0.0020 0.0490 0.0340
v 0.039264 0.391083 -0.038930 0.0020 0.0490 0.0340
v 0.006531 0.229490 -0.039710 0.0029 0.1480 0.0858
v 0.006531 0.229490 -0.039710 0.0029 0.1480 0.0858
v 0.006531 0.229490 -0.039710 0.0029 0.1480 0.0858
v 0.006531 0.229490 -0.039710 0.0029 0.1480 0.0858
v 0.006531 0.229490 -0.039710 0.0029 0.1480 0.0858
v 0.006531 0.229490 -0.039710 0.0029 0.1480 0.0858
v 0.006531 0.229490 -0.039710 0.0029 0.1480 0.0858
v 0.006531 0.229490 -0.039710 0.0029 0.1480 0.0858
v 0.006531 0.229490 -0.039710 0.0029 0.0439 0.0312
v 0.006531 0.229490 -0.039710 0.0029 0.0439 0.0312
v -0.108661 0.373480 -0.039710 0.0021 0.0485 0.0337
v -0.108661 0.373480 -0.039710 0.0021 0.1696 0.0972
v -0.108661 0.373480 -0.039710 0.0021 0.1696 0.0972
v -0.108661 0.373480 -0.039710 0.0021 0.1696 0.0972
v -0.108661 0.373480 -0.039710 0.0021 0.1696 0.0972
v -0.108661 0.373480 -0.039710 0.0021 0.1696 0.0972
v 0.121723 0.373480 -0.039710 0.0021 0.1696 0.0972
v 0.121723 0.373480 -0.039710 0.0021 0.1696 0.0972
v 0.121723 0.373480 -0.039710 0.0021 0.1696 0.0972
v -0.058265 0.435190 -0.039710 0.0017 0.1788 0.1021
v 0.071326 0.435190 -0.039710 0.0017 0.1788 0.1021
v 0.006531 0.194255 -0.046636 0.0031 0.1427 0.0830
v 0.006531 0.194255 -0.046636 0.0031 0.0428 0.0306
v 0.006531 0.194255 -0.046636 0.0031 0.0428 0.0306
v 0.034788 -0.411605 -0.048491 0.0066 0.0518 0.0350
v 0.034788 -0.411605 -0.048491 0.0066 0.0236 0.0201
v 0.034788 -0.411605 -0.048491 0.0066 0.0236 0.0201
v 0.036531 -0.431529 -0.053316 0.0067 0.0489 0.0334
v 0.036531 -0.431529 -0.053316 0.0067 0.0489 0.0334
v 0.036531 -0.431529 -0.053316 0.0067 0.0230 0.0198
v 0.006531 0.250060 -0.056990 0.0028 0.1510 0.0874
v 0.006531 0.250060 -0.056990 0.0028 0.1510 0.0874
v 0.006531 0.250060 -0.056990 0.0028 0.1510 0.0874
v 0.006531 0.250060 -0.056990 0.0028 0.1510 0.0874
v 0.006531 0.250060 -0.056990 0.0028 0.1510 0.0874
v 0.006531 0.250060 -0.056990 0.0028 0.1510 0.0874
v 0.006531 0.250060 -0.056990 0.0028 0.1510 0.0874
v 0.006531 0.250060 -0.056990 0.0028 0.1510 0.0874
v 0.006531 0.250060 -0.056990 0.0028 0.1510 0.0874
v 0.006531 0.250060 -0.056990 0.0028 0.1510 0.0874
v 0.006531 0.250060 -0.056990 0.0028 0.1510 0.0874
v 0.006531 0.250060 -0.056990 0.0028 0.1510 0.0874
v 0.006531 0.250060 -0.056990 0.0028 0.0446 0.0316
v 0.006531 0.250060 -0.056990 0.0028 0.0446 0.0316
v -0.088333 0.368640 -0.056990 0.0021 0.1688 0.0968
v -0.088333 0.368640 -0.056990 0.0021 0.0483 0.0336
v -0.088333 0.368640 -0.056990 0.0021 0.0483 0.0336
v -0.088333 0.368640 -0.056990 0.0021 0.1688 0.0968
v 0.101395 0.368640 -0.056990 0.0021 0.1688 0.0968
v 0.101395 0.368640 -0.056990 0.0021 0.1688 0.0968
v 0.101395 0.368640 -0.056990 0.0021 0.1688 0.0968
v 0.101395 0.368640 -0.056990 0.0021 0.1688 0.0968
v 0.101395 0.368640 -0.056990 0.0021 0.1688 0.0968
v 0.101395 0.368640 -0.056990 0.0021 0.0483 0.0336
v 0.101395 0.368640 -0.056990 0.0021 0.0483 0.0336
v 0.101395 0.368640 -0.056990 0.0021 0.0483 0.0336
v 0.101395 0.368640 -0.056990 0.0021 0.1688 0.0968
v 0.101395 0.368640 -0.056990 0.0021 0.0483 0.0336
v -0.046830 0.419460 -0.056990 0.0018 0.1764 0.1009
v -0.046830 0.419460 -0.056990 0.0018 0.1764 0.1009
v -0.046830 0.419460 -0.056990 0.0018 0.1764 0.1009
v -0.046830 0.419460 -0.056990 0.0018 0.1764 0.1009
v -0.046830 0.419460 -0.056990 0.0018 0.0499 0.0345
v 0.059892 0.419460 -0.056990 0.0018 0.0499 0.0345
v 0.059892 0.419460 -0.056990 0.0018 0.0499 0.0345
v 0.059892 0.419460 -0.056990 0.0018 0.1764 0.1009
v -0.029472 -0.527647 -0.058037 0.0073 0.0344 0.0258
v -0.029472 -0.527647 -0.058037 0.0073 0.0344 0.0258
v -0.029472 -0.527647 -0.058037 0.0073 0.0199 0.0181
v -0.029472 -0.527647 -0.058037 0.0073 0.0199 0.0181
v -0.029472 -0.527647 -0.058037 0.0073 0.0344 0.0258
v -0.029472 -0.527647 -0.058037 0.0073 0.0199 0.0181
v 0.118221 -0.514726 -0.058037 0.0072 0.0364 0.0268
v 0.118221 -0.514726 -0.058037 0.0072 0.0364 0.0268
v 0.118221 -0.514726 -0.058037 0.0072 0.0203 0.0184
v 0.118221 -0.514726 -0.058037 0.0072 0.0364 0.0268
v 0.118221 -0.514726 -0.058037 0.0072 0.0203 0.0184
v 0.118221 -0.514726 -0.058037 0.0072 0.0203 0.0184
v -0.168326 0.712797 -0.061444 0.0001 0.2204 0.1241
v -0.168326 0.712797 -0.061444 0.0001 0.2204 0.1241
v -0.168326 0.712797 -0.061444 0.0001 0.2204 0.1241
v -0.168326 0.712797 -0.061444 0.0001 0.2204 0.1241
v -0.168326 0.712797 -0.061444 0.0001 0.2204 0.1241
v -0.168326 0.712797 -0.061444 0.0001 0.2204 0.1241
v -0.168326 0.712797 -0.061444 0.0001 0.2204 0.1241
v -0.168326 0.712797 -0.061444 0.0001 0.2204 0.1241
v -0.168326 0.712797 -0.061444 0.0001 0.0592 0.0396
v -0.168326 0.712797 -0.061444 0.0001 0.2204 0.1241
v 0.181387 0.712797 -0.061444 0.0001 0.2204 0.1241
v 0.181387 0.712797 -0.061444 0.0001 0.2204 0.1241
v 0.181387 0.712797 -0.061444 0.0001 0.2204 0.1241
v 0.181387 0.712797 -0.061444 0.0001 0.2204 0.1241
v 0.181387 0.712797 -0.061444 0.0001 0.2204 0.1241
v 0.181387 0.712797 -0.061444 0.0001 0.2204 0.1241
v 0.181387 0.712797 -0.061444 0.0001 0.2204 0.1241
v 0.181387 0.712797 -0.061444 0.0001 0.2204 0.1241
v 0.181387 0.712797 -0.061444 0.0001 0.2204 0.1241
v 0.181387 0.712797 -0.061444 0.0001 0.0592 0.0396
v 0.181387 0.712797 -0.061444 0.0001 0.2204 0.1241
v 0.006531 0.363509 -0.061444 0.0022 0.1681 0.0964
v -0.127792 0.421745 -0.061444 0.0018 0.0500 0.0346
v -0.127792 0.421745 -0.061444 0.0018 0.1768 0.1010
v -0.127792 0.421745 -0.061444 0.0018 0.1768 0.1010
v -0.127792 0.421745 -0.061444 0.0018 0.1768 0.1010
v -0.127792 0.421745 -0.061444 0.0018 0.1768 0.1010
v -0.127792 0.421745 -0.061444 0.0018 0.1768 0.1010
v -0.127792 0.421745 -0.061444 0.0018 0.1768 0.1010
v -0.127792 0.421745 -0.061444 0.0018 0.0500 0.0346
v -0.127792 0.421745 -0.061444 0.0018 0.1768 0.1010
v -0.127792 0.421745 -0.061444 0.0018 0.0500 0.0346
v -0.127792 0.421745 -0.061444 0.0018 0.0500 0.0346
v -0.127792 0.421745 -0.061444 0.0018 0.0500 0.0346
v 0.140854 0.421745 -0.061444 0.0018 0.0500 0.0346
v 0.140854 0.421745 -0.061444 0.0018 0.1768 0.1010
v 0.140854 0.421745 -0.061444 0.0018 0.1768 0.1010
v 0.140854 0.421745 -0.061444 0.0018 0.1768 0.1010
v 0.140854 0.421745 -0.061444 0.0018 0.1768 0.1010
v 0.140854 0.421745 -0.061444 0.0018 0.1768 0.1010
v 0.140854 0.421745 -0.061444 0.0018 0.0500 0.0346
v 0.140854 0.421745 -0.061444 0.0018 0.1768 0.1010
v 0.140854 0.421745 -0.061444 0.0018 0.0500 0.0346
v 0.140854 0.421745 -0.061444 0.0018 0.0500 0.0346
v 0.006531 0.656797 -0.061444 0.0005 0.0575 0.0386
v 0.006531 0.656797 -0.061444 0.0005 0.2120 0.1197
v 0.006531 0.455083 -0.061934 0.0016 0.0511 0.0351
v -0.056638 0.481322 -0.061934 0.0015 0.0519 0.0356
v 0.069700 0.481322 -0.061934 0.0015 0.0519 0.0356
v 0.006531 0.587227 -0.061933 0.0009 0.2016 0.1142
v -0.075700 0.612459 -0.061933 0.0007 0.0561 0.0379
v -0.075700 0.612459 -0.061933 0.0007 0.2054 0.1162
v 0.088762 0.612459 -0.061933 0.0007 0.0561 0.0379
v 0.088762 0.612459 -0.061933 0.0007 0.2054 0.1162
v 0.044375 -0.521187 -0.081975 0.0073 0.0201 0.0182
v 0.044375 -0.521187 -0.081975 0.0073 0.0201 0.0182
v 0.044375 -0.521187 -0.081975 0.0073 0.0201 0.0182
v 0.044375 -0.521187 -0.081975 0.0073 0.0354 0.0263
v 0.006531 0.399597 -0.092044 0.0019 0.1735 0.0993
v 0.006531 0.399597 -0.092044 0.0019 0.1735 0.0993
v 0.006531 0.399597 -0.092044 0.0019 0.1735 0.0993
v 0.006531 0.399597 -0.092044 0.0019 0.1735 0.0993
v 0.006531 0.399597 -0.092044 0.0019 0.0493 0.0342
v -0.098751 0.443329 -0.092044 0.0017 0.1800 0.1027
v -0.098751 0.443329 -0.092044 0.0017 0.0507 0.0349
v -0.098751 0.443329 -0.092044 0.0017 0.1800 0.1027
v 0.111813 0.443329 -0.092044 0.0017 0.1800 0.1027
v 0.111813 0.443329 -0.092044 0.0017 0.0507 0.0349
v 0.111813 0.443329 -0.092044 0.0017 0.1800 0.1027
v 0.006531 0.619838 -0.092044 0.0007 0.2065 0.1167
v 0.006531 0.619838 -0.092044 0.0007 0.2065 0.1167
v 0.006531 0.619838 -0.092044 0.0007 0.2065 0.1167
v 0.006531 0.619838 -0.092044 0.0007 0.2065 0.1167
v 0.006531 0.619838 -0.092044 0.0007 0.0563 0.0380
v -0.130521 0.661890 -0.092044 0.0004 0.2128 0.1201
v -0.130521 0.661890 -0.092044 0.0004 0.0576 0.0387
v -0.130521 0.661890 -0.092044 0.0004 0.2128 0.1201
v 0.143583 0.661890 -0.092044 0.0004 0.2128 0.1201
v 0.143583 0.661890 -0.092044 0.0004 0.2128 0.1201
v 0.143583 0.661890 -0.092044 0.0004 0.0576 0.0387
v 0.143583 0.661890 -0.092044 0.0004 0.2128 0.1201
vn 0.00000 -0.02405 0.99971
vn -0.25944 -0.62458 0.73661
vn 0.25944 -0.62458 0.73661
vn -0.26998 -0.62271 0.73440
vn 0.26998 -0.62271 0.73440
vn 0.00770 -0.15533 0.98783
vn 0.00770 -0.15533 0.98783
vn -0.68568 -0.09967 0.72105
vn -0.00770 -0.15533 0.98783
vn -0.00770 -0.15533 0.98783
vn 0.68568 -0.09967 0.72105
vn -0.00000 -0.19786 0.98023
vn -0.19203 0.62586 0.75593
vn 0.19203 0.62586 0.75593
vn -0.12251 0.13502 0.98324
vn -0.12251 0.13502 0.98324
vn -0.20378 -0.66415 0.71929
vn 0.15586 0.81164 0.56299
vn -0.87017 -0.07200 0.48747
vn 0.13987 0.13397 0.98107
vn 0.13987 0.13397 0.98107
vn -0.53270 0.07743 0.84275
vn 0.20378 -0.66415 0.71929
vn -0.15586 0.81164 0.56299
vn 0.87017 -0.07200 0.48747
vn -0.02705 0.30913 0.95063
vn -0.02705 0.30913 0.95063
vn -0.21796 -0.53444 0.81662
vn 0.30746 -0.48847 0.81662
vn 0.00000 0.47696 0.87892
vn 0.15412 0.25787 0.95381
vn -0.15412 0.25787 0.95381
vn -0.00000 -0.67838 0.73471
vn 0.13814 -0.31790 0.93801
vn 0.13814 -0.31790 0.93801
vn -0.13814 -0.31790 0.93801
vn -0.13814 -0.31790 0.93801
vn 0.05404 -0.03088 0.99806
vn 0.21201 -0.12116 0.96973
vn 0.39935 -0.11142 0.91000
vn -0.55616 -0.26616 0.78730
vn -0.55616 -0.26616 0.78730
vn -0.36075 -0.83208 0.42130
vn -0.36920 -0.83528 0.40743
vn -0.77735 -0.61196 0.14568
vn -0.78640 -0.61772 0.00000
vn -0.99044 -0.13794 0.00000
vn 0.02821 0.99960 0.00000
vn 0.76774 0.60606 -0.20798
vn -0.94934 -0.22463 -0.21977
vn 0.13926 0.90299 -0.40648
vn -0.00000 0.41059 -0.91182
vn 0.05404 -0.03088 0.99806
vn 0.21201 -0.12116 0.96973
vn 0.01589 0.79744 0.60320
vn 0.01589 0.79744 0.60320
vn -0.42591 0.88116 -0.20530
vn 0.42591 0.88116 -0.20530
vn -0.42956 0.87779 -0.21204
vn 0.42956 0.87779 -0.21204
vn -0.46649 0.51732 0.71748
vn -0.46649 0.51732 0.71748
vn 0.27473 0.85783 0.43434
vn -0.90701 -0.12632 0.40171
vn 0.23318 0.92930 0.28642
vn -0.95741 -0.10289 0.26979
vn 0.46649 0.51732 0.71748
vn 0.46649 0.51732 0.71748
vn -0.27473 0.85783 0.43434
vn 0.90701 -0.12632 0.40171
vn -0.23318 0.92930 0.28642
vn 0.95741 -0.10289 0.26979
vn 0.00000 -0.76090 0.64887
vn 0.00613 -0.00089 0.99998
vn -0.02200 -0.12612 0.99177
vn 0.18379 0.21161 0.95992
vn -0.39935 -0.11142 0.91000
vn 0.56494 -0.38528 0.72966
vn 0.56494 -0.38528 0.72966
vn 0.78471 -0.61964 0.01647
vn -0.76774 0.60606 -0.20798
vn 0.95016 -0.22366 -0.21718
vn 0.94934 -0.22463 -0.21977
vn -0.00137 0.91201 -0.41017
vn -0.00000 0.41059 -0.91182
vn 0.03540 -0.40468 0.91377
vn 0.43638 -0.11694 0.89213
vn -0.21796 -0.53444 0.81662
vn -0.66785 0.05887 0.74196
vn -0.66785 0.05887 0.74196
vn -0.06591 0.75337 0.65428
vn -0.66604 -0.64057 0.38218
vn -0.81943 -0.35639 -0.44891
vn -0.80609 -0.05075 -0.58962
vn 0.03540 -0.40468 0.91377
vn 0.30746 -0.48847 0.81662
vn 0.59254 0.21329 0.77679
vn 0.59254 0.21329 0.77679
vn -0.06591 0.75337 0.65428
vn 0.76716 -0.51518 0.38218
vn -0.21538 0.11441 0.96980
vn 0.36394 -0.29722 0.88272
vn 0.47990 0.38392 0.78886
vn -0.62660 -0.50128 0.59673
vn 0.21538 0.11441 0.96980
vn -0.36394 -0.29722 0.88272
vn -0.47990 0.38392 0.78886
vn 0.62660 -0.50128 0.59673
vn 0.06963 0.35551 0.93207
vn 0.06963 0.35551 0.93207
vn 0.36394 -0.29722 0.88272
vn 0.00000 -0.53691 0.84364
vn 0.32432 0.94595 0.00000
vn 0.02821 0.99960 0.00000
vn -0.00137 0.91201 -0.41017
vn -0.04167 -0.10237 0.99387
vn 0.52404 0.42797 0.73636
vn 0.00000 0.73949 0.67317
vn -0.02612 -0.05868 0.99793
vn 0.47990 0.38392 0.78886
vn -0.62660 -0.50128 0.59673
vn 0.62660 -0.50128 0.59673
vn 0.63538 -0.51210 0.57796
vn 0.72592 -0.64356 0.24262
vn -0.79198 -0.57129 0.21537
vn -0.77735 -0.61196 0.14568
vn -0.76774 0.60606 -0.20798
vn 0.76774 0.60606 -0.20798
vn 0.00622 -0.07106 0.99745
vn -0.02044 0.23362 0.97211
vn -0.22517 0.17356 0.95874
vn 0.22517 0.17356 0.95874
vn -0.00000 -0.88543 0.46478
vn -0.62660 -0.50128 0.59673
vn 0.62660 -0.50128 0.59673
vn -0.78080 -0.62464 0.01302
vn 0.78080 -0.62464 0.01302
vn -0.52404 0.42797 0.73636
vn -0.92417 -0.10522 0.36720
vn -0.77453 0.63253 0.00000
vn 0.52404 0.42797 0.73636
vn -0.13926 0.90299 0.40648
vn 0.96252 -0.17917 0.20362
vn 0.77453 0.63253 0.00000
vn 0.13926 0.90299 -0.40648
vn -0.00000 0.41059 -0.91182
vn -0.35881 0.83234 0.42245
vn 0.43375 0.76824 0.47081
vn 0.00000 0.43760 0.89917
vn 0.45017 0.04625 0.89175
vn -0.45017 0.04625 0.89175
vn 0.12398 -0.46706 0.87549
vn -0.14061 -0.82413 0.54867
vn -0.00000 -0.95597 -0.29346
vn -0.70225 0.00762 -0.71189
vn 0.46952 -0.22404 -0.85403
vn 0.00000 0.35217 0.93594
vn 0.00000 0.35217 0.93594
vn -0.53335 -0.13289 0.83539
vn -0.53335 -0.13289 0.83539
vn 0.54833 -0.03825 0.83539
vn 0.54833 -0.03825 0.83539
vn -0.01536 0.17558 0.98434
vn -0.01536 0.17558 0.98434
vn -0.00000 -0.00000 1.00000
vn -0.00000 -0.00000 1.00000
vn -0.03704 0.14294 0.98904
vn -0.99990 -0.01419 0.00000
vn 0.99990 0.01419 0.00000
vn -0.79539 0.20744 -0.56950
vn 0.42995 0.41159 -0.80358
vn 0.00000 -0.00000 1.00000
vn -0.99990 -0.01419 0.00000
vn -0.99995 -0.01022 0.00000
vn 0.99995 0.01022 0.00000
vn 0.99990 0.01419 0.00000
vn -0.22878 -0.00325 0.97347
vn 0.22878 0.00325 0.97347
vn -0.00000 -1.00000 -0.00000
vn -0.54737 0.24719 0.79955
vn -0.54737 0.24719 0.79955
vn 0.49613 0.33848 0.79955
vn 0.49613 0.33848 0.79955
vn -0.15742 0.08694 0.98370
vn -0.22517 0.17356 0.95874
vn -0.80130 -0.12347 0.58538
vn 0.00000 -1.00000 0.00000
vn 0.15742 0.08694 0.98370
vn 0.22517 0.17356 0.95874
vn 0.80130 -0.12347 0.58538
vn 0.00000 -1.00000 0.00000
vn -0.02162 -0.42765 0.90369
vn -0.10868 0.72592 0.67914
vn 0.10868 0.72592 0.67914
vn -0.48620 -0.83291 0.26433
vn -0.81630 -0.55057 0.17473
vn 0.82380 -0.54032 0.17147
vn 0.78471 -0.61964 0.01647
vn -0.78640 -0.61772 0.00000
vn -0.99995 -0.01022 0.00000
vn 0.99995 0.01022 0.00000
vn 0.48620 0.83291 -0.26433
vn -0.16524 -0.48194 -0.86048
vn 0.03711 -0.43702 -0.89869
vn -0.45364 0.17014 0.87479
vn -0.45364 0.17014 0.87479
vn 0.45364 0.17014 0.87479
vn 0.45364 0.17014 0.87479
vn -0.57585 0.06163 0.81523
vn -0.57585 0.06163 0.81523
vn -0.65682 -0.55249 0.51318
vn -0.74529 0.55549 0.36874
vn 0.50918 0.07897 0.85703
vn 0.50918 0.07897 0.85703
vn 0.11488 0.66805 0.73519
vn 0.56647 0.68645 0.45596
vn 0.22808 0.01828 0.97347
vn 0.23488 -0.11522 0.96517
vn -0.63430 -0.01941 0.77285
vn -0.63430 -0.01941 0.77285
vn -0.79539 0.20744 -0.56950
vn -0.80609 -0.05075 -0.58962
vn 0.55103 0.04233 0.83341
vn 0.55103 0.04233 0.83341
vn -0.55259 -0.00797 0.83342
vn -0.55259 -0.00797 0.83342
vn 0.55259 0.00772 0.83342
vn 0.55259 0.00772 0.83342
vn 0.00000 -1.00000 -0.00000
vn -0.00000 -1.00000 -0.00000
vn -0.43079 0.22175 0.87478
vn -0.43079 0.22175 0.87478
vn 0.43079 0.22175 0.87478
vn 0.43079 0.22175 0.87478
vn 0.03540 -0.40468 0.91377
vn 0.43638 -0.11694 0.89213
vn -0.21796 -0.53444 0.81662
vn 0.30746 -0.48847 0.81662
vn -0.66604 -0.64057 0.38218
vn 0.76716 -0.51518 0.38218
vn -0.66604 -0.64057 -0.38218
vn 0.76716 -0.51518 -0.38218
vn -0.81943 -0.35639 -0.44891
vn 0.79634 -0.21340 -0.56595
vn -0.21796 -0.53444 -0.81662
vn 0.30746 -0.48847 -0.81662
vn 0.03540 -0.40468 -0.91377
vn 0.01259 -0.14386 -0.98952
vn -0.72582 0.47453 0.49800
vn -0.66604 -0.64057 0.38218
vn -0.99749 0.07081 0.00000
vn -0.66604 -0.64057 -0.38218
vn -0.72582 0.47453 -0.49800
vn -0.00000 -0.00000 1.00000
vn 0.67292 0.63139 0.38540
vn 0.76716 -0.51518 0.38218
vn 0.76716 -0.51518 -0.38218
vn 0.67292 0.63139 -0.38540
vn 0.00000 0.00000 -1.00000
vn -0.00000 -0.00000 1.00000
vn -0.06591 0.75337 0.65428
vn -0.65682 -0.55249 0.51318
vn -0.88618 0.44835 0.11692
vn -0.65682 -0.55249 -0.51318
vn 0.06960 -0.79554 -0.60189
vn -0.06591 0.75337 -0.65428
vn 0.00000 0.00000 -1.00000
vn 0.00000 -0.00000 1.00000
vn 0.22808 0.01828 0.97347
vn 0.43638 -0.11694 0.89213
vn -0.06591 0.75337 0.65428
vn 0.74278 -0.43004 0.51318
vn 0.79037 0.61262 0.00135
vn -0.08716 0.99619 0.00000
vn 0.74278 -0.43004 -0.51318
vn 0.79634 -0.21340 -0.56595
vn 0.06960 -0.79554 -0.60189
vn -0.06591 0.75337 -0.65428
vn 0.56421 -0.13094 -0.81519
vn 0.49196 0.03942 -0.86972
vn -0.78908 0.25712 0.55789
vn -0.65682 -0.55249 0.51318
vn -0.65682 -0.55249 -0.51318
vn -0.78908 0.25712 -0.55789
vn 0.73245 0.39023 0.55789
vn 0.74278 -0.43004 0.51318
vn 0.74278 -0.43004 -0.51318
vn 0.73245 0.39023 -0.55789
vn -0.95080 0.30981 0.00000
vn -0.99710 -0.07607 0.00000
vn 0.00000 -0.00000 1.00000
vn 0.80532 0.06192 0.58959
vn 0.56159 0.82742 -0.00000
vn 0.80532 0.06192 -0.58959
vn -0.00000 0.00000 -1.00000
vn 0.00000 -0.00000 1.00000
vn -0.43690 0.86789 0.23639
vn 0.50848 0.84923 0.14230
vn 0.73245 0.39023 -0.55789
vn 0.56421 -0.13094 -0.81519
vn -0.00000 -0.00000 1.00000
vn -0.01496 0.22822 0.97349
vn -0.99710 -0.07607 0.00000
vn 0.01496 -0.22822 -0.97349
vn 0.00000 0.00000 -1.00000
vn -0.00000 -0.00000 1.00000
vn 0.22808 0.01828 0.97347
vn -0.01496 0.22822 0.97349
vn 0.23488 -0.11522 0.96517
vn 0.98996 0.12933 0.05703
vn 0.42995 0.41159 -0.80358
vn 0.49196 0.03942 -0.86972
vn 0.01496 -0.22822 -0.97349
vn 0.00000 0.00000 -1.00000
vn 0.00000 -0.00000 1.00000
vn 0.80760 0.01170 0.58961
vn -0.99897 -0.04530 0.00000
vn -0.00000 0.00000 -1.00000
vn 0.99897 0.04531 0.00000
vn 0.80760 0.01170 0.58961
vn 0.80284 0.10110 0.58756
vn -0.99990 -0.01448 0.00000
vn -0.22624 -0.08555 0.97031
vn -0.22331 -0.14723 0.96356
vn 0.99990 0.01390 0.00000
vn 0.22331 0.14723 -0.96356
vn 0.22624 0.08555 -0.97031
vn -0.00000 -0.00000 1.00000
vn -0.66341 -0.23231 0.71128
vn 0.80284 0.10110 0.58756
vn -0.80130 -0.12347 0.58538
vn -0.36622 0.87071 0.32825
vn 0.00000 -1.00000 0.00000
vn 0.36622 -0.87071 -0.32825
vn -0.80130 -0.12347 -0.58538
vn -0.80284 -0.10110 -0.58756
vn -0.66341 -0.23231 -0.71128
vn 0.00000 0.00000 -1.00000
vn -0.80760 -0.01170 0.58961
vn -0.37255 -0.92801 0.00000
vn -0.80760 -0.01170 -0.58961
vn 0.80761 0.01123 0.58961
vn 0.37625 -0.92652 0.00000
vn 0.80761 0.01123 -0.58961
vn 0.00000 -0.00000 1.00000
vn 0.66341 -0.23231 0.71128
vn 0.80130 -0.12347 0.58538
vn 0.36622 0.87071 0.32825
vn -0.48620 -0.83291 0.26433
vn 0.00000 -1.00000 0.00000
vn 0.48620 0.83291 -0.26433
vn -0.36622 -0.87071 -0.32825
vn 0.80130 -0.12347 -0.58538
vn 0.66341 -0.23231 -0.71128
vn -0.00000 0.00000 -1.00000
vn 0.00000 -0.00000 1.00000
vn -0.22624 -0.08555 0.97031
vn -0.36622 0.87071 0.32825
vn 0.36622 0.87071 0.32825
vn 0.72592 -0.64356 0.24262
vn -0.79198 -0.57129 0.21537
vn -0.78080 -0.62464 0.01302
vn 0.78080 -0.62464 0.01302
vn 0.00000 -1.00000 -0.00000
vn -0.78260 -0.62252 0.00000
vn 0.78260 -0.62252 0.00000
vn -0.78080 -0.62464 -0.01302
vn 0.78080 -0.62464 -0.01302
vn 0.79198 -0.57129 -0.21537
vn -0.72592 -0.64356 -0.24262
vn 0.22624 0.08555 -0.97031
vn -0.00000 0.00000 -1.00000
vn -0.55223 0.18686 0.81248
vn -0.66341 -0.23231 0.71128
vn -0.64888 0.30817 0.69570
vn -0.64888 0.30817 -0.69570
vn -0.66341 -0.23231 -0.71128
vn -0.55223 0.18686 -0.81248
vn 0.55223 0.18686 0.81248
vn 0.66341 -0.23231 0.71128
vn 0.64888 0.30817 0.69570
vn 0.64888 0.30817 -0.69570
vn 0.66341 -0.23231 -0.71128
vn 0.55223 0.18686 -0.81248
vn -0.00000 -0.00000 1.00000
vn 0.02289 -0.50766 0.86125
vn -0.09321 0.56442 0.82021
vn -0.55223 0.18686 0.81248
vn 0.34838 0.93735 0.00342
vn -0.55223 0.18686 -0.81248
vn -0.09321 0.56442 -0.82021
vn 0.46952 -0.22404 -0.85403
vn 0.00000 0.00000 -1.00000
vn 0.00000 -0.00000 1.00000
vn -0.04129 -0.49886 0.86570
vn 0.09321 0.56442 0.82021
vn 0.55223 0.18686 0.81248
vn -0.40531 0.91200 0.06309
vn -0.70225 0.00762 -0.71189
vn 0.55223 0.18686 -0.81248
vn 0.09321 0.56442 -0.82021
vn -0.00000 0.00000 -1.00000
vn -0.09321 0.56442 0.82021
vn 0.09321 0.56442 0.82021
vn 0.00000 -1.00000 -0.00000
vn -0.09321 0.56442 -0.82021
vn 0.09321 0.56442 -0.82021
vn -0.36920 -0.83528 0.40743
vn -0.90272 -0.43022 -0.00000
vn -0.36920 -0.83528 -0.40743
vn 0.36920 -0.83528 0.40743
vn 0.90272 -0.43022 -0.00000
vn 0.36920 -0.83528 -0.40743
vn -0.00000 1.00000 0.00000
vn 0.15586 0.81164 0.56299
vn -0.87017 -0.07200 0.48747
vn 0.23318 0.92930 0.28642
vn -0.95741 -0.10289 0.26979
vn 0.42591 0.88116 -0.20530
vn -0.94934 -0.22463 -0.21977
vn -0.95741 -0.10289 -0.26979
vn 0.23318 0.92930 -0.28642
vn -0.15586 0.81164 0.56299
vn 0.87017 -0.07200 0.48747
vn -0.23318 0.92930 0.28642
vn 0.95741 -0.10289 0.26979
vn -0.42591 0.88116 -0.20530
vn 0.94934 -0.22463 -0.21977
vn 0.95741 -0.10289 -0.26979
vn -0.23318 0.92930 -0.28642
vn -0.43079 0.22175 -0.87478
vn -0.43079 0.22175 -0.87478
vn 0.43079 0.22175 -0.87478
vn 0.43079 0.22175 -0.87478
vn -0.08716 0.99619 -0.00000
vn -0.55105 -0.04208 -0.83341
vn -0.55105 -0.04208 -0.83341
vn 0.55103 0.04233 -0.83341
vn 0.55103 0.04233 -0.83341
vn -0.22624 -0.08555 0.97031
vn -0.22331 -0.14723 0.96356
vn 0.80760 0.01170 0.58961
vn 0.80284 0.10110 0.58756
vn -0.55259 -0.00797 -0.83342
vn -0.55259 -0.00797 -0.83342
vn 0.22331 0.14723 -0.96356
vn 0.22624 0.08555 -0.97031
vn 0.55259 0.00772 -0.83342
vn 0.55259 0.00772 -0.83342
vn -0.00000 -1.00000 -0.00000
vn 0.00000 -1.00000 -0.00000
vn -0.08716 0.99619 0.00000
vn -0.65682 -0.55249 -0.51318
vn -0.56337 0.10969 -0.81889
vn -0.56337 0.10969 -0.81889
vn -0.08716 0.99619 0.00000
vn 0.74278 -0.43004 -0.51318
vn 0.48476 0.14683 -0.86223
vn 0.48476 0.14683 -0.86223
vn -0.45364 0.17014 -0.87479
vn -0.45364 0.17014 -0.87479
vn 0.45364 0.17014 -0.87479
vn 0.45364 0.17014 -0.87479
vn -0.00000 0.45976 -0.88804
vn -0.00000 0.45976 -0.88804
vn 0.00000 -1.00000 -0.00000
vn -0.80130 -0.12347 -0.58538
vn -0.22517 0.17356 -0.95874
vn -0.15742 0.08694 -0.98370
vn 0.00000 -1.00000 0.00000
vn 0.80130 -0.12347 -0.58538
vn 0.22517 0.17356 -0.95874
vn 0.15742 0.08694 -0.98370
vn -0.54737 0.24719 -0.79955
vn -0.54737 0.24719 -0.79955
vn -0.08716 0.99619 -0.00000
vn 0.29426 0.78064 -0.55137
vn 0.29426 0.78064 -0.55137
vn 0.00000 -1.00000 -0.00000
vn -0.22878 -0.00325 -0.97347
vn 0.22878 0.00325 -0.97347
vn -0.08716 0.99619 0.00000
vn -0.03982 0.45514 -0.88953
vn -0.79539 0.20744 -0.56950
vn -0.80609 -0.05075 -0.58962
vn -0.10012 0.08953 -0.99094
vn -0.01496 0.22822 0.97349
vn -0.22331 -0.14723 0.96356
vn 0.00000 0.00000 -1.00000
vn -0.99990 -0.01419 0.00000
vn -0.99995 -0.01022 0.00000
vn 0.99995 0.01022 0.00000
vn 0.99990 0.01419 0.00000
vn 0.00000 0.00000 -1.00000
vn -0.01536 0.17559 -0.98434
vn -0.01536 0.17559 -0.98434
vn -0.53335 -0.13289 -0.83539
vn -0.53335 -0.13289 -0.83539
vn 0.54833 -0.03825 -0.83539
vn 0.54833 -0.03825 -0.83539
vn 0.00000 0.35217 -0.93594
vn 0.00000 0.35217 -0.93594
vn 0.00000 0.43760 -0.89917
vn 0.45017 0.04625 -0.89175
vn -0.45017 0.04625 -0.89175
vn 0.18649 -0.42742 -0.88461
vn -0.12398 -0.46706 -0.87549
vn -0.48620 -0.83291 0.26433
vn -0.81630 -0.55057 0.17473
vn 0.82380 -0.54032 0.17147
vn -0.78080 -0.62464 -0.01302
vn 0.78080 -0.62464 -0.01302
vn 0.48620 0.83291 -0.26433
vn -0.62660 -0.50128 -0.59673
vn 0.00569 -0.77561 -0.63119
vn -0.03432 -0.10009 -0.99439
vn 0.05264 -0.07579 -0.99573
vn 0.00000 0.41059 0.91182
vn -0.13926 0.90299 0.40648
vn -0.77453 0.63253 0.00000
vn -0.96252 -0.17917 -0.20362
vn 0.13926 0.90299 -0.40648
vn -0.52404 0.42797 -0.73636
vn 0.77453 0.63253 0.00000
vn 0.92417 -0.10522 -0.36720
vn 0.52404 0.42797 -0.73636
vn -0.43375 0.76824 -0.47081
vn 0.35881 0.83234 -0.42245
vn 0.00000 -0.88543 -0.46478
vn -0.22517 0.17356 -0.95874
vn 0.22517 0.17356 -0.95874
vn -0.06901 0.78879 -0.61078
vn -0.24166 0.20836 -0.94773
vn 0.20181 0.24716 -0.94773
vn -0.43690 0.86789 0.23639
vn 0.06960 -0.79554 -0.60189
vn 0.02819 -0.06809 -0.99728
vn -0.36622 0.87071 0.32825
vn 0.36622 0.87071 0.32825
vn -0.76774 0.60606 0.20798
vn 0.76774 0.60606 0.20798
vn 0.77735 -0.61196 -0.14568
vn 0.79198 -0.57129 -0.21537
vn -0.72592 -0.64356 -0.24262
vn -0.36622 -0.87071 -0.32825
vn 0.36622 -0.87071 -0.32825
vn -0.63538 -0.51210 -0.57796
vn -0.62660 -0.50128 -0.59673
vn 0.62660 -0.50128 -0.59673
vn -0.47990 0.38392 -0.78886
vn 0.02612 -0.05868 -0.99793
vn -0.62660 -0.50128 -0.59673
vn 0.47990 0.38392 -0.78886
vn 0.36394 -0.29722 -0.88273
vn -0.21538 0.11441 -0.96980
vn 0.82380 -0.54032 0.17147
vn 0.78471 -0.61964 0.01647
vn 0.32432 0.94595 0.00000
vn 0.95016 -0.22366 -0.21718
vn -0.00137 0.91201 -0.41017
vn -0.47990 0.38392 -0.78886
vn -0.16524 -0.48194 -0.86048
vn 0.48360 0.00420 -0.87528
vn 0.48360 0.00420 -0.87528
vn -0.36394 -0.29722 -0.88273
vn 0.32432 0.94595 0.00000
vn 0.02821 0.99960 0.00000
vn 0.00000 0.73949 -0.67317
vn -0.52404 0.42797 -0.73636
vn 0.04552 0.09876 -0.99407
vn 0.00000 -0.53691 -0.84364
vn -0.04283 0.16295 -0.98571
vn -0.04283 0.16295 -0.98571
vn -0.66604 -0.64057 -0.38218
vn -0.06591 0.75337 -0.65428
vn -0.21796 -0.53444 -0.81662
vn -0.53999 0.14576 -0.82895
vn -0.53999 0.14576 -0.82895
vn 0.03540 -0.40468 -0.91377
vn 0.76716 -0.51518 -0.38218
vn -0.06591 0.75337 -0.65428
vn 0.59254 0.21329 -0.77679
vn 0.59254 0.21329 -0.77679
vn 0.30746 -0.48847 -0.81662
vn 0.03540 -0.40468 -0.91377
vn -0.99044 -0.13794 0.00000
vn 0.42591 0.88116 -0.20530
vn 0.42956 0.87779 -0.21204
vn -0.94934 -0.22463 -0.21977
vn -0.95741 -0.10289 -0.26979
vn 0.23318 0.92930 -0.28642
vn -0.90701 -0.12632 -0.40171
vn 0.27473 0.85783 -0.43434
vn -0.47387 0.53673 -0.69811
vn -0.47387 0.53673 -0.69811
vn -0.42591 0.88116 -0.20530
vn -0.42956 0.87779 -0.21204
vn 0.95016 -0.22366 -0.21718
vn 0.94934 -0.22463 -0.21977
vn 0.95741 -0.10289 -0.26979
vn -0.23318 0.92930 -0.28642
vn 0.90701 -0.12632 -0.40171
vn -0.27473 0.85783 -0.43434
vn 0.75604 -0.18386 -0.62817
vn 0.47446 0.52080 -0.70969
vn 0.47446 0.52080 -0.70969
vn -0.00000 -0.76090 -0.64887
vn 0.00000 0.41059 0.91182
vn 0.76774 0.60606 0.20798
vn -0.81630 -0.55057 0.17473
vn -0.78640 -0.61772 0.00000
vn -0.99044 -0.13794 0.00000
vn 0.02821 0.99960 0.00000
vn -0.00000 -0.95597 -0.29346
vn -0.46938 -0.39459 -0.78992
vn -0.46938 -0.39459 -0.78992
vn 0.46952 -0.22404 -0.85403
vn 0.39935 -0.11142 -0.91000
vn -0.18379 0.21161 -0.95992
vn 0.00000 0.41059 0.91182
vn -0.13926 0.90299 0.40648
vn -0.76774 0.60606 0.20798
vn 0.77735 -0.61196 -0.14568
vn -0.00000 -0.95597 -0.29346
vn -0.70225 0.00762 -0.71189
vn 0.44731 -0.43048 -0.78396
vn 0.44731 -0.43048 -0.78396
vn -0.39935 -0.11142 -0.91000
vn 0.18379 0.21161 -0.95992
vn 0.00000 0.72953 -0.68395
vn 0.00000 0.72953 -0.68395
vn 0.00000 0.47696 -0.87892
vn 0.15412 0.25787 -0.95381
vn -0.15412 0.25787 -0.95381
vn -0.00000 -0.67838 -0.73471
vn 0.13814 -0.31790 -0.93801
vn 0.13814 -0.31790 -0.93801
vn -0.13814 -0.31790 -0.93801
vn -0.13814 -0.31790 -0.93801
vn -0.21796 -0.53444 -0.81662
vn 0.30746 -0.48847 -0.81662
vn -0.02705 0.30913 -0.95063
vn -0.02705 0.30913 -0.95063
vn -0.26998 -0.62271 -0.73440
vn 0.26998 -0.62271 -0.73440
vn -0.25944 -0.62458 -0.73661
vn 0.25944 -0.62458 -0.73661
vn -0.00000 -0.02405 -0.99971
vn -0.68568 -0.09967 -0.72105
vn 0.00770 -0.15533 -0.98783
vn 0.00770 -0.15533 -0.98783
vn 0.68568 -0.09967 -0.72105
vn -0.00770 -0.15533 -0.98783
vn -0.00770 -0.15533 -0.98783
vn -0.42956 0.87779 -0.21204
vn 0.42956 0.87779 -0.21204
vn -0.20378 -0.66415 -0.71929
vn 0.20378 -0.66415 -0.71929
vn 0.00087 0.10310 -0.99467
vn -0.20378 -0.66415 -0.71929
vn -0.12269 0.10806 -0.98654
vn -0.12269 0.10806 -0.98654
vn 0.75604 -0.18386 -0.62817
vn 0.20378 -0.66415 -0.71929
vn 0.12144 0.10227 -0.98732
vn 0.12144 0.10227 -0.98732
f 129//129 213//213 161//161
f 213//213 129//129 163//163
f 214//214 286//286 162//162
f 286//286 214//214 272//272
f 457//457 287//287 275//275
f 287//287 457//457 500//500
f 499//499 458//458 537//537
f 537//537 458//458 495//495
f 454//454 537//537 495//495
f 537//537 454//454 497//497
f 498//498 453//453 283//283
f 283//283 453//453 264//264
f 211//211 282//282 262//262
f 282//282 211//211 160//160
f 209//209 129//129 159//159
f 129//129 209//209 163//163
f 414//414 430//430 601//601
f 414//414 603//603 631//631
f 414//414 71//71 425//425
f 69//69 414//414 56//56
f 414//414 591//591 422//422
f 593//593 414//414 631//631
f 65//65 414//414 417//417
f 63//63 56//56 414//414
f 55//55 20//20 67//67
f 20//20 55//55 13//13
f 630//630 605//605 665//665
f 630//630 665//665 659//659
f 55//55 61//61 15//15
f 55//55 15//15 14//14
f 630//630 661//661 594//594
f 661//661 630//630 659//659
f 147//147 148//148 528//528
f 147//147 528//528 527//527
f 110//110 118//118 148//148
f 110//110 148//148 147//147
f 527//527 528//528 573//573
f 527//527 573//573 568//568
f 527//527 140//140 147//147
f 140//140 527//527 520//520
f 455//455 253//253 263//263
f 263//263 249//249 210//210
f 251//251 455//455 578//578
f 252//252 574//574 241//241
f 212//212 251//251 90//90
f 92//92 250//250 239//239
f 148//148 524//524 528//528
f 524//524 148//148 144//144
f 32//32 30//30 1//1
f 1//1 9//9 32//32
f 634//634 648//648 632//632
f 648//648 634//634 653//653
f 31//31 1//1 30//30
f 1//1 31//31 6//6
f 633//633 632//632 648//648
f 648//648 650//650 633//633
f 147//147 101//101 110//110
f 101//101 147//147 138//138
f 523//523 527//527 555//555
f 555//555 527//527 569//569
f 141//141 148//148 105//105
f 105//105 148//148 117//117
f 528//528 564//564 573//573
f 564//564 528//528 526//526
f 583//583 273//273 258//258
f 273//273 583//583 459//459
f 580//580 257//257 242//242
f 273//273 98//98 255//255
f 256//256 100//100 240//240
f 216//216 98//98 273//273
f 400//400 384//384 433//433
f 434//434 382//382 463//463
f 233//233 379//379 397//397
f 381//381 234//234 208//208
f 192//192 207//207 233//233
f 208//208 194//194 158//158
f 464//464 433//433 462//462
f 465//465 463//463 502//502
f 461//461 465//465 502//502
f 464//464 460//460 431//431
f 376//376 432//432 461//461
f 431//431 378//378 390//390
f 388//388 373//373 231//231
f 232//232 375//375 206//206
f 192//192 231//231 205//205
f 193//193 206//206 158//158
f 590//590 409//409 421//421
f 409//409 592//592 616//616
f 409//409 66//66 418//418
f 64//64 409//409 42//42
f 42//42 16//16 62//62
f 16//16 42//42 8//8
f 616//616 595//595 662//662
f 616//616 662//662 649//649
f 210//210 27//27 164//164
f 26//26 209//209 89//89
f 28//28 88//88 237//237
f 72//72 412//412 426//426
f 412//412 70//70 79//79
f 412//412 600//600 429//429
f 602//602 412//412 627//627
f 79//79 68//68 21//21
f 79//79 21//21 11//11
f 627//627 666//666 606//606
f 666//666 627//627 652//652
f 119//119 107//107 151//151
f 119//119 151//151 149//149
f 576//576 640//640 245//245
f 454//454 642//642 577//577
f 496//496 643//643 455//455
f 459//459 643//643 496//496
f 642//642 458//458 582//582
f 641//641 584//584 246//246
f 550//550 505//505 561//561
f 505//505 550//550 503//503
f 164//164 27//27 215//215
f 213//213 26//26 97//97
f 96//96 29//29 238//238
f 120//120 150//150 103//103
f 150//150 120//120 149//149
f 220//220 303//303 290//290
f 303//303 437//437 290//290
f 317//317 303//303 220//220
f 303//303 317//317 437//437
f 551//551 553//553 504//504
f 551//551 504//504 503//503
f 501//501 469//469 460//460
f 468//468 501//501 530//530
f 335//335 461//461 467//467
f 501//501 472//472 531//531
f 461//461 337//337 377//377
f 462//462 473//473 501//501
f 374//374 329//329 206//206
f 463//463 353//353 471//471
f 206//206 331//331 186//186
f 205//205 184//184 157//157
f 157//157 185//185 131//131
f 383//383 354//354 463//463
f 208//208 346//346 380//380
f 347//347 208//208 190//190
f 157//157 188//188 207//207
f 189//189 157//157 132//132
f 226//226 322//322 317//317
f 322//322 445//445 317//317
f 339//339 322//322 226//226
f 322//322 341//341 445//445
f 449//449 325//325 319//319
f 325//325 228//228 319//319
f 344//344 325//325 449//449
f 325//325 342//342 228//228
f 9//9 22//22 36//36
f 9//9 36//36 32//32
f 653//653 638//638 665//665
f 638//638 653//653 634//634
f 166//166 167//167 219//219
f 166//166 219//219 165//165
f 6//6 34//34 15//15
f 34//34 6//6 31//31
f 650//650 661//661 636//636
f 650//650 636//636 633//633
f 172//172 177//177 225//225
f 172//172 225//225 167//167
f 439//439 310//310 294//294
f 310//310 224//224 292//292
f 319//319 310//310 439//439
f 310//310 319//319 224//224
f 227//227 172//172 167//167
f 178//178 172//172 227//227
f 444//444 494//494 489//489
f 494//494 448//448 489//489
f 480//480 494//494 444//444
f 494//494 481//481 448//448
f 436//436 486//486 483//483
f 486//486 438//438 483//483
f 489//489 486//486 436//436
f 486//486 489//489 438//438
f 223//223 166//166 165//165
f 167//167 166//166 223//223
f 139//139 121//121 104//104
f 139//139 134//134 121//121
f 521//521 548//548 514//514
f 548//548 521//521 552//552
f 143//143 122//122 135//135
f 122//122 143//143 108//108
f 525//525 549//549 564//564
f 525//525 515//515 549//549
f 521//521 365//365 139//139
f 139//139 362//362 136//136
f 367//367 521//521 511//511
f 116//116 151//151 106//106
f 151//151 116//116 153//153
f 572//572 565//565 505//505
f 572//572 505//505 507//507
f 191//191 343//343 350//350
f 470//470 350//350 343//343
f 343//343 191//191 230//230
f 133//133 230//230 191//191
f 230//230 133//133 179//179
f 343//343 451//451 470//470
f 451//451 529//529 470//470
f 529//529 451//451 479//479
f 450//450 529//529 479//479
f 529//529 450//450 466//466
f 340//340 466//466 450//450
f 466//466 340//340 333//333
f 187//187 333//333 340//340
f 187//187 340//340 229//229
f 133//133 187//187 229//229
f 229//229 179//179 133//133
f 111//111 102//102 150//150
f 111//111 150//150 152//152
f 570//570 504//504 554//554
f 504//504 570//570 506//506
f 143//143 366//366 525//525
f 525//525 368//368 512//512
f 363//363 143//143 137//137
f 73//73 7//7 42//42
f 7//7 73//73 2//2
f 651//651 646//646 607//607
f 607//607 616//616 651//651
f 73//73 10//10 3//3
f 73//73 79//79 10//10
f 654//654 607//607 647//647
f 607//607 654//654 627//627
f 116//116 112//112 152//152
f 116//116 152//152 153//153
f 570//570 571//571 507//507
f 570//570 507//507 506//506
f 616//616 607//607 405//405
f 405//405 410//410 616//616
f 405//405 44//44 408//408
f 43//43 405//405 73//73
f 627//627 405//405 607//607
f 405//405 627//627 413//413
f 405//405 411//411 79//79
f 405//405 79//79 73//73
f 12//12 17//17 35//35
f 12//12 35//35 33//33
f 657//657 637//637 660//660
f 637//637 657//657 635//635
f 12//12 37//37 23//23
f 37//37 12//12 33//33
f 658//658 664//664 639//639
f 658//658 639//639 635//635
f 532//532 435//435 476//476
f 435//435 532//532 482//482
f 293//293 476//476 435//435
f 476//476 293//293 298//298
f 281//281 181//181 289//289
f 475//475 284//284 289//289
f 181//181 281//281 160//160
f 129//129 180//180 159//159
f 180//180 129//129 130//130
f 284//284 475//475 498//498
f 474//474 537//537 497//497
f 474//474 533//533 537//537
f 477//477 537//537 534//534
f 537//537 477//477 499//499
f 478//478 288//288 500//500
f 478//478 299//299 288//288
f 183//183 285//285 298//298
f 285//285 183//183 162//162
f 182//182 129//129 161//161
f 129//129 182//182 130//130
f 277//277 265//265 536//536
f 414//414 430//430 601//601
f 414//414 603//603 631//631
f 414//414 71//71 425//425
f 414//414 56//56 69//69
f 414//414 591//591 422//422
f 414//414 631//631 593//593
f 414//414 417//417 65//65
f 414//414 63//63 56//56
f 67//67 55//55 20//20
f 55//55 13//13 20//20
f 605//605 665//665 630//630
f 630//630 665//665 659//659
f 55//55 61//61 15//15
f 55//55 15//15 14//14
f 630//630 661//661 594//594
f 630//630 659//659 661//661
f 146//146 52//52 85//85
f 522//522 51//51 145//145
f 519//519 142//142 621//621
f 518//518 620//620 608//608
f 263//263 578//578 251//251
f 252//252 574//574 241//241
f 263//263 251//251 90//90
f 250//250 239//239 92//92
f 32//32 1//1 76//76
f 634//634 629//629 648//648
f 1//1 31//31 41//41
f 648//648 619//619 633//633
f 273//273 258//258 583//583
f 242//242 580//580 257//257
f 273//273 98//98 255//255
f 240//240 256//256 100//100
f 394//394 356//356 345//345
f 402//402 355//355 372//372
f 393//393 372//372 338//338
f 385//385 328//328 356//356
f 590//590 409//409 421//421
f 592//592 616//616 409//409
f 418//418 409//409 66//66
f 64//64 409//409 42//42
f 62//62 42//42 16//16
f 595//595 662//662 616//616
f 426//426 72//72 412//412
f 70//70 79//79 412//412
f 429//429 412//412 600//600
f 602//602 412//412 627//627
f 68//68 21//21 79//79
f 606//606 627//627 666//666
f 398//398 127//127 81//81
f 396//396 404//404 119//119
f 278//278 575//575 266//266
f 278//278 581//581 575//575
f 579//579 585//585 247//247
f 398//398 622//622 540//540
f 401//401 551//551 407//407
f 271//271 261//261 91//91
f 271//271 91//91 99//99
f 235//235 95//95 86//86
f 389//389 49//49 128//128
f 387//387 119//119 403//403
f 389//389 541//541 609//609
f 391//391 406//406 551//551
f 538//538 332//332 358//358
f 539//539 359//359 348//348
f 316//316 442//442 320//320
f 317//317 322//322 445//445
f 330//330 321//321 443//443
f 336//336 445//445 322//322
f 20//20 36//36 77//77
f 32//32 74//74 36//36
f 665//665 628//628 638//638
f 634//634 638//638 626//626
f 15//15 40//40 34//34
f 31//31 34//34 41//41
f 661//661 636//636 618//618
f 633//633 615//615 636//636
f 441//441 488//488 324//324
f 440//440 323//323 357//357
f 446//446 326//326 489//489
f 447//447 371//371 327//327
f 267//267 305//305 314//314
f 304//304 489//489 313//313
f 260//260 306//306 301//301
f 302//302 308//308 487//487
f 521//521 126//126 45//45
f 521//521 361//361 125//125
f 521//521 544//544 370//370
f 521//521 616//616 547//547
f 143//143 124//124 360//360
f 143//143 79//79 123//123
f 143//143 542//542 623//623
f 143//143 369//369 543//543
f 395//395 78//78 153//153
f 399//399 155//155 625//625
f 545//545 352//352 364//364
f 546//546 364//364 334//334
f 386//386 153//153 41//41
f 392//392 617//617 156//156
f 4//4 42//42 73//73
f 644//644 607//607 616//616
f 5//5 73//73 79//79
f 645//645 627//627 607//607
f 41//41 153//153 78//78
f 614//614 624//624 154//154
f 616//616 607//607 405//405
f 410//410 616//616 405//405
f 408//408 405//405 44//44
f 43//43 405//405 73//73
f 627//627 405//405 607//607
f 413//413 405//405 627//627
f 411//411 79//79 405//405
f 79//79 73//73 405//405
f 12//12 17//17 35//35
f 657//657 637//637 660//660
f 23//23 12//12 37//37
f 664//664 639//639 658//658
f 535//535 263//263 297//297
f 279//279 537//537 300//300
f 268//268 296//296 260//260
f 427//427 596//596 57//57
f 597//597 655//655 59//59
f 58//58 587//587 419//419
f 60//60 656//656 588//588
f 423//423 56//56 24//24
f 605//605 665//665 659//659
f 56//56 415//415 18//18
f 594//594 659//659 661//661
f 114//114 567//567 48//48
f 567//567 613//613 48//48
f 455//455 243//243 93//93
f 113//113 558//558 566//566
f 115//115 84//84 560//560
f 276//276 244//244 459//459
f 202//202 351//351 513//513
f 589//589 50//50 420//420
f 586//586 612//612 47//47
f 416//416 42//42 19//19
f 595//595 662//662 616//616
f 428//428 83//83 599//599
f 598//598 82//82 559//559
f 424//424 25//25 79//79
f 604//604 564//564 663//663
f 109//109 192//192 78//78
f 458//458 248//248 454//454
f 570//570 563//563 516//516
f 270//270 87//87 236//236
f 94//94 222//222 485//485
f 221//221 170//170 484//484
f 168//168 173//173 490//490
f 200//200 491//491 174//174
f 169//169 493//493 176//176
f 201//201 175//175 492//492
f 20//20 109//109 75//75
f 665//665 563//563 570//570
f 54//54 15//15 39//39
f 53//53 38//38 109//109
f 659//659 615//615 661//661
f 659//659 570//570 615//615
f 280//280 486//486 312//312
f 269//269 307//307 217//217
f 171//171 311//311 486//486
f 218//218 309//309 167//167
f 109//109 41//41 192//192
f 570//570 517//517 615//615
f 199//199 46//46 611//611
f 196//196 610//610 509//509
f 195//195 508//508 349//349
f 557//557 80//80 198//198
f 556//556 197//197 510//510
f 570//570 204//204 615//615
f 570//570 562//562 203//203
f 274//274 456//456 452//452
f 385//385 315//315 291//291
f 393//393 295//295 318//318
f 267//267 318//318 295//295
f 260//260 291//291 315//315
f 267//267 295//295 259//259
f 260//260 254//254 291//291
