# Arch Katana over default katana - HandleWrap
# Fleasion-ready: already in the default MeshPart's space
o HandleWrap
v 0.019853 -0.414395 0.048003 0.0340 0.7820 0.4080
v -0.008404 0.191465 0.036869 0.0340 0.7820 0.4080
v 0.019853 -0.414395 0.036869 0.0340 0.7820 0.4080
v 0.019853 -0.414395 0.036869 0.0340 0.7820 0.4080
v 0.019853 -0.414395 0.036869 0.0340 0.7820 0.4080
v -0.004276 -0.099357 0.036869 0.0340 0.7820 0.4080
v -0.040087 -0.419639 0.033872 0.0340 0.7820 0.4080
v 0.079793 -0.409151 0.033872 0.0340 0.7820 0.4080
v -0.026255 -0.418429 0.025999 0.0340 0.7820 0.4080
v -0.026255 -0.418429 0.025999 0.0340 0.7820 0.4080
v -0.026255 -0.418429 0.025999 0.0340 0.7820 0.4080
v 0.065961 -0.410361 0.025999 0.0340 0.7820 0.4080
v 0.065961 -0.410361 0.025999 0.0340 0.7820 0.4080
v 0.065961 -0.410361 0.025999 0.0340 0.7820 0.4080
v -0.038363 -0.259902 0.025999 0.0080 0.0160 0.0160
v 0.053941 -0.253851 0.025999 0.0080 0.0160 0.0160
v -0.050471 -0.101374 0.025999 0.0080 0.0160 0.0160
v 0.041920 -0.097340 0.025999 0.0340 0.7820 0.4080
v -0.052580 0.045045 0.025999 0.0340 0.7820 0.4080
v 0.039900 0.047062 0.025999 0.0340 0.7820 0.4080
v -0.054688 0.191465 0.025999 0.0340 0.7820 0.4080
v 0.037880 0.191465 0.025999 0.0340 0.7820 0.4080
v -0.064915 -0.421811 -0.000244 0.0340 0.7820 0.4080
v -0.045353 -0.420100 -0.000244 0.0340 0.7820 0.4080
v -0.045353 -0.420100 -0.000244 0.0340 0.7820 0.4080
v -0.045353 -0.420100 -0.000244 0.0340 0.7820 0.4080
v 0.085059 -0.408690 -0.000244 0.0340 0.7820 0.4080
v 0.085059 -0.408690 -0.000244 0.0340 0.7820 0.4080
v 0.085059 -0.408690 -0.000244 0.0340 0.7820 0.4080
v 0.104621 -0.406979 -0.000244 0.0340 0.7820 0.4080
v -0.069606 -0.102210 -0.000244 0.0080 0.0160 0.0160
v 0.061055 -0.096505 -0.000244 0.0340 0.7820 0.4080
v -0.073859 0.191465 -0.000244 0.0340 0.7820 0.4080
v 0.057051 0.191465 -0.000244 0.0340 0.7820 0.4080
v -0.026255 -0.418429 -0.026487 0.0340 0.7820 0.4080
v -0.026255 -0.418429 -0.026487 0.0340 0.7820 0.4080
v -0.026255 -0.418429 -0.026487 0.0340 0.7820 0.4080
v 0.065961 -0.410361 -0.026487 0.0340 0.7820 0.4080
v -0.038363 -0.259902 -0.026487 0.0080 0.0160 0.0160
v 0.053941 -0.253851 -0.026487 0.0080 0.0160 0.0160
v -0.050471 -0.101374 -0.026487 0.0080 0.0160 0.0160
v 0.041920 -0.097340 -0.026487 0.0340 0.7820 0.4080
v -0.052580 0.045045 -0.026487 0.0340 0.7820 0.4080
v 0.039900 0.047062 -0.026487 0.0340 0.7820 0.4080
v -0.054688 0.191465 -0.026487 0.0340 0.7820 0.4080
v 0.037880 0.191465 -0.026487 0.0340 0.7820 0.4080
v -0.040087 -0.419639 -0.034360 0.0340 0.7820 0.4080
v 0.019853 -0.414395 -0.037357 0.0340 0.7820 0.4080
v 0.019853 -0.414395 -0.037357 0.0340 0.7820 0.4080
v 0.019853 -0.414395 -0.037357 0.0340 0.7820 0.4080
v -0.004276 -0.099357 -0.037357 0.0340 0.7820 0.4080
v -0.008404 0.191465 -0.037357 0.0340 0.7820 0.4080
v 0.019853 -0.414395 -0.048491 0.0340 0.7820 0.4080
vn -0.08716 0.99619 0.00000
vn 0.00000 -0.00005 1.00000
vn -0.22799 -0.01741 0.97351
vn 0.22798 0.01751 0.97351
vn -0.07837 0.89572 0.43765
vn -0.00000 0.00000 1.00000
vn -0.08716 0.99619 -0.00000
vn -0.08716 0.99619 -0.00000
vn -0.22799 -0.01741 0.97351
vn -0.80515 -0.06150 0.58987
vn -0.36491 0.82015 0.44067
vn 0.22798 0.01751 0.97351
vn 0.80513 0.06183 0.58987
vn 0.21867 0.86942 0.44305
vn -0.55105 -0.04209 0.83341
vn 0.55103 0.04232 0.83341
vn -0.55209 -0.02504 0.83341
vn 0.55209 0.02504 0.83341
vn -0.55259 -0.00796 0.83342
vn 0.55259 0.00773 0.83342
vn -0.55240 -0.00795 0.83354
vn 0.55240 0.00773 0.83354
vn -0.08716 0.99619 0.00000
vn -0.80515 -0.06150 0.58987
vn -0.69052 0.72332 0.00000
vn -0.80515 -0.06150 -0.58987
vn 0.80513 0.06183 0.58987
vn -0.08716 0.99619 0.00000
vn 0.80513 0.06183 -0.58987
vn -0.08716 0.99619 -0.00000
vn -0.99897 -0.04530 -0.00000
vn 0.99897 0.04530 0.00000
vn -0.99990 -0.01440 -0.00000
vn 0.99990 0.01399 0.00000
vn -0.36491 0.82015 -0.44067
vn -0.80515 -0.06150 -0.58987
vn -0.22799 -0.01741 -0.97351
vn 0.55082 0.04230 -0.83355
vn -0.55105 -0.04209 -0.83341
vn 0.55103 0.04232 -0.83341
vn -0.55209 -0.02504 -0.83341
vn 0.55209 0.02504 -0.83341
vn -0.55259 -0.00796 -0.83342
vn 0.55259 0.00773 -0.83342
vn -0.55240 -0.00795 -0.83354
vn 0.55240 0.00773 -0.83354
vn -0.08716 0.99619 0.00000
vn -0.08716 0.99619 0.00000
vn -0.22799 -0.01741 -0.97351
vn 0.22798 0.01751 -0.97351
vn -0.00000 0.00000 -1.00000
vn 0.00000 -0.00005 -1.00000
vn -0.08716 0.99619 0.00000
f 33//33 45//45 43//43
f 45//45 52//52 43//43
f 40//40 38//38 50//50
f 38//38 40//40 29//29
f 43//43 41//41 31//31
f 41//41 43//43 51//51
f 31//31 41//41 39//39
f 41//41 51//51 39//39
f 44//44 42//42 51//51
f 42//42 44//44 32//32
f 42//42 32//32 40//40
f 51//51 42//42 40//40
f 39//39 36//36 26//26
f 37//37 39//39 49//49
f 2//2 21//21 19//19
f 21//21 33//33 19//19
f 52//52 46//46 44//44
f 46//46 34//34 44//44
f 16//16 13//13 27//27
f 12//12 16//16 4//4
f 19//19 17//17 6//6
f 17//17 19//19 31//31
f 6//6 17//17 15//15
f 17//17 31//31 15//15
f 20//20 18//18 32//32
f 32//32 18//18 16//16
f 18//18 20//20 6//6
f 18//18 6//6 16//16
f 15//15 9//9 3//3
f 10//10 15//15 24//24
f 34//34 22//22 20//20
f 22//22 2//2 20//20
f 14//14 30//30 28//28
f 30//30 14//14 8//8
f 5//5 8//8 14//14
f 8//8 5//5 1//1
f 23//23 35//35 47//47
f 48//48 47//47 35//35
f 47//47 48//48 53//53
f 35//35 23//23 25//25
f 11//11 25//25 23//23
f 23//23 7//7 11//11
f 7//7 5//5 11//11
f 7//7 1//1 5//5
